<svg viewBox="0 0 102 102">
<rect class="border" x="1" y="7" width="100" height="88"/>
<rect class="border" x="7" y="1" width="88" height="100"/>
<path class="border" d="M1,36.9L36.9,1 M1,30.1L29.9,1 M1,23.2L23.9,1 M1,16.4L16.9,1 M1,9.6L9.9,1 M100.7,36.6L64.9,1
 M100.7,29.7L72,1 M100.7,22.9L78.1,1 M100.7,16L85.1,1 M100.7,9.1L92.2,1 M1,66l35.2,34.6 M1,72.8l28.2,27.8 M1,79.6l22.3,21
 M1,86.4l15.3,14.3 M1,93.1l8.3,7.5 M100.7,66.3L65.5,101 M100.7,73.2L72.6,101 M100.7,80l-22,21 M100.7,86.8l-15,14.2 M100.7,93.6
l-8,7.4"/>
<path class="deco" d="M70.3,81.4c0-0.4-1.3-3.6-2-5.4c-0.4-1.2-0.5-1-1.2-0.1c-0.8,1.4-2.3,2.3-3.9,2.4
c-4.4,0-6.1-4.8-10.3-4.8c-4.1,0-5.7,4.5-10.1,4.5c-1.7,0-3.8-1.3-5.2-3c-0.6-0.7-0.6-0.2-0.9,0.5c-0.6,1.8-1.9,4.5-1.9,5
c0,0.3,0.1,0.6,0.4,0.8c3,4,4.7,4.6,8.5,4.6c3.4,0,6.3-3.1,9.3-3.1c3.3,0,6.7,3.1,10.1,3.1c2.9,0,4.5-0.4,6.8-3.6
C70.1,82,70.3,81.7,70.3,81.4z"/>
<path class="letter" d="M58.3,67.3c0-0.7-0.7-1.2-1-1.8c-0.4-1.1-0.6-2.2-0.5-3.4V31.7h3.7c2-0.1,4,0.1,5.9,0.7
c0.6,0.3,1.2,0.4,1.9,0.5c0.6,0,1-0.4,1.1-1c0-0.1,0-0.1,0-0.2c0-2.3-0.1-4.6-0.1-6.9c-5.5,0.2-7.2,0.3-12.7,0.3h-8
c-3.8,0-8.9-0.1-12.6-0.2c0,2.2-0.1,4.6-0.1,6.8c-0.1,0.6,0.3,1.1,0.9,1.2c0.1,0,0.1,0,0.2,0c0.6-0.1,1.3-0.3,1.9-0.5
c1.7-0.6,3.5-0.8,5.4-0.7h4.2V62c0,2.4-2.1,4.5-2.1,4.9"/>
</svg>
