<svg viewBox='0 0 670 732'>
	<path class='envelope-back' d="M10,367L334,90l326,277v355H10V367z"/>
	<g class="paper">
		<rect class="bg" x="50" width="570" height="600"/>
		<rect class="border" x="60" y="20" width="550" height="560"/>
		<rect class="border" x="70" y="10" width="530" height="580"/>
		<path class="lines" d="M533,410.5V407h4v1.5L533,410.5z M523,415.5V407h4v6.5L523,415.5z M513,420.5V407h4v11.5L513,420.5
		z M503,425.5V407h4v16.5L503,425.5z M493,430.5V407h4v21.5L493,430.5z M483,435.5V407h4v26.5L483,435.5z M473,440.5V407h4v31.5
		L473,440.5z M463,445.5V407h4v36.5L463,445.5z M453,450.5V407h4v41.5L453,450.5z M443,455.5V407h4v46.5L443,455.5z M433,460.5V407
		h4v51.5L433,460.5z M423,465.5V407h4v56.5L423,465.5z M413,470.5V407h4v61.5L413,470.5z M403,475.5V407h4v66.5L403,475.5z
		M393,480.5V407h4v71.5L393,480.5z M383,485.5V407h4v76.5L383,485.5z M373,490.5V407h4v81.5L373,490.5z M363,495.5V407h4v86.5
		L363,495.5z M353,500.5V407h4v91.5L353,500.5z M343,505.5V407h4v96.5L343,505.5z M334,510l-1-0.5V407h4v101.5L334,510z M323,504.5
		V407h4v99.5L323,504.5z M313,499.4V407h4v94.5L313,499.4z M303,494.4V407h4v89.4L303,494.4z M293,489.4V407h4v84.4L293,489.4z
		M283,484.3V407h4v79.4L283,484.3z M273,479.3V407h4v74.3L273,479.3z M263,474.3V407h4v69.3L263,474.3z M253,469.3V407h4v64.3
		L253,469.3z M243,464.2V407h4v59.2L243,464.2z M233,459.2V407h4v54.2L233,459.2z M223,454.2V407h4v49.2L223,454.2z M213,449.1V407
		h4v44.1L213,449.1z M203,444.1V407h4v39.1L203,444.1z M193,439.1V407h4v34.1L193,439.1z M183,434v-27h4v29L183,434z M173,429v-22h4
		v24L173,429z M163,424v-17h4v19L163,424z M153,418.9V407h4v14L153,418.9z M143,413.9V407h4v8.9L143,413.9z M133,408.9V407h4v3.9
		L133,408.9z"/>
	</g>
	<path class="envelope-front" d="M10,367l324,163l326-163v355H10V367z"/>
</svg>
