<svg id="icon-marker" xmlns="http://www.w3.org/2000/svg" width="63.843" height="80.19" viewBox="0 0 63.843 80.19">
  <metadata><?xpacket begin="﻿" id="W5M0MpCehiHzreSzNTczkc9d"?>
<x:xmpmeta xmlns:x="adobe:ns:meta/" x:xmptk="Adobe XMP Core 5.6-c138 79.159824, 2016/09/14-01:09:01        ">
   <rdf:RDF xmlns:rdf="http://www.w3.org/1999/02/22-rdf-syntax-ns#">
      <rdf:Description rdf:about=""/>
   </rdf:RDF>
</x:xmpmeta>
                                                                                                    
                                                                                                    
                                                                                                    
                                                                                                    
                                                                                                    
                                                                                                    
                                                                                                    
                                                                                                    
                                                                                                    
                                                                                                    
                                                                                                    
                                                                                                    
                                                                                                    
                                                                                                    
                                                                                                    
                                                                                                    
                                                                                                    
                                                                                                    
                                                                                                    
                                                                                                    
                           
<?xpacket end="w"?></metadata>
<defs>
    <style>
      .cls-1, .cls-2, .cls-4, .cls-5 {
        fill-rule: evenodd;
      }

      .cls-1 {
        opacity: 0.3;
      }

      .cls-2 {
        fill: #aa9c62;
      }

      .cls-3, .cls-4 {
        fill: #ccbb76;
      }

      .cls-5 {
        fill: #fff;
      }
    </style>
  </defs>
  <path id="Rectangle_13_copy_2" data-name="Rectangle 13 copy 2" class="cls-1" d="M974.366,3244.24v0.03l-0.672.24c-0.491.19-1,.38-1.539,0.56l-33.5,9.11,0.686-10.62a12.307,12.307,0,0,1,2.351-1.46c6.5-3.24,19.251-5.46,28.5-5.14,8.912,0.32,11.983,2.9,6.9,5.94A21.367,21.367,0,0,1,974.366,3244.24Z" transform="translate(-915.688 -3174)"/>
  <path class="cls-2" d="M939,3254l-21.154-46.45c-6.844-15.03,3.348-32.68,19.865-33.52q0.641-.03,1.289-0.03t1.289,0.03c16.518,0.84,26.709,18.49,19.866,33.52Z" transform="translate(-915.688 -3174)"/>
  <circle class="cls-3" cx="23.312" cy="23" r="19.5"/>
  <path id="Rectangle_19_copy_12" data-name="Rectangle 19 copy 12" class="cls-4" d="M928,3217.77v3.51l-2-4.4v-0.3C926.645,3217,927.312,3217.4,928,3217.77Zm3,1.33v8.76l-2-4.39v-5.2C929.651,3218.57,930.318,3218.85,931,3219.1Zm3,0.86v14.49l-2-4.39v-10.62C932.654,3219.64,933.323,3219.82,934,3219.96Zm3,0.45v20.63l-2-4.39v-16.5C935.658,3220.27,936.325,3220.35,937,3220.41Zm2,0.09q0.5,0,1-.03v22.75l-1,2.2-1-2.19v-22.76Q938.5,3220.5,939,3220.5Zm4-.35v16.49l-2,4.39v-20.62C941.675,3220.35,942.342,3220.27,943,3220.15Zm3-.71v10.61l-2,4.39v-14.48C944.677,3219.82,945.346,3219.64,946,3219.44Zm3-1.17v5.19l-2,4.39v-8.75C947.682,3218.85,948.349,3218.57,949,3218.27Zm3-1.69v0.3l-2,4.39v-3.5C950.688,3217.4,951.355,3217,952,3216.58Z" transform="translate(-915.688 -3174)"/>
  <path id="Rectangle_13_copy" data-name="Rectangle 13 copy" class="cls-5" d="M945.588,3207.07c-0.863,0-1.725-.08-2.587-0.08-0.334,0-.7.05-1.029,0.05a0.173,0.173,0,0,1-.139-0.16,1.74,1.74,0,0,0,.278-0.78,33.667,33.667,0,0,0-.953-3.86l1.488-2.05c0.08,0.3.161,0.62,0.244,0.93a26.8,26.8,0,0,0,1.891,4.68,1.924,1.924,0,0,0,.751.88,0.338,0.338,0,0,1,.223.28A0.181,0.181,0,0,1,945.588,3207.07Zm-5.313-16.29a0.1,0.1,0,0,0-.083.06s0.456,1.72,1.191,4.52l-1.577,2.2c-0.88-2.95-1.743-5.69-2.034-6.36a0.717,0.717,0,0,0-.2-0.31,0.406,0.406,0,0,0-.056.17v14.02a3.869,3.869,0,0,0,.585,1.74c0,0.14-.223.14-0.306,0.14-0.5,0-1.2-.05-1.7-0.05-0.556,0-1.112.13-1.669,0.13-0.111,0-.194,0-0.194-0.13a0.59,0.59,0,0,1,.194-0.42,3.383,3.383,0,0,0,.584-2.38v-17.17a5.647,5.647,0,0,0-.25-1.5,5.273,5.273,0,0,1-.362-0.72,0.19,0.19,0,0,1,.2-0.11c0.556,0,1.085.11,1.641,0.11,1.975,0,3.922-.02,5.9-0.02a2.976,2.976,0,0,1,3.282,3.07C945.421,3191.2,942.417,3190.78,940.275,3190.78Zm1.836-3.68h-4.117c-0.306,0-.473.06-0.473,0.39v0.61c0,0.33.362,0.33,0.613,0.33h3.949a0.657,0.657,0,0,0,.7-0.63A0.705,0.705,0,0,0,942.111,3187.1Zm10.328,19.74h-1.834c-0.555,0-1.278.11-1.806,0.11a0.236,0.236,0,0,1-.194-0.08,5.793,5.793,0,0,0,.5-1.77v-0.14c0-.38-0.472-7.3-0.889-11.92a1.07,1.07,0,0,0-.048-0.29,0.159,0.159,0,0,0-.119-0.13c-0.167,0-7.817,8.93-8.539,11.12a0.235,0.235,0,0,1-.451,0,7.9,7.9,0,0,0-.879-1.6v-4.42c0.59,0.8,1.006,1.35,1.105,1.47,0.454-.52,7.6-10.27,7.6-11.05a0.286,0.286,0,0,1,.306-0.36,8.321,8.321,0,0,1,.98.08,4.79,4.79,0,0,0,.576.03c0.639,0,1.25-.11,1.889-0.11,0.195,0,.278.05,0.278,0.25a3.757,3.757,0,0,0-.445.99c0,0.09.028,0.2,0.028,0.28,0.111,1.63.278,3.46,0.389,5.15,0.25,3.32.472,6.67,0.723,9.99a3.752,3.752,0,0,0,.75,2.02,1.1,1.1,0,0,1,.194.3A0.092,0.092,0,0,1,952.439,3206.84Zm-18.013-9.67c-1.971-2.43-3.833-4.55-3.915-4.55a0.159,0.159,0,0,0-.119.13,1.07,1.07,0,0,0-.048.29c-0.417,4.62-.89,11.54-0.89,11.92v0.14a5.759,5.759,0,0,0,.5,1.77,0.236,0.236,0,0,1-.2.08c-0.528,0-1.251-.11-1.808-0.11h-1.835a0.093,0.093,0,0,1-.112-0.08,1.079,1.079,0,0,1,.2-0.3,3.761,3.761,0,0,0,.751-2.02c0.25-3.32.473-6.67,0.723-9.99,0.111-1.69.278-3.52,0.39-5.15,0-.08.027-0.19,0.027-0.28a3.757,3.757,0,0,0-.445-0.99c0-.2.084-0.25,0.279-0.25,0.639,0,1.251.11,1.891,0.11a4.79,4.79,0,0,0,.576-0.03,8.339,8.339,0,0,1,.981-0.08,0.286,0.286,0,0,1,.306.36,26.947,26.947,0,0,0,2.783,4.41Z" transform="translate(-915.688 -3174)"/>
</svg>
