<svg id="icon-subtitle" viewBox="0 0 202.1 33.9">
	<path d="M100.8,24.2L50.9,2.1L1,24.2"/>
	<path d="M100.8,28.5L50.9,6.5L1,28.5"/>
	<path d="M100.8,32.9L50.9,10.8L1,32.9"/>
	<path d="M200.6,24.2L150.7,2.1l-49.9,22.1"/>
	<path d="M200.6,28.5L150.7,6.5l-49.9,22.1"/>
	<path d="M200.6,32.9l-49.9-22.1l-49.9,22.1"/>
	<path d="M101.3,9.8L151.2,32l49.9-22.2"/>
	<path d="M101.3,5.4l49.9,22.2l49.9-22.2"/>
	<path d="M101.3,1l49.9,22.2L201.1,1"/>
	<path d="M1.5,9.8L51.4,32l49.9-22.2"/>
	<path d="M1.5,5.4l49.9,22.2l49.9-22.2"/>
	<path d="M1.5,1l49.9,22.2L101.3,1"/>
</svg>
