<svg id="icon-parking" xmlns="http://www.w3.org/2000/svg" width="33.875" height="32.96" viewBox="0 0 33.875 32.96">
  <metadata><?xpacket begin="﻿" id="W5M0MpCehiHzreSzNTczkc9d"?>
<x:xmpmeta xmlns:x="adobe:ns:meta/" x:xmptk="Adobe XMP Core 5.6-c138 79.159824, 2016/09/14-01:09:01        ">
   <rdf:RDF xmlns:rdf="http://www.w3.org/1999/02/22-rdf-syntax-ns#">
      <rdf:Description rdf:about=""/>
   </rdf:RDF>
</x:xmpmeta>
                                                                                                    
                                                                                                    
                                                                                                    
                                                                                                    
                                                                                                    
                                                                                                    
                                                                                                    
                                                                                                    
                                                                                                    
                                                                                                    
                                                                                                    
                                                                                                    
                                                                                                    
                                                                                                    
                                                                                                    
                                                                                                    
                                                                                                    
                                                                                                    
                                                                                                    
                                                                                                    
                           
<?xpacket end="w"?></metadata>
<defs>
    <style>
      .cls-1, .cls-2, .cls-3, .cls-4 {
        fill-rule: evenodd;
      }

      .cls-1 {
        opacity: 0.3;
      }

      .cls-2 {
        fill: #445b85;
      }

      .cls-3 {
        fill: #6a90d2;
      }

      .cls-4 {
        fill: #fff;
      }
    </style>
  </defs>
  <path id="Shape_5_copy_2" data-name="Shape 5 copy 2" class="cls-1" d="M996.411,3262.68l2.5,8.86-18.563,6.66-4.7-8.58Z" transform="translate(-965.031 -3246.88)"/>
  <path class="cls-2" d="M981.514,3246.87L998,3263.36l-16.489,16.49-16.49-16.49Z" transform="translate(-965.031 -3246.88)"/>
  <path id="Shape_5_copy_3" data-name="Shape 5 copy 3" class="cls-3" d="M981.514,3248.37l14.989,14.99-14.989,14.99-14.989-14.99Z" transform="translate(-965.031 -3246.88)"/>
  <path id="Shape_5_copy" data-name="Shape 5 copy" class="cls-4" d="M981.6,3266.72h-0.95v1.63a2.452,2.452,0,0,0,.272,1.36c0,0.14.136,0.14,0.136,0.27a0.7,0.7,0,0,1-.408.27l-0.814.55a3,3,0,0,1-1.086.67,0.131,0.131,0,0,1-.135-0.13c0-.27.135-0.41,0.135-0.68a6.605,6.605,0,0,0,.136-1.63V3257.9a1.525,1.525,0,0,0-.407-0.68,0.131,0.131,0,0,1,.136-0.13h3.121c2.307,0,4.343.68,4.343,4.34C986.218,3264.01,984.318,3266.72,981.6,3266.72Zm0.408-7.73h-1.358v5.43c0,0.54.272,0.68,0.815,0.68,1.628,0,2.985-2.04,2.985-3.53A2.315,2.315,0,0,0,982.011,3258.99Z" transform="translate(-965.031 -3246.88)"/>
</svg>
