<svg viewBox="0 0 122 130">
<g class="drink">
	<g id="glass">
		<line class="line" x1="91.4" y1="87.1" x2="98.3" y2="112.9"/>
		<line class="line" x1="95.3" y1="86.1" x2="102.2" y2="111.8"/>
		<path class="line" d="M113.6,116.1L113.6,116.1c-0.2,0.1-0.5,0.1-0.7,0.2c-7.2,1.7-9.7-0.8-10.7-4.5"/>
		<path class="line" d="M98.3,112.9c1,3.7,0.1,7.1-7,9.2c-0.2,0.1-0.5,0.1-0.7,0.2l0,0"/>
		<path class="line" d="M94.4,32.4l9.6,36l0,0c2.1,8-2.6,16.2-10.6,18.4c-8,2.1-16.2-2.6-18.4-10.6l0,0l-9.6-36L94.4,32.4z"/>
		<line class="line" x1="118.5" y1="114.8" x2="85.7" y2="123.6"/>
	</g>
	<linearGradient id="gradient-blue" gradientUnits="userSpaceOnUse" x1="87.1737" y1="55.9166" x2="87.1737" y2="85.2587">
		<stop  offset="0" style="stop-color:#E6FFF8"/>
		<stop  offset="0.9383" style="stop-color:#D9E6FF"/>
	</linearGradient>
	<path class="blue" d="M98.4,55.9H71.8L77,75.6c1.9,6.9,9,11,15.9,9.2c6.9-1.9,11-9,9.2-15.9L98.4,55.9z"/>
	<g class="glare">
		<path class="line" d="M92.6,81.4c-5.2,1.4-10.5-1.7-11.9-6.9"/>
		<line class="line" x1="80.7" y1="74.5" x2="77.7" y2="63.4"/>
	</g>
</g>
<g class="drink drink-yellow">
	<linearGradient id="gradient-pink" gradientUnits="userSpaceOnUse" x1="42.9496" y1="55.9166" x2="42.9496" y2="87.8633">
		<stop offset="0" style="stop-color:#FCFFE0"/>
		<stop offset="0.9383" style="stop-color:#FFEED9"/>
	</linearGradient>
	<path class="pink" d="M32.2,55.9l-4.9,14.9c-2.2,6.8,1.6,14.2,8.4,16.4s14.2-1.5,16.4-8.4l7.2-22.9H32.2z"/>
	<g class="glass">
		<line class="line" x1="28.8" y1="115" x2="37" y2="89.6"/>
		<line class="line" x1="25" y1="113.7" x2="33.2" y2="88.4"/>
		<path class="line" d="M25,113.7c-1.2,3.6-3.8,6-10.9,3.9c-0.2-0.1-0.5-0.1-0.7-0.2l0,0"/>
		<path class="line" d="M36,124.7L36,124.7c-0.2-0.1-0.5-0.1-0.7-0.2c-7-2.5-7.7-6-6.6-9.6"/>
		<path class="line" d="M36.8,34.8L25.4,70.2l0,0c-2.5,7.9,1.8,16.3,9.7,18.9c7.9,2.5,16.3-1.8,18.9-9.7l0,0L65.4,44L36.8,34.8z"/>
		<line class="line" x1="8.5" y1="115.9" x2="40.9" y2="126.3"/>
	</g>
	<g class="glare">
		<path class="line" d="M36.1,83.9c5.1,1.6,10.6-1.2,12.2-6.3"/>
		<line class="line" x1="48.3" y1="77.6" x2="51.9" y2="66.6"/>
	</g>
</g>
<g class="bubbles">
	<circle class="bubble" cx="44.9" cy="28.4" r="1.9"/>
	<circle class="bubble" cx="58.9" cy="35.3" r="2.9"/>
	<circle class="bubble" cx="52.8" cy="50.5" r="1.7"/>
	<circle class="bubble" cx="41.5" cy="42.7" r="1.8"/>
	<circle class="bubble" cx="77.5" cy="49.4" r="1.7"/>
	<circle class="bubble" cx="90.5" cy="46.3" r="2.5"/>
	<circle class="bubble" cx="70.9" cy="28.7" r="1.7"/>
	<circle class="bubble" cx="82" cy="41.8" r="1.3"/>
	<circle class="bubble" cx="82" cy="19.6" r="1.7"/>
	<circle class="bubble" cx="56.6" cy="22.5" r="2.1"/>
	<circle class="bubble" cx="78.9" cy="10.9" r="1.4"/>
	<circle class="bubble" cx="48.8" cy="5.3" r="1.3"/>
</g>
</svg>
