<svg viewBox='0 0 143.4 84.1'>
<path id="heart" class="st0" d="M70.9,5.3c-3-6.8-11.4-5.2-11.5,2.7c0,4.5,11.5,12.6,11.5,12.6S82.4,12.5,82.3,8
	C82.3,0,73.8-1.2,70.9,5.3z"/>
<g id="bird_mario">
	<path id="wing" class="st1" d="M33.7,44.2c0,0-12.1,5-21.7-6.8c0.1-1,0-5.3,3.1-7.9C18.9,42.2,32.3,44.2,33.7,44.2z"/>
	<path id="body" class="st2" d="M52.8,39.4c-0.7-3.1-3.5-5.5-6.9-5.5c-3.9,0-7,3.1-7.1,7l0,0.1c0,0.1,0,0.2,0,0.3
		c-2.5,1.2-4.8,2-6.8,2.6c-4.1,1.1-7.5,1.1-10.3,0.4c0,0,0,0,0,0s0,0,0,0C12.1,42,9,32.1,8.5,29.3c-1.7,2-3,4.3-3.8,6.8
		c-0.9,2.8-1.1,5.9-0.6,9c1.4,7.4,6.8,13.5,14.2,15.4c-1.8,1.4-4,2.5-6.4,2.9c-3.2,0.6-6.3,0-8.9-1.3c-0.1,1.6-0.1,3.3,0.2,5
		c1.4,7.2,6.4,12.8,12.8,15c-0.1-0.5-0.2-0.9-0.3-1.4c-1.4-7.7,3.8-15,11.5-16.4c0.5-0.1,0.9-0.1,1.4-0.2c0.3,0,1.1,0,1.9-0.1
		c0.8,0,1.5-0.1,1.8-0.1c3.5-0.6,6.5-2.2,8.8-4.5c1.2-1.1,2.2-2.5,2.9-3.9c0.8-1.5,1.4-3,1.7-4.7c0.2-0.9,0.3-1.8,0.3-2.7l0.1,0
		c3.4-0.1,6.3-2.6,6.8-5.9c0.1-0.4,0.1-0.8,0.1-1.2C53,40.5,52.9,39.9,52.8,39.4z"/>
	<path id="beak" class="st3" d="M52.8,39.4h9.4l-9.3,2.8l0,0C53.2,41.3,53.2,40.3,52.8,39.4L52.8,39.4z"/>
</g>
<g id="bird_ruthie_1_">
	<path id="wing_1_" class="st4" d="M110.6,44.2c0,0,12.1,5,21.7-6.8c-0.1-1,0-5.3-3.1-7.9C125.5,42.2,112,44.2,110.6,44.2z"/>
	<path id="body_1_" class="st4" d="M91.5,39.4c0.7-3.1,3.5-5.5,6.9-5.5c3.9,0,7,3.1,7.1,7l0,0.1c0,0.1,0,0.2,0,0.3
		c2.5,1.2,4.8,2,6.8,2.6c4.1,1.1,7.5,1.1,10.3,0.4c0,0,0,0,0,0s0,0,0,0c9.4-2.3,12.5-12.2,13-15c1.7,2,3,4.3,3.8,6.8
		c0.9,2.8,1.1,5.9,0.6,9c-1.4,7.4-6.8,13.5-14.2,15.4c1.8,1.4,4,2.5,6.4,2.9c3.2,0.6,6.3,0,8.9-1.3c0.1,1.6,0.1,3.3-0.2,5
		c-1.4,7.2-6.4,12.8-12.8,15c0.1-0.5,0.2-0.9,0.3-1.4c1.4-7.7-3.8-15-11.5-16.4c-0.5-0.1-0.9-0.1-1.4-0.2c-0.3,0-1.1,0-1.9-0.1
		c-0.8,0-1.5-0.1-1.8-0.1c-3.5-0.6-6.5-2.2-8.8-4.5c-1.2-1.1-2.2-2.5-2.9-3.9c-0.8-1.5-1.4-3-1.7-4.7c-0.2-0.9-0.3-1.8-0.3-2.7
		l-0.1,0c-3.4-0.1-6.3-2.6-6.8-5.9c-0.1-0.4-0.1-0.8-0.1-1.2C91.3,40.5,91.4,39.9,91.5,39.4z"/>
	<path id="beak_1_" class="st4" d="M91.5,39.5c-0.4,0.9-0.4,1.9-0.1,2.8l0,0l-9.3-2.8L91.5,39.5L91.5,39.5z"/>
</g>
</svg>
