<svg xmlns="http://www.w3.org/2000/svg" width="281.813" height="23.66" viewBox="0 0 281.813 23.66">
  <metadata><?xpacket begin="﻿" id="W5M0MpCehiHzreSzNTczkc9d"?>
<x:xmpmeta xmlns:x="adobe:ns:meta/" x:xmptk="Adobe XMP Core 5.6-c138 79.159824, 2016/09/14-01:09:01        ">
   <rdf:RDF xmlns:rdf="http://www.w3.org/1999/02/22-rdf-syntax-ns#">
      <rdf:Description rdf:about=""/>
   </rdf:RDF>
</x:xmpmeta>
                                                                                                    
                                                                                                    
                                                                                                    
                                                                                                    
                                                                                                    
                                                                                                    
                                                                                                    
                                                                                                    
                                                                                                    
                                                                                                    
                                                                                                    
                                                                                                    
                                                                                                    
                                                                                                    
                                                                                                    
                                                                                                    
                                                                                                    
                                                                                                    
                                                                                                    
                                                                                                    
                           
<?xpacket end="w"?></metadata>
<defs>
    <style>
      .cls-1 {
        fill: #aa9c62;
        fill-rule: evenodd;
      }
    </style>
  </defs>
  <path id="weddINg_DetaILS" data-name="weddINg DetaILS" class="cls-1" d="M604.283,2810.07a1.209,1.209,0,0,0-.528-0.43c-0.912,0-1.824.15-2.736,0.15s-1.872-.2-2.784-0.2a0.856,0.856,0,0,0-.528.29l0.192,0.34a1,1,0,0,1,.624.77,0.878,0.878,0,0,1-.1.38l-2.88,14.4c-0.192-.77-3.073-11.23-3.121-11.33a0.757,0.757,0,0,0-.768-0.29,0.918,0.918,0,0,0-.768.29,7.485,7.485,0,0,0-.24,1.11c-0.768,3.4-1.728,6.77-2.64,10.17l-2.976-14.4v-0.24c0-.62.672-0.72,0.672-1.05a0.472,0.472,0,0,0-.432-0.44c-0.864,0-1.776.2-2.64,0.2-1.008,0-1.921-.2-2.929-0.2a0.584,0.584,0,0,0-.576.39,0.47,0.47,0,0,0,.192.33,3.072,3.072,0,0,1,1.344,2.07c1.537,6,3.025,12.43,4.129,18.14a5.653,5.653,0,0,1,.192.87,7.4,7.4,0,0,1-.432,1.1,0.529,0.529,0,0,0,.48.34c0.768,0,1.584-.05,2.352-0.05,0.816,0,1.632.1,2.448,0.1,0.24,0,.576,0,0.576-0.34,0-.38-0.336-0.82-0.336-1.25,0-2.4.96-5.28,1.584-7.63,0.528,1.78,1.825,5.95,1.825,7.58,0,0.44-.384.82-0.384,1.3,0,0.29.768,0.34,0.96,0.34,0.672,0,1.344-.1,2.016-0.1,0.816,0,1.584.05,2.4,0.05a0.447,0.447,0,0,0,.48-0.29c0-.38-0.48-0.58-0.48-1.01a5.116,5.116,0,0,1,.288-1.44c1.536-5.85,2.592-11.81,4.032-17.71,0.24-.91.144-1.35,1.008-1.97A1.518,1.518,0,0,0,604.283,2810.07Zm20.784,18.49a0.566,0.566,0,0,0-.48-0.53,1.307,1.307,0,0,0-.576.19,8.366,8.366,0,0,1-3.217.77H614.17c-0.864,0-1.2,0-1.2-.91l-0.048-6.2c0-.67-0.048-0.62.624-0.62h8.064c0.528,0,.864-0.14.864-0.72v-2.4a0.619,0.619,0,0,0-.768-0.72h-8.352a0.379,0.379,0,0,1-.432-0.43v-2.88c0-.24-0.144-0.63.144-0.63h6.288a7.259,7.259,0,0,1,3.024.58,1.569,1.569,0,0,0,.624.29,0.407,0.407,0,0,0,.385-0.48c0-1.25-.193-2.5-0.193-3.75a0.529,0.529,0,0,0-.624-0.48c-3.936,0-7.872.1-11.809,0.1-0.48,0-2.688-.29-2.688.33a15.751,15.751,0,0,1,.624,2.26l-0.048,16.42c0,0.91,0,2.4-.768,3.02a0.832,0.832,0,0,0-.384.67c0,0.34.24,0.39,0.528,0.39,0.816,0,1.68-.05,2.5-0.05,4.417,0,8.785.1,13.2,0.1,0.624,0,1.248.04,1.248-.77v-2.02C624.971,2829.56,625.067,2829.08,625.067,2828.56Zm16.7-7.4v-6.29c0-3.36-2.593-5.13-5.761-5.13-2.3,0-4.56-.1-6.864-0.1a0.578,0.578,0,0,0-.673.53c0,0.53.817,1.2,0.817,1.92v11.76c0,0.72-.817,1.35-0.817,1.87a0.6,0.6,0,0,0,.673.53h6.864C639.129,2826.25,641.77,2824.52,641.77,2821.16Zm1.056,9.8c0-.39-1.008-2.6-1.344-2.6-0.432,0-.768,1.11-1.969,1.11-1.68,0-2.592-1.73-4.368-1.73-1.68,0-2.736,1.63-4.368,1.63-1.056,0-2.161-1.25-2.449-1.25a6.927,6.927,0,0,0-1.2,2.45,0.847,0.847,0,0,0,.192.48,4.159,4.159,0,0,0,3.841,1.78c1.488,0,2.64-1.15,3.984-1.15,1.536,0,2.784,1.15,4.32,1.15C640.474,2832.83,642.826,2832.2,642.826,2830.96Zm-4.609-10.18c0,2.06-1.584,2.3-3.264,2.3h-0.912c-0.528,0-1.2,0-1.2-.72v-8.83c0-.72.672-0.72,1.2-0.72h0.912c1.872,0,3.264.77,3.264,2.83v5.14Zm24.912,5.14v-9.08c0-4.46-3.264-7.05-7.728-7.05-3.361,0-6.289-.1-9.649-0.1a0.528,0.528,0,0,0-.576.43c0,0.39,1.1,1.63,1.1,2.74v16.9c0,1.1-1.1,2.35-1.1,2.73a0.5,0.5,0,0,0,.576.39c3.36,0,6.288-.05,9.649-0.05C659.865,2832.83,663.129,2830.38,663.129,2825.92Zm-4.224-.58c0,3.22-2.3,3.74-4.992,3.74h-1.248c-1.009,0-2.113-.14-2.113-1.44v-12.72c0-1.29,1.1-1.44,2.113-1.44h1.248c2.976,0,4.992,1.3,4.992,4.47v7.39Zm15.935-15.27a0.653,0.653,0,0,0-.72-0.43c-0.72,0-1.488.05-2.208,0.05-0.768,0-1.488-.1-2.256-0.1a0.75,0.75,0,0,0-.72.48,1.454,1.454,0,0,0,.384.77,5.057,5.057,0,0,1,.288,1.92v16.9a3.426,3.426,0,0,1-.576,2.16,0.782,0.782,0,0,0-.336.53,0.536,0.536,0,0,0,.576.48c0.816,0,1.632-.1,2.448-0.1,0.768,0,1.584.1,2.352,0.1a0.6,0.6,0,0,0,.672-0.48,6.2,6.2,0,0,1-.816-2.4v-17.28A5.856,5.856,0,0,1,674.84,2810.07Zm23.473,0c0-.38-0.384-0.38-0.672-0.38-1.632,0-3.264-.05-4.9-0.05a0.6,0.6,0,0,0-.672.43,1.246,1.246,0,0,0,.624.68,2.365,2.365,0,0,1,.384,1.63v6.67h-0.1s-4.945-5.71-6.481-7.54a0.685,0.685,0,0,1-.144-0.33c0-.43.576-0.67,0.576-1.11,0-.38-0.384-0.38-0.672-0.38-1.872,0-3.7-.05-5.568-0.05a0.653,0.653,0,0,0-.72.43,1.759,1.759,0,0,0,.432.77,3.72,3.72,0,0,1,.144,1.3v17.28a5.326,5.326,0,0,1-1.008,2.93,0.545,0.545,0,0,0,.672.48c0.912,0,1.872-.1,2.784-0.1,0.768,0,1.584.1,2.352,0.1a0.718,0.718,0,0,0,.672-0.39c0-.62-1.152-0.62-1.152-2.54v-14.5h0.192s1.872,2.16,2.832,3.27l5.185,6.05v4.94a3.657,3.657,0,0,1-.576,2.16,0.586,0.586,0,0,0-.336.53,0.545,0.545,0,0,0,.672.48c0.768,0,1.536-.1,2.3-0.1s1.584,0.1,2.352.1a0.655,0.655,0,0,0,.72-0.48c0-.48-0.816-1.06-0.816-2.4v-17.24C697.4,2811.27,698.313,2810.55,698.313,2810.07Zm23.52,8.93a0.456,0.456,0,0,0-.528-0.43c-0.72,0-1.44.1-2.16,0.1h-6.577a0.588,0.588,0,0,0-.72.72v1.82a0.682,0.682,0,0,0,.816.77h3.408c0.528,0,.576.1,0.576,0.58v5.76c0,0.43-.336.48-0.72,0.48a11.935,11.935,0,0,1-2.208-.29c-3.888-.72-7.344-3.03-7.344-7.35,0-4.51,3.312-6.91,7.584-6.91,1.248,0,3.361.05,4.417,0.82a0.672,0.672,0,0,0,.48-0.63v-3.74c0-.87-1.1-0.91-1.728-0.91-7.537,0-15.218,2.68-15.218,11.47,0,7.3,5.665,10.22,12.1,11.18a39.952,39.952,0,0,0,5.377.44c0.384,0,.768.09,1.152,0.09a0.514,0.514,0,0,0,.624-0.43,4.671,4.671,0,0,1-.24-0.91V2821.6C720.921,2820.54,721.833,2819.24,721.833,2819Zm30.767,6.24c0-6.24-5.616-11.23-12.145-14.11a17.12,17.12,0,0,0-5.856-1.58,0.722,0.722,0,0,0-.672.33,1.287,1.287,0,0,0,.384.63c0.816,1.15.768,4.99,0.768,6.48v12.77a3.322,3.322,0,0,1-.528,1.68,5.691,5.691,0,0,0-.576,1.05,0.487,0.487,0,0,0,.576.39c3.456,0,6.912-.05,10.369-0.05a9,9,0,0,0,2.976-.58A6.955,6.955,0,0,0,752.6,2825.24Zm-4.512-.52c0,2.59-.864,4.27-4.464,4.27h-2.305c-1.1,0-1.968-.34-1.968-1.44v-10.71a0.793,0.793,0,0,1,.864-0.91,0.5,0.5,0,0,1,.288.05C743.912,2816.55,748.088,2820.88,748.088,2824.72Zm25.632,6.81c0-.48.192-3.31-0.624-3.31-0.192,0-1.2.1-1.392,0.1-0.1,0-.144-0.05-0.24-0.05-4.176-.77-9.025-3.03-10.513-7.01h9.169c0.528,0,.864-0.14.864-0.72v-2.4a0.619,0.619,0,0,0-.768-0.72h-9.7c0.384-2.35,2.256-3.65,4.8-3.65,1.153,0,4.225.14,5.089,0.86a2.7,2.7,0,0,0,.624.48,0.609,0.609,0,0,0,.432-0.62c0-1.25,0-2.59-.1-3.84-0.048-.58-0.144-0.82-0.768-0.82h-4.416c-5.281,0-10.273,2.5-10.273,8.88,0,6.1,5.184,9.85,10.225,12.25a22.527,22.527,0,0,0,7.152,1.96C773.624,2832.92,773.72,2831.72,773.72,2831.53Zm15.263-19.06c0-.96-0.1-1.87-0.1-2.83-1.584.05-3.168,0.1-4.8,0.1-3.457.09-2.352,0.05-3.5,0.05-1.632,0-3.216-.05-4.848-0.1,0,0.91-.048,1.87-0.048,2.78a0.694,0.694,0,0,0,.672.72,40.217,40.217,0,0,1,4.128-.52v11.04c0,0.77-.816,1.44-0.816,1.82a0.9,0.9,0,0,0,.96.72h3.409a0.7,0.7,0,0,0,.768-0.57,6.04,6.04,0,0,1-.624-1.78v-11.23a10.857,10.857,0,0,1,3.312.28,1.986,1.986,0,0,0,.768.24A0.734,0.734,0,0,0,788.983,2812.47Zm0.384,18.49a5.963,5.963,0,0,0-1.248-2.6c-0.528.1-.624,1.11-1.728,1.11-1.536,0-2.3-1.73-3.936-1.73-1.585,0-2.353,1.63-3.841,1.63-1.008,0-1.728-1.25-2.208-1.25a7.756,7.756,0,0,0-1.056,2.45,0.807,0.807,0,0,0,.144.48,3.623,3.623,0,0,0,3.456,1.78c1.344,0,2.352-1.15,3.553-1.15,1.344,0,2.448,1.15,3.84,1.15a3.007,3.007,0,0,0,2.784-1.44A1.032,1.032,0,0,0,789.367,2830.96Zm20.352,1.48a0.681,0.681,0,0,0-.24-0.48c-0.816-1.05-.672-3.36-0.768-4.65-0.768-9.8-5.9-17.57-16.561-17.57a0.643,0.643,0,0,0-.721.43c0,0.48,1.009.86,1.009,1.58v18.29a6.5,6.5,0,0,1-.817,2.5c0,0.34.577,0.43,0.817,0.43,0.816,0,1.584-.14,2.4-0.14,0.528,0,1.056.05,1.584,0.05,0.24,0,1.536-.1,1.536-0.44a0.926,0.926,0,0,0-.432-0.62c-1.152-.96-0.864-3.65-0.864-4.9,0-.19.1-0.24,0.288-0.24H804.3c0.192,0,.288,0,0.336.2a11.684,11.684,0,0,1,.1,2.59c0,0.62-.048,2.06-0.576,2.49a0.841,0.841,0,0,0-.48.58c0,0.34.288,0.38,0.576,0.38,0.864,0,1.68-.14,2.544-0.14,0.528,0,1.056.1,1.584,0.1C808.567,2832.88,809.719,2832.78,809.719,2832.44Zm-6.048-9.69c0,0.09-.241.09-0.289,0.09H796.71l-0.048-.09v-7.68a0.4,0.4,0,0,1,.432-0.48C799.734,2814.59,803.671,2820.3,803.671,2822.75Zm16.606-12.68a0.653,0.653,0,0,0-.72-0.43c-0.72,0-1.488.05-2.208,0.05-0.768,0-1.488-.1-2.256-0.1a0.75,0.75,0,0,0-.72.48,1.454,1.454,0,0,0,.384.77,5.057,5.057,0,0,1,.288,1.92v16.9a3.426,3.426,0,0,1-.576,2.16,0.782,0.782,0,0,0-.336.53,0.536,0.536,0,0,0,.576.48c0.816,0,1.632-.1,2.448-0.1,0.768,0,1.584.1,2.352,0.1a0.6,0.6,0,0,0,.672-0.48,6.2,6.2,0,0,1-.816-2.4v-17.28A5.856,5.856,0,0,1,820.277,2810.07Zm20.545,18.77a0.739,0.739,0,0,0-.48-0.72c-0.336,0-1.632.58-2.16,0.68a25.679,25.679,0,0,1-3.84.19H831.7a1.228,1.228,0,0,1-1.392-1.25v-15.17a3.72,3.72,0,0,1,.96-2.5,0.576,0.576,0,0,0-.576-0.38q-2.3.075-4.608,0a1.13,1.13,0,0,0-.864.48,5.778,5.778,0,0,1,.816,2.26v17.71c0,0.96-.768,1.78-0.768,2.3a0.6,0.6,0,0,0,.672.48,2.792,2.792,0,0,0,.576-0.04,11.371,11.371,0,0,1,2.256-.1h1.632c3.12,0,6.193.1,9.313,0.1h0.288c0.624,0,.72-0.44.72-0.96C840.726,2830.91,840.822,2829.85,840.822,2828.84Zm20.112-2.73c0-7.01-10.369-9.51-10.369-11.52a1.636,1.636,0,0,1,1.728-1.3,9.686,9.686,0,0,1,4.129,1.1,1.621,1.621,0,0,0,.672-0.62,6.55,6.55,0,0,1,.816-1.2,4.807,4.807,0,0,0,.816-1.1c-0.144-1.01-4.368-1.97-5.761-1.97-3.456,0-7.152,1.01-7.152,4.75,0,6.29,10.513,6.29,10.513,11.71,0,2.45-2.5,3.51-4.609,3.51a9.92,9.92,0,0,1-5.856-2.02,2.461,2.461,0,0,0-.96-0.77c-0.48,0-.624.96-1.008,1.59-0.768,1.29-1.248,1.39-1.248,1.77a0.663,0.663,0,0,0,.48.53,15.057,15.057,0,0,0,8.544,2.59C855.942,2833.16,860.934,2831.05,860.934,2826.11Z" transform="translate(-579.125 -2809.5)"/>
</svg>
