<svg viewBox="0 0 721 136.6" id="subtitle-she-said-yes">
<path d="M71.1,82.3c0-21-31.3-28.6-31.3-34.6c0.6-2.4,2.7-4.2,5.1-3.9c4.2,0.3,8.7,1.2,12.3,3.3
	c0.9-0.3,1.5-1.2,2.1-1.8c0.6-1.2,1.5-2.4,2.4-3.6c0.9-0.9,1.8-2.1,2.4-3.3c-0.3-3-13.2-6-17.4-6c-10.5,0-21.6,3-21.6,14.4
	c0,18.9,31.6,18.9,31.6,35.2c0,7.2-7.5,10.5-13.8,10.5s-12.6-2.1-17.7-6c-0.6-0.9-1.8-1.8-3-2.4c-1.5,0-1.8,3-3,4.8
	c-2.4,3.9-3.6,4.2-3.6,5.4c0,0.9,0.6,1.5,1.5,1.5c7.5,5.1,16.5,7.8,25.6,7.8C56.4,103.7,71.1,97.1,71.1,82.3z M135.8,34.2
	c-0.3-0.9-1.2-1.5-2.4-1.2c-2.1,0-4.5,0.3-6.6,0.3c-2.7,0-5.4-0.3-8.1-0.3c-0.9,0-1.8,0.3-1.8,1.2s3.3,4.8,3.3,8.1v6H97.6
	c0-3.9-0.6-7.8,1.2-11.4c0.6-0.9,1.2-2.1,1.5-3.3c-0.3-0.9-1.2-1.5-2.4-1.2c-2.1,0-4.2,0.3-6.3,0.3c-2.4,0-4.8-0.3-7.2-0.3
	c-0.9-0.3-1.8,0.3-1.8,1.2v0.3c0,0.9,0.6,1.8,1.2,2.4c0.6,1.8,0.9,3.9,0.6,6v50.5c0,2.4-0.6,4.8-2.1,6.9c-0.6,0.3-0.9,0.9-0.9,1.5
	c0.3,0.9,1.2,1.5,2.1,1.2c2.4,0,4.5-0.3,6.9-0.3c2.4,0,4.8,0.3,7.2,0.3c0.9,0.3,1.8-0.3,2.1-1.2c0-1.2-2.4-4.2-2.4-7.2v-34h22.5
	v32.8c0,2.4-0.9,4.8-2.4,6.9c-0.6,0.3-0.9,0.9-0.9,1.5c0,1.2,0.9,1.2,1.8,1.2c2.7,0,5.4-0.3,7.8-0.3c2.1,0,4.5,0.3,6.6,0.3
	c0.9,0.3,1.8-0.3,2.1-1.2c0-1.2-2.4-4.2-2.4-7.2V42.3C133.1,38.7,135.8,35.1,135.8,34.2L135.8,34.2z M199.5,98.6
	c0-1.5,0.6-9.9-1.8-9.9c-0.6,0-3.6,0.3-4.2,0.3c-0.3,0-0.3-0.3-0.6-0.3c-12.6-2.4-27.1-9-31.6-21H189c1.5,0,2.7-0.3,2.7-2.1v-7.2
	c0.3-0.9-0.6-2.1-1.5-2.1c-0.3,0-0.6,0-0.9,0h-29.2c1.2-6.9,6.9-11.1,14.4-11.1c3.6,0,12.6,0.6,15.3,2.7c0.6,0.6,1.2,0.9,1.8,1.5
	c0.9-0.3,1.2-0.9,1.2-1.8c0-3.6,0-7.8-0.3-11.4c0-1.8-0.3-2.4-2.4-2.4H177c-15.9,0-31,7.5-31,26.8c0,18.3,15.6,29.5,30.7,36.7
	c6.9,3,14.1,5.1,21.6,6C199.2,102.8,199.5,99.2,199.5,98.6L199.5,98.6z M287.9,43.5c0-2.7-0.3-6-0.3-8.4c0-1.8-0.3-2.7-2.4-2.7h-5.7
	c-9,0-19.5,3.9-19.5,15.3c0,9.6,6.6,18,6.6,29.2c0,10.8-11.7,15.3-19.5,15.3c-3.9,0-8.1-2.7-10.8-2.7c-0.9,0-1.8,0.9-1.5,1.8
	c0,0,0,0,0,0.3l0.3,9.9c0,1.2,3.6,1.8,4.5,1.8c3.9,0,8.1,0,12-0.3c14.7-0.9,29.2-10.2,29.2-26.2c0-11.4-6.9-20.7-6.9-29.2
	c0-3.6,3.6-4.5,6.6-4.5c2.4,0.3,4.5,1.2,6.9,2.1C287.6,45,287.9,44.1,287.9,43.5L287.9,43.5z M353.4,101.3c0-0.6-0.3-1.2-0.6-1.5
	c-2.4-3.3-2.1-10.2-2.4-14.1c-2.4-29.5-17.7-52.9-49.9-52.9c-0.9-0.3-1.8,0.3-2.1,1.2c0,1.5,3,2.7,3,4.8v55
	c-0.3,2.7-1.2,5.1-2.4,7.5c0,0.9,1.8,1.2,2.4,1.2c2.4,0,4.8-0.3,7.2-0.3c1.5,0,3.3,0.3,4.8,0.3c0.6,0,4.5-0.3,4.5-1.2
	c-0.3-0.9-0.6-1.5-1.2-1.8c-3.6-3-2.7-11.1-2.7-14.7c0-0.6,0.3-0.6,0.9-0.6h21.9c0.6,0,0.9,0,0.9,0.6c0.3,2.7,0.6,5.1,0.3,7.8
	c0,1.8,0,6.3-1.8,7.5c-0.6,0.3-1.2,0.9-1.5,1.8c0,0.9,0.9,1.2,1.8,1.2c2.7,0,5.1-0.6,7.5-0.6c1.5,0,3.3,0.3,4.8,0.3
	C349.8,102.8,353.4,102.5,353.4,101.3L353.4,101.3z M335.1,72.1c0,0.3-0.6,0.3-0.9,0.3H314v-0.3V48.9c0-0.6,0.3-1.2,0.9-1.5h0.3
	C323.4,47.7,335.1,64.9,335.1,72.1L335.1,72.1z M385,34.2c-0.3-0.9-1.2-1.5-2.1-1.2c-2.1,0-4.5,0.3-6.6,0.3c-2.4,0-4.5-0.3-6.9-0.3
	c-0.9,0-1.8,0.6-2.1,1.5c0,0.9,0.6,1.8,1.2,2.4c0.6,1.8,0.9,3.9,0.9,5.7v50.8c0.3,2.4-0.3,4.5-1.8,6.6c-0.6,0.3-0.9,0.9-0.9,1.5
	c0,0.9,0.9,1.5,1.8,1.5c2.4,0,4.8-0.3,7.2-0.3c2.4,0,4.8,0.3,7.2,0.3c0.9,0,1.8-0.6,2.1-1.5c-1.2-2.1-2.1-4.8-2.4-7.2v-52
	C382.6,39,383.5,36.3,385,34.2L385,34.2z M456,56.8c0.3-12.6-9.3-23.2-21.9-23.5c-0.6,0-1.2,0-1.8,0c-10.5,0-20.7-0.3-31-0.3
	c-1.2,0-2.1,0.6-2.1,1.8l0,0c0,1.2,3.3,4.5,3.3,8.1v39.4c0,4.5,0,14.1-2.4,17.7c-0.6,0.6-0.9,1.2-1.2,2.1c0.6,0.9,1.5,1.5,2.4,1.2
	c6-0.6,12-2.1,17.7-4.8C435.8,90.7,456,77.5,456,56.8L456,56.8z M442.1,58.6c0,11.7-12.9,23.2-23.8,25.9c-0.6,0-0.9,0.3-1.5,0.3
	c-0.9-0.3-1.8-1.2-1.5-2.4v-34c0-3.6,3.9-3.9,6.6-3.9h5.7C436.7,44.4,442.1,49.5,442.1,58.6L442.1,58.6z M549.2,33.9
	c0-0.9-0.9-1.5-1.8-1.2l0,0c-3.3,0-6.6,0.3-9.9,0.3c-2.4,0-4.5,0-6.9,0c-0.9,0-1.8,0.6-1.8,1.5v0.3c0,0.3,0,0.9,0.3,1.2
	c0,2.7-9.9,11.7-9.9,12.6c-1.2-2.1-11.1-11.7-11.1-12.3s0.3-1.2,0.3-1.8c0-1.5-0.9-1.5-2.4-1.5c-2.1,0-4.2,0.3-6.3,0.3
	c-3.6,0-6.9-0.6-10.2-0.6c-0.9,0-1.8,0.6-2.1,1.5c0,1.2,3,2.1,3.9,2.7c5.4,2.7,18,16.5,21,22.8v34.9c0,2.4-1.8,4.2-1.8,6.6
	c0.3,0.9,0.9,1.5,1.8,1.2c1.8,0,3.9-0.6,5.7-0.6c2.7,0,5.1,0.6,7.5,0.6c0.9,0.3,1.8-0.3,2.1-1.2c0-2.1-2.1-3.9-2.1-7.2V59.8
	c0-1.8,15.9-21.3,17.7-22.2C545,36.6,549.2,35.7,549.2,33.9L549.2,33.9z M607.5,98.6c0-1.5,0.6-9.9-1.8-9.9c-0.6,0-3.6,0.3-4.2,0.3
	c-0.3,0-0.3-0.3-0.6-0.3c-12.6-2.4-27.1-9-31.6-21H597c1.5,0,2.7-0.3,2.7-2.1v-7.2c0.3-0.9-0.3-2.1-1.5-2.1c-0.3,0-0.6,0-0.9,0
	h-29.2c1.2-6.9,6.9-11.1,14.4-11.1c3.6,0,12.6,0.6,15.3,2.7c0.6,0.6,1.2,0.9,1.8,1.5c0.9-0.3,1.2-0.9,1.2-1.8c0-3.6,0-7.8-0.3-11.4
	c0-1.8-0.3-2.4-2.4-2.4h-13.5c-15.9,0-31,7.5-31,26.8c0,18.3,15.6,29.5,30.7,36.7c6.9,3,14.1,5.1,21.6,6
	C607.2,102.8,607.5,99.2,607.5,98.6L607.5,98.6z M673.6,83.8c0-16.2-15.6-23.2-26.8-31.9c-1.8-1.5-4.8-3-4.8-5.7s3.9-3,5.7-3
	c4.2,0,8.7,1.2,12.3,3.3c1.2-0.9,2.1-1.8,3.3-3c1.5-1.5,2.1-3.9,3.3-5.4c-0.3-3.3-15-5.7-18-5.7c-9,0-20.1,3.6-20.1,14.4
	c0,16.5,30.1,18.9,30.1,36.1c0,7.8-10.2,9.9-16.2,9.9s-15.3-3-15.3-10.2c0.3-2.4,2.4-4.2,5.1-4.2c2.4,0,4.5,1.8,4.8,4.2
	c0,1.2-0.3,2.4-0.9,3.6c0,0.6,0,1.2,0.6,1.2c4.2-0.6,9.3-2.4,9.3-7.5c-0.6-6.9-6.3-12-13.2-12c-10.8,0-17.7,5.1-17.7,16.8
	c0,14.4,17.1,18.9,28.9,18.9S673.6,98,673.6,83.8L673.6,83.8z M705.5,34.5c0-0.9-1.2-1.8-2.1-1.5l0,0c-4.8,0-9.6,0.3-14.4,0.3
	c-0.9-0.3-1.8,0.3-2.1,1.2v0.3c0,1.5,2.4,3,2.4,6.6c0.3,12.6,1.2,25.3,1.2,37.9c0,1.2,1.2,2.1,2.4,2.1h6.3c1.2,0.3,2.4-0.3,2.7-1.5
	v-0.3c0-12.6,0.3-25.3,1.2-37.9c-0.3-2.1,0.3-3.9,1.5-5.7C705.2,35.4,705.5,35.1,705.5,34.5L705.5,34.5z M704,96.5
	c-0.3-4.2-3.9-7.5-8.1-7.2c-3.9,0-7.2,3-7.2,6.9c0,0.3,0,0.3,0,0.6c0.3,4.2,3.9,7.5,8.1,7.5c3.9,0,7.2-3,7.2-6.9
	C704,96.8,704,96.5,704,96.5L704,96.5z"/>
</svg>
