<svg xmlns="http://www.w3.org/2000/svg" width="349.687" height="23.66" viewBox="0 0 349.687 23.66">
  <metadata><?xpacket begin="﻿" id="W5M0MpCehiHzreSzNTczkc9d"?>
<x:xmpmeta xmlns:x="adobe:ns:meta/" x:xmptk="Adobe XMP Core 5.6-c138 79.159824, 2016/09/14-01:09:01        ">
   <rdf:RDF xmlns:rdf="http://www.w3.org/1999/02/22-rdf-syntax-ns#">
      <rdf:Description rdf:about=""/>
   </rdf:RDF>
</x:xmpmeta>
                                                                                                    
                                                                                                    
                                                                                                    
                                                                                                    
                                                                                                    
                                                                                                    
                                                                                                    
                                                                                                    
                                                                                                    
                                                                                                    
                                                                                                    
                                                                                                    
                                                                                                    
                                                                                                    
                                                                                                    
                                                                                                    
                                                                                                    
                                                                                                    
                                                                                                    
                                                                                                    
                           
<?xpacket end="w"?></metadata>
<defs>
    <style>
      .cls-1 {
        fill: #aa9c62;
        fill-rule: evenodd;
      }
    </style>
  </defs>
  <path id="engageMeNt_photOs" data-name="engageMeNt photOs" class="cls-1" d="M257.4,3567.53c0-.48.192-3.31-0.624-3.31-0.192,0-1.2.1-1.392,0.1-0.1,0-.144-0.05-0.24-0.05-4.176-.77-9.025-3.03-10.513-7.01H253.8c0.528,0,.864-0.14.864-0.72v-2.4a0.619,0.619,0,0,0-.768-0.72h-9.7c0.384-2.35,2.256-3.65,4.8-3.65,1.152,0,4.224.14,5.088,0.86a2.7,2.7,0,0,0,.624.48,0.609,0.609,0,0,0,.432-0.62c0-1.25,0-2.59-.1-3.84-0.048-.58-0.144-0.82-0.768-0.82h-4.416c-5.281,0-10.273,2.5-10.273,8.88,0,6.1,5.184,9.85,10.225,12.25a22.527,22.527,0,0,0,7.152,1.96C257.3,3568.92,257.4,3567.72,257.4,3567.53Zm21.456,1.06a1.416,1.416,0,0,0-.336-0.72,5.916,5.916,0,0,1-.336-2.11v-14.84c0-1.87-2.064-5.42-7.3-5.42a6.375,6.375,0,0,0-4.56,1.77,1.705,1.705,0,0,1,.192-1c0.048-.05.048-0.1,0.1-0.15a0.362,0.362,0,0,0,.1-0.24c-0.048-.29-0.816-0.24-1.056-0.24-0.528,0-1.44.05-2.16,0.05-0.577,0-1.009-.1-1.585-0.1a0.456,0.456,0,0,0-.528.34,1.111,1.111,0,0,0,.336.67,5.694,5.694,0,0,1,.336,2.07v17.18a3.842,3.842,0,0,1-.432,1.73,8.757,8.757,0,0,0-.48,1.01,0.4,0.4,0,0,0,.48.29h0.144c0.72,0,1.489-.1,2.209-0.1,0.816,0,2.112.05,2.928,0.05a0.456,0.456,0,0,0,.528-0.34,2.449,2.449,0,0,0-.192-0.38,4.756,4.756,0,0,1-.912-2.35v-12.82c0-2.31,1.968-3.36,4.224-3.36a3.051,3.051,0,0,1,3.312,3.41v12.86a3.842,3.842,0,0,1-.432,1.73,8.377,8.377,0,0,0-.432,1.01,0.352,0.352,0,0,0,.432.29h0.144c0.624,0,2.929-.05,3.553-0.05,0.864,0,.336.05,1.2,0.05C278.568,3568.88,278.856,3568.83,278.856,3568.59ZM303.192,3555a0.456,0.456,0,0,0-.528-0.43c-0.72,0-1.44.1-2.16,0.1h-6.577a0.588,0.588,0,0,0-.72.72v1.82a0.682,0.682,0,0,0,.816.77h3.408c0.528,0,.576.1,0.576,0.58v5.76c0,0.43-.336.48-0.72,0.48a11.935,11.935,0,0,1-2.208-.29c-3.888-.72-7.345-3.03-7.345-7.35,0-4.51,3.313-6.91,7.585-6.91,1.248,0,3.36.05,4.417,0.82a0.672,0.672,0,0,0,.48-0.63v-3.74c0-.87-1.105-0.91-1.729-0.91-7.536,0-15.217,2.68-15.217,11.47,0,7.3,5.665,10.22,12.1,11.18a39.938,39.938,0,0,0,5.377.44c0.384,0,.768.09,1.152,0.09a0.514,0.514,0,0,0,.624-0.43,4.671,4.671,0,0,1-.24-0.91V3557.6C302.28,3556.54,303.192,3555.24,303.192,3555Zm21.5,13.44a0.681,0.681,0,0,0-.24-0.48c-0.817-1.05-.672-3.36-0.768-4.65-0.769-9.8-5.9-17.57-16.562-17.57a0.642,0.642,0,0,0-.72.43c0,0.48,1.008.86,1.008,1.58v18.29a6.5,6.5,0,0,1-.816,2.5c0,0.34.576,0.43,0.816,0.43,0.816,0,1.584-.14,2.4-0.14,0.528,0,1.056.05,1.584,0.05,0.24,0,1.537-.1,1.537-0.44a0.926,0.926,0,0,0-.432-0.62c-1.153-.96-0.865-3.65-0.865-4.9,0-.19.1-0.24,0.288-0.24h7.345c0.192,0,.288,0,0.336.2a11.684,11.684,0,0,1,.1,2.59c0,0.62-.048,2.06-0.576,2.49a0.841,0.841,0,0,0-.48.58c0,0.34.288,0.38,0.576,0.38,0.864,0,1.68-.14,2.544-0.14,0.528,0,1.056.1,1.584,0.1C323.543,3568.88,324.7,3568.78,324.7,3568.44Zm-6.049-9.69c0,0.09-.24.09-0.288,0.09h-6.673l-0.048-.09v-7.68a0.4,0.4,0,0,1,.432-0.48C314.711,3550.59,318.647,3556.3,318.647,3558.75Zm29.328-3.75a0.456,0.456,0,0,0-.528-0.43c-0.72,0-1.44.1-2.16,0.1H338.71a0.588,0.588,0,0,0-.72.72v1.82a0.682,0.682,0,0,0,.816.77h3.409c0.528,0,.576.1,0.576,0.58v5.76c0,0.43-.336.48-0.72,0.48a11.934,11.934,0,0,1-2.209-.29c-3.888-.72-7.344-3.03-7.344-7.35,0-4.51,3.312-6.91,7.584-6.91,1.248,0,3.361.05,4.417,0.82a0.672,0.672,0,0,0,.48-0.63v-3.74c0-.87-1.1-0.91-1.728-0.91-7.537,0-15.218,2.68-15.218,11.47,0,7.3,5.665,10.22,12.1,11.18a39.965,39.965,0,0,0,5.377.44c0.384,0,.768.09,1.152,0.09a0.514,0.514,0,0,0,.624-0.43,4.671,4.671,0,0,1-.24-0.91V3557.6C347.063,3556.54,347.975,3555.24,347.975,3555Zm15.791,6.1v-1.87a0.716,0.716,0,0,0-.624-0.87c-0.96,0-1.728.68-2.688,0.68h-4.9a0.353,0.353,0,0,1-.432-0.39l0.048-3.98h5.856a0.8,0.8,0,0,0,.912-0.77c0-.43.048-0.77,0.048-1.2a1.007,1.007,0,0,0-.864-1.25h-6v-2.64h4.32c0.912,0,1.68.62,2.592,0.62a0.581,0.581,0,0,0,.528-0.62c0-.86-0.1-1.78-0.1-2.64a0.7,0.7,0,0,0-.768-0.58c-3.072,0-6.192.05-9.265,0.05-0.336,0-1.248,0-1.248.53s0.384,1.01.384,1.54v11.42a8.166,8.166,0,0,1-.816,2.55c0,0.52.864,0.57,1.248,0.57,3.5,0,7.009-.05,10.513-0.05A1.032,1.032,0,0,0,363.766,3561.1Zm0.336,5.86a6.244,6.244,0,0,0-1.248-2.6c-0.528.1-.624,1.11-1.68,1.11-1.488,0-2.256-1.73-3.84-1.73-1.536,0-2.352,1.63-3.841,1.63-0.96,0-1.68-1.25-2.16-1.25a7.756,7.756,0,0,0-1.056,2.45,0.847,0.847,0,0,0,.192.48,3.479,3.479,0,0,0,3.36,1.78c1.345,0,2.353-1.2,3.5-1.2,1.344,0,2.4,1.2,3.792,1.2a2.932,2.932,0,0,0,2.736-1.44A1.032,1.032,0,0,0,364.1,3566.96Zm27.169,1.48a0.737,0.737,0,0,0-.384-0.52,4.555,4.555,0,0,1-.72-2.36c-0.336-4.03-.768-8.01-1.1-12.05-0.1-1.34-.24-2.64-0.336-3.98-0.048-.58-0.144-1.25-0.144-1.82,0-.72.864-1.2,0.864-1.64a0.958,0.958,0,0,0-.816-0.38c-1.009,0-1.969.14-2.977,0.14-0.96,0-1.92-.14-2.88-0.14a0.749,0.749,0,0,0-.768.34c-0.192.33-.528,1-0.816,1.44-0.768,1.15-1.344,1.87-2.16,2.97a2.032,2.032,0,0,1-.288.39,3.456,3.456,0,0,1-.384-0.44,37.422,37.422,0,0,1-2.881-4.12c-0.048-.05-0.048-0.2-0.1-0.24a0.494,0.494,0,0,0-.576-0.34c-1.056,0-2.112.14-3.168,0.14-0.96,0-1.872-.14-2.832-0.14-0.384,0-.672.1-0.672,0.53,0,0.53.672,0.67,0.672,1.2,0,0.09-.048.19-0.048,0.29-0.528,6-1.056,12-1.68,18a6.826,6.826,0,0,1-1.44,2.78,0.467,0.467,0,0,0,.432.34h2.784c0.912,0,1.776.14,2.688,0.14a0.927,0.927,0,0,0,.624-0.29c-0.192-.81-0.768-1.2-0.768-2.16v-0.19c0-.53.1-1.1,0.144-1.63l0.384-3.6c0.384-3.6,1.2-10.99,1.2-10.99h0.144s4.993,6.24,5.377,6.24c0.576,0,5.616-6.24,5.616-6.24h0.144s0.624,6.81.912,10.22c0.144,1.83.432,3.7,0.432,5.52,0,1.06-.864,2.21-0.864,2.69a0.642,0.642,0,0,0,.72.43c0.912,0,1.776-.14,2.689-0.14C388.631,3568.83,391.271,3568.97,391.271,3568.44Zm20.255-.91c0-.48.192-3.31-0.624-3.31-0.192,0-1.2.1-1.392,0.1-0.1,0-.144-0.05-0.24-0.05-4.176-.77-9.025-3.03-10.513-7.01h9.169c0.528,0,.864-0.14.864-0.72v-2.4a0.619,0.619,0,0,0-.768-0.72h-9.7c0.384-2.35,2.256-3.65,4.8-3.65,1.152,0,4.225.14,5.089,0.86a2.7,2.7,0,0,0,.624.48,0.609,0.609,0,0,0,.432-0.62c0-1.25,0-2.59-.1-3.84-0.048-.58-0.144-0.82-0.768-0.82h-4.417c-5.28,0-10.272,2.5-10.272,8.88,0,6.1,5.184,9.85,10.224,12.25a22.54,22.54,0,0,0,7.153,1.96C411.43,3568.92,411.526,3567.72,411.526,3567.53Zm21.6-21.46c0-.38-0.384-0.38-0.672-0.38-1.633,0-3.265-.05-4.9-0.05a0.6,0.6,0,0,0-.672.43,1.246,1.246,0,0,0,.624.68,2.365,2.365,0,0,1,.384,1.63v6.67h-0.1s-4.944-5.71-6.48-7.54a0.685,0.685,0,0,1-.144-0.33c0-.43.576-0.67,0.576-1.11,0-.38-0.384-0.38-0.672-0.38-1.873,0-3.7-.05-5.569-0.05a0.653,0.653,0,0,0-.72.43,1.759,1.759,0,0,0,.432.77,3.72,3.72,0,0,1,.144,1.3v17.28a5.326,5.326,0,0,1-1.008,2.93,0.545,0.545,0,0,0,.672.48c0.912,0,1.872-.1,2.784-0.1,0.768,0,1.584.1,2.352,0.1a0.718,0.718,0,0,0,.673-0.39c0-.62-1.153-0.62-1.153-2.54v-14.5h0.192s1.873,2.16,2.833,3.27l5.184,6.05v4.94a3.657,3.657,0,0,1-.576,2.16,0.586,0.586,0,0,0-.336.53,0.545,0.545,0,0,0,.672.48c0.768,0,1.536-.1,2.3-0.1s1.584,0.1,2.353.1a0.655,0.655,0,0,0,.72-0.48c0-.48-0.816-1.06-0.816-2.4v-17.24C432.214,3547.27,433.126,3546.55,433.126,3546.07Zm21.263,3.32c0-1.25-.048-2.45-0.048-3.7-2.928.1-5.808,0.14-8.737,0.14h-3.12c-2.016,0-3.984-.04-6-0.09,0,1.2-.048,2.45-0.048,3.65a0.544,0.544,0,0,0,.577.62,3.833,3.833,0,0,0,1.008-.29,14.017,14.017,0,0,1,3.984-.38c0.192,0,1.152-.1,1.152.19v16.03c0,1.3-1.1,2.4-1.1,2.64a0.9,0.9,0,0,0,.96.63c1.344,0,2.736-.05,4.08-0.05,0.24,0,.528.1,0.768,0.1a0.521,0.521,0,0,0,.624-0.44,2.777,2.777,0,0,0-.528-0.96,4.639,4.639,0,0,1-.288-1.82v-16.13c0-.29.961-0.19,1.153-0.19a14.017,14.017,0,0,1,3.984.38,3.833,3.833,0,0,0,1.008.29A0.543,0.543,0,0,0,454.389,3549.39Zm29.375,1.63a5.319,5.319,0,0,0-5.233-5.28h-8.88c-0.816,0-1.68-.1-2.5-0.1a0.586,0.586,0,0,0-.577.34c0.24,1.05.961,0.29,0.961,2.64v16.8c0,2.26-1.2,2.5-1.2,3.12,0,0.34.288,0.38,0.576,0.38,0.865,0,1.633-.14,2.5-0.14,0.48,0,3.312.29,3.312-.38,0-.39-0.912-1.01-0.912-2.07v-9.45h5.808C481.172,3556.88,483.764,3555.67,483.764,3551.02Zm-4.752.29a1.559,1.559,0,0,1-1.537,1.77H472.2a0.491,0.491,0,0,1-.384-0.14v-3.27c0-.19.192-0.19,0.336-0.19h5.424A1.6,1.6,0,0,1,479.012,3551.31Zm20.4-5.19a0.81,0.81,0,0,0-.864-0.53c-1.152,0-2.3.05-3.456,0.05a0.55,0.55,0,0,0-.672.53c0,0.53.72,1.2,0.72,1.92v2.06h-4.8v-1.68a13.629,13.629,0,0,1,.672-2.35,0.855,0.855,0,0,0-1.008-.62h-2.5c-0.432,0-1.2.05-1.2,0.62s0.48,1.25.48,1.92v11.72a6.463,6.463,0,0,1-.672,1.92,0.65,0.65,0,0,0,.72.57h3.312a0.749,0.749,0,0,0,.816-0.57c0-.53-0.624-1.01-0.624-1.68v-6.63h4.8v6.39c0,0.91-.72,1.53-0.72,1.92a0.577,0.577,0,0,0,.672.57h3.456a0.7,0.7,0,0,0,.768-0.57c0-.48-0.576-1.06-0.576-1.68v-11.96C498.739,3547.32,499.411,3546.51,499.411,3546.12Zm0.672,20.84a6.325,6.325,0,0,0-1.3-2.6c-0.672.15-.624,1.11-1.776,1.11-1.584,0-2.448-1.78-4.128-1.78-1.633,0-2.545,1.63-4.081,1.63-1.056,0-1.824-1.2-2.3-1.2a7.778,7.778,0,0,0-1.1,2.45,0.847,0.847,0,0,0,.192.48,3.727,3.727,0,0,0,3.552,1.78c1.44,0,2.5-1.2,3.745-1.2,1.44,0,2.592,1.2,4.032,1.2a3.291,3.291,0,0,0,2.928-1.44A1.032,1.032,0,0,0,500.083,3566.96Zm19.152-13.11c0-5.33-3.5-8.26-8.689-8.26s-8.688,2.93-8.688,8.26c0,5.09,3.744,8.31,8.688,8.31S519.235,3558.94,519.235,3553.85Zm0.624,13.15c0-.24-1.152-2.54-1.44-2.54-0.384,0-.864,1.15-2.4,1.15-1.968,0-3.264-1.77-5.281-1.77-1.968,0-3.264,1.68-5.232,1.68-1.344,0-2.688-1.3-2.928-1.3a10.414,10.414,0,0,0-1.344,2.4,0.7,0.7,0,0,0,.192.43,5.3,5.3,0,0,0,4.56,1.78c1.728,0,3.12-1.2,4.8-1.2,1.777,0,3.361,1.2,5.137,1.2a4.558,4.558,0,0,0,3.744-1.39A0.534,0.534,0,0,0,519.859,3567Zm-4.512-13.15a4.777,4.777,0,0,1-9.553,0A4.777,4.777,0,0,1,515.347,3553.85Zm24.528-4.46c0-1.25-.048-2.45-0.048-3.7-2.928.1-5.808,0.14-8.737,0.14h-3.12c-2.016,0-3.984-.04-6-0.09,0,1.2-.048,2.45-0.048,3.65a0.543,0.543,0,0,0,.576.62,3.833,3.833,0,0,0,1.008-.29,14.017,14.017,0,0,1,3.984-.38c0.192,0,1.152-.1,1.152.19v16.03c0,1.3-1.1,2.4-1.1,2.64a0.9,0.9,0,0,0,.96.63c1.344,0,2.736-.05,4.08-0.05,0.24,0,.529.1,0.769,0.1a0.521,0.521,0,0,0,.624-0.44,2.777,2.777,0,0,0-.528-0.96,4.639,4.639,0,0,1-.288-1.82v-16.13c0-.29.96-0.19,1.152-0.19a14.017,14.017,0,0,1,3.984.38,3.833,3.833,0,0,0,1.008.29A0.543,0.543,0,0,0,539.875,3549.39Zm27.5,7.77c0-7.39-4.752-11.52-12-11.52s-11.953,4.13-11.953,11.52c0,7.06,4.992,11.62,11.953,11.62S567.379,3564.22,567.379,3557.16Zm-4.272,0c0,4.76-2.929,7.83-7.729,7.83s-7.681-3.07-7.681-7.83c0-4.65,3.073-7.53,7.681-7.53S563.107,3552.51,563.107,3557.16Zm26.159,4.95c0-7.01-10.369-9.51-10.369-11.52a1.636,1.636,0,0,1,1.728-1.3,9.682,9.682,0,0,1,4.128,1.1,1.618,1.618,0,0,0,.673-0.62,6.55,6.55,0,0,1,.816-1.2,4.807,4.807,0,0,0,.816-1.1c-0.144-1.01-4.369-1.97-5.761-1.97-3.456,0-7.152,1.01-7.152,4.75,0,6.29,10.512,6.29,10.512,11.71,0,2.45-2.5,3.51-4.608,3.51a9.92,9.92,0,0,1-5.856-2.02,2.457,2.457,0,0,0-.961-0.77c-0.48,0-.624.96-1.008,1.59-0.768,1.29-1.248,1.39-1.248,1.77a0.663,0.663,0,0,0,.48.53,15.063,15.063,0,0,0,8.545,2.59C584.273,3569.16,589.266,3567.05,589.266,3562.11Z" transform="translate(-239.594 -3545.5)"/>
</svg>
