<svg viewBox="0 0 721 85" id="subtitle-proposed-text">
<path d="M18,9.6c-0.1-0.3-0.4-0.5-0.8-0.4c-0.7,0-1.5,0.1-2.2,0.1c-0.9,0-1.8-0.1-2.7-0.1c-0.3,0-0.6,0.1-0.6,0.4
	s1.1,1.6,1.1,2.7v2.4c-0.6-0.4-1.3-0.6-2-0.6c-1.4,0-2.6,1-4.1,1C6,15.2,5.3,14.7,5.2,14c0-0.1,0-0.1,0-0.2v-2.4c0-0.3,1-1.6,1-1.9
	C6,9.3,5.7,9.1,5.4,9.2c-0.7,0-1.4,0-2.1,0c-0.8,0-1.6-0.1-2.4-0.1c-0.3,0-0.5,0.2-0.6,0.4v0.1c0,0.3,0.2,0.6,0.4,0.8
	c0.2,0.6,0.3,1.3,0.2,2v16.8c0,0.8-0.2,1.6-0.7,2.3C0.1,31.6,0,31.8,0,32c0.1,0.3,0.4,0.5,0.7,0.4c0.8,0,1.5-0.1,2.3-0.1
	s1.6,0.1,2.4,0.1C5.6,32.5,6,32.3,6,32c0-0.4-0.9-1.7-0.9-2.7V18.7c0.7,0.3,1.4,0.4,2.2,0.4c1.2,0,2.3-0.8,3.6-0.8
	c1,0,1.8,0.8,1.8,1.7l0,0v9.1c0,0.8-0.3,1.6-0.8,2.3c-0.2,0.1-0.3,0.3-0.3,0.5c0,0.4,0.3,0.4,0.6,0.4c0.9,0,1.8-0.1,2.6-0.1
	c0.7,0,1.5,0.1,2.2,0.1c0.3,0.1,0.6-0.1,0.7-0.4c0-0.4-0.8-1.5-0.8-2.4V12.3C17,11.1,18,9.9,18,9.6z"/>
<path d="M39,28.1c0-0.3-0.2-0.5-0.5-0.5c-0.2,0-0.4,0.1-0.6,0.2c-1,0.5-2.1,0.7-3.2,0.8h-6.6c-0.9,0-1.2,0-1.2-0.9
	v-6.2c0-0.7,0-0.6,0.6-0.6h8.1c0.5,0,0.9-0.1,0.9-0.7v-2.4c0.1-0.3-0.1-0.7-0.5-0.7c-0.1,0-0.2,0-0.3,0h-8.4
	c-0.2,0-0.4-0.1-0.4-0.3v-0.1v-2.9c0-0.2-0.1-0.6,0.1-0.6h6.3c1,0,2.1,0.2,3,0.6c0.2,0.1,0.4,0.2,0.6,0.3c0.2,0,0.4-0.2,0.4-0.4
	c0,0,0,0,0-0.1c0-1.2-0.2-2.5-0.2-3.8c0-0.3-0.3-0.5-0.6-0.5c0,0,0,0-0.1,0c-3.9,0-7.9,0.1-11.8,0.1C24.2,9.3,22,9,22,9.6
	c0.3,0.7,0.5,1.5,0.6,2.2v16.4c0,0.9,0,2.4-0.8,3c-0.2,0.2-0.4,0.4-0.4,0.7c0,0.3,0.2,0.4,0.5,0.4c0.8,0,1.7-0.1,2.5-0.1
	c4.4,0,8.8,0.1,13.2,0.1c0.6,0,1.2,0.1,1.2-0.8v-2C38.9,29.1,39,28.6,39,28.1L39,28.1z"/>
<path d="M68.2,14.6c0-2.9-2.3-5.2-5.2-5.3h-8.9c-0.8,0-1.7-0.1-2.5-0.1c-0.2,0-0.5,0.1-0.6,0.3c0.2,1.1,1,0.3,1,2.6V29
	c0,2.3-1.2,2.5-1.2,3.1c0,0.3,0.3,0.4,0.6,0.4c0.9,0,1.6-0.2,2.5-0.2c0.5,0,3.3,0.3,3.3-0.4c0-0.4-0.9-1-0.9-2.1v-9.4H62
	C65.6,20.4,68.2,19.2,68.2,14.6L68.2,14.6z M62.1,16.6c-0.1,0-0.1,0-0.2,0h-5.3c-0.1,0-0.3,0-0.4-0.1v-3.3c0-0.2,0.2-0.2,0.3-0.2
	H62c0.9,0.1,1.5,0.9,1.5,1.7v0.1l0,0C63.5,15.7,62.9,16.5,62.1,16.6z"/>
<path d="M89,32.1c0-0.4-1.4-1.1-1.8-1.6c-1.9-2.8-4.2-7.1-6-10.5c4,0.1,7-0.8,7-5.3c0-2.9-2.2-5.3-5.1-5.4
	c-3.1,0-6.1-0.1-9.2-0.1c-0.8,0-1.5-0.2-2.3-0.2c-0.3,0-0.5,0.1-0.6,0.4c0.1,0.8,1,0.8,1,2.2v17.2c0,2.4-1.2,2.4-1.2,3.1
	c0,0.4,0.3,0.4,0.6,0.4c0.8,0,1.7-0.2,2.5-0.2c0.5,0,3.3,0.3,3.3-0.4c0-0.4-0.9-1-0.9-2.1v-9.8c0.9,1.6,5.9,9.9,5.9,10.9
	c-0.1,0.3-0.3,0.7-0.4,1c0,0.2,0.2,0.4,0.5,0.4c2.1,0,4.2,0.1,6.3,0.1C88.7,32.4,88.9,32.3,89,32.1L89,32.1z M76.2,16.2v-3
	c0-0.2,0.2-0.2,0.3-0.2h5.4c0.9,0.1,1.5,0.8,1.5,1.7l0,0c0,0.8-0.4,1.9-1.4,1.9h-5.5C76.3,16.6,76.2,16.6,76.2,16.2z"/>
<path d="M110.1,20.8c0-5.9-3-11.9-9.6-11.9c-6.9,0-9.6,5.8-9.6,11.9c0,5.8,3,11.9,9.6,11.9
	C107.6,32.7,110.1,27.1,110.1,20.8L110.1,20.8z M105.9,20.8c0,3.4-1.3,7.7-5.4,7.7S95,24.1,95,20.8s1.5-7.7,5.5-7.7
	C104.5,13.1,105.9,17.4,105.9,20.8L105.9,20.8z"/>
<path d="M130.8,14.6c0-2.9-2.3-5.2-5.2-5.3h-8.9c-0.8,0-1.7-0.1-2.5-0.1c-0.2,0-0.5,0.1-0.6,0.3c0.2,1.1,1,0.3,1,2.6
	V29c0,2.3-1.2,2.5-1.2,3.1c0,0.3,0.3,0.4,0.6,0.4c0.9,0,1.6-0.2,2.5-0.2c0.5,0,3.3,0.3,3.3-0.4c0-0.4-0.9-1-0.9-2.1v-9.4h5.8
	C128.3,20.4,130.9,19.2,130.8,14.6L130.8,14.6z M124.8,16.6c-0.1,0-0.1,0-0.2,0h-5.3c-0.1,0-0.3,0-0.4-0.1v-3.3
	c0-0.2,0.2-0.2,0.3-0.2h5.4c0.9,0.1,1.5,0.9,1.5,1.7v0.1l0,0C126.2,15.7,125.6,16.5,124.8,16.6z"/>
<path d="M153,22.2C153,17,149.6,9,143.4,9s-9.6,7.9-9.6,13.2c0,5.9,3.4,10.4,9.6,10.4C149.6,32.7,153,28.1,153,22.2
	L153,22.2z M148.7,22.7c0,3.1-1.9,5.8-5.3,5.8c-3.6,0-5.3-2.6-5.3-5.8c0-3,1.4-9.5,5.3-9.5S148.7,19.7,148.7,22.7L148.7,22.7z"/>
<path d="M174.9,25.6c0-7-10.4-9.5-10.4-11.5c0.2-0.8,0.9-1.4,1.7-1.3c1.4,0.1,2.9,0.4,4.1,1.1c0.3-0.1,0.5-0.4,0.7-0.6
	c0.2-0.4,0.5-0.8,0.8-1.2c0.3-0.3,0.6-0.7,0.8-1.1c-0.1-1-4.4-2-5.8-2c-3.5,0-7.2,1-7.2,4.8c0,6.3,10.5,6.3,10.5,11.7
	c0,2.4-2.5,3.5-4.6,3.5s-4.2-0.7-5.9-2c-0.2-0.3-0.6-0.6-1-0.8c-0.5,0-0.6,1-1,1.6c-0.8,1.3-1.2,1.4-1.2,1.8c0,0.3,0.2,0.5,0.5,0.5
	c2.5,1.7,5.5,2.6,8.5,2.6C169.9,32.7,174.9,30.6,174.9,25.6L174.9,25.6z"/>
<path d="M195.7,28.1c0-0.3-0.2-0.5-0.5-0.5c-0.2,0-0.4,0.1-0.6,0.2c-1,0.5-2.1,0.7-3.2,0.8h-6.6c-0.9,0-1.2,0-1.2-0.9
	v-7.2c0-0.7,0-0.6,0.6-0.6l8.1,0.1c0.4,0.1,0.8-0.2,0.9-0.5c0-0.1,0-0.1,0-0.2v-2.4c0.1-0.3-0.1-0.7-0.5-0.7c-0.1,0-0.2,0-0.3,0
	h-8.8v-2.5c0-0.2,0-0.5,0.3-0.5h6.1c1,0,2.1,0.2,3,0.6c0.2,0.1,0.4,0.2,0.6,0.3c0.2,0,0.4-0.2,0.4-0.4c0,0,0,0,0-0.1
	c0-1.2-0.2-2.5-0.2-3.8c0-0.3-0.3-0.5-0.6-0.5c0,0,0,0-0.1,0c-3.9,0-7.9,0.1-11.8,0.1c-0.5,0-2.7-0.3-2.7,0.3
	c0.3,0.7,0.5,1.5,0.6,2.2v16.4c0,0.9,0,2.4-0.8,3c-0.2,0.2-0.4,0.4-0.4,0.7c0,0.3,0.2,0.4,0.5,0.4c0.8,0,1.7-0.1,2.5-0.1
	c4.4,0,8.8,0.1,13.2,0.1c0.6,0,1.2,0.1,1.2-0.8v-2C195.7,29.1,195.7,28.6,195.7,28.1L195.7,28.1z"/>
<path d="M217.8,17.1c0.1-4.2-3.1-7.7-7.3-7.8c-0.2,0-0.4,0-0.6,0c-3.5,0-6.9-0.1-10.3-0.1c-0.4,0-0.7,0.2-0.7,0.6l0,0
	c0,0.4,1.1,1.5,1.1,2.7v13.1c0,1.5,0,4.7-0.8,5.9c-0.2,0.2-0.3,0.4-0.4,0.7c0.2,0.3,0.5,0.5,0.8,0.4c2-0.2,4-0.7,5.9-1.6
	C211.1,28.5,217.8,24,217.8,17.1L217.8,17.1z M213.1,17.7c0,3.9-4.3,7.7-7.9,8.6c-0.2,0-0.3,0.1-0.5,0.1c-0.3-0.1-0.6-0.4-0.5-0.8
	V14.3c0-1.2,1.3-1.3,2.2-1.3h1.9C211.4,13,213.1,14.7,213.1,17.7L213.1,17.7z"/>
<path d="M249.1,20.8c0-5.9-3-11.9-9.6-11.9c-6.9,0-9.6,5.8-9.6,11.9c0,5.8,3,11.9,9.6,11.9
	C246.6,32.7,249.1,27.1,249.1,20.8L249.1,20.8z M244.9,20.8c0,3.4-1.3,7.7-5.4,7.7s-5.5-4.4-5.5-7.7s1.5-7.7,5.5-7.7
	C243.6,13.1,244.9,17.4,244.9,20.8L244.9,20.8z"/>
<path d="M265.8,9.7c0-0.3-0.4-0.6-0.7-0.5l0,0c-1.2,0-2.3,0-3.5,0c-0.4,0-0.7,0.2-0.7,0.6c0,0.6,0.7,0.4,0.7,1.2v4.4
	c-1.3-1.4-3.5-3.9-4.3-4.8c0.2-0.2,0.4-0.5,0.4-0.8s-0.4-0.6-0.7-0.5l0,0c-1.3,0-2.6,0-3.9,0c-0.4,0-0.7,0.2-0.8,0.6
	c0.2,0.3,0.3,0.6,0.4,1v12.5c-0.1,0.7-0.3,1.4-0.7,2c0,0.3,0.2,0.6,0.6,0.6h0.1h3.6c0.3,0,0.6-0.2,0.8-0.6c0-0.6-0.8-0.6-0.8-1.7
	v-9.6c1.8,2,3.6,4,5.3,6v3.4c-0.1,0.6-0.3,1.3-0.7,1.8c0,0.3,0.3,0.6,0.6,0.6h0.1h3.3c0.4,0,0.7-0.2,0.8-0.6c0-0.4-0.6-0.9-0.6-1.6
	v-12C265.2,10.7,265.8,10.1,265.8,9.7L265.8,9.7z"/>
<path d="M266.5,30.5c-0.2-1-0.7-1.8-1.3-2.6c-0.6,0.1-0.7,1.1-1.9,1.1c-1.6,0-2.5-1.7-4.2-1.7s-2.6,1.6-4.2,1.6
	c-1.1,0-2.1-1.2-2.4-1.2c-0.5,0.7-0.9,1.6-1.2,2.4c0,0.2,0,0.3,0.1,0.5c0.8,1.2,2.3,1.9,3.7,1.8c1.5,0,2.6-1.2,3.9-1.2
	c1.5,0,2.7,1.2,4.2,1.2C264.2,32.4,266.5,31.7,266.5,30.5L266.5,30.5z"/>
<path d="M295.2,12.9c0-1.2,0-2.4,0-3.7c-2.9,0.1-5.8,0.2-8.7,0.2h-3.1c-2,0-4-0.1-6-0.1c0,1.2,0,2.4,0,3.7
	c0,0.3,0.2,0.6,0.5,0.6h0.1c0.3-0.1,0.7-0.1,1-0.3c1.3-0.3,2.6-0.4,4-0.4c0.2,0,1.2-0.1,1.2,0.2v16c0,1.3-1.1,2.4-1.1,2.6
	c0.1,0.4,0.5,0.7,1,0.6c1.3,0,2.7-0.1,4.1-0.1c0.2,0,0.5,0.1,0.8,0.1c0.3,0.1,0.6-0.1,0.6-0.4l0,0c-0.1-0.4-0.3-0.7-0.5-1
	c-0.2-0.6-0.3-1.2-0.3-1.8v-16c0-0.3,1-0.2,1.2-0.2c1.3-0.1,2.7,0.1,4,0.4c0.3,0.1,0.7,0.2,1,0.3c0.3,0,0.6-0.2,0.6-0.5
	C295.2,13,295.2,13,295.2,12.9L295.2,12.9z"/>
<path d="M311.5,9.7c-0.1-0.4-0.5-0.6-0.9-0.5c-1.2,0-2.3,0-3.5,0c-0.3-0.1-0.6,0.1-0.7,0.4v0.1c0,0.5,0.7,1.2,0.7,1.9
	v2.1h-4.8V12c0.2-0.8,0.4-1.6,0.7-2.4c-0.1-0.4-0.6-0.7-1-0.6h-2.5c-0.4,0-1.2,0.1-1.2,0.6s0.5,1.2,0.5,1.9v11.7
	c-0.1,0.7-0.3,1.3-0.7,1.9c0,0.4,0.4,0.6,0.7,0.6h3.3c0.4,0,0.7-0.2,0.8-0.6c0-0.5-0.6-1-0.6-1.7v-6.6h4.8v6.4
	c0,0.9-0.7,1.5-0.7,1.9c0,0.3,0.3,0.6,0.6,0.6h0.1h3.5c0.4,0,0.7-0.2,0.8-0.6c0-0.5-0.6-1.1-0.6-1.7v-12
	C310.8,10.9,311.5,10,311.5,9.7L311.5,9.7z"/>
<path d="M312.1,30.5c-0.2-1-0.7-1.8-1.3-2.6c-0.7,0.1-0.6,1.1-1.8,1.1c-1.6,0-2.4-1.8-4.1-1.8c-1.6,0-2.5,1.6-4.1,1.6
	c-1.1,0-1.8-1.2-2.3-1.2c-0.5,0.7-0.9,1.6-1.1,2.4c0,0.2,0.1,0.3,0.2,0.5c0.7,1.2,2.1,1.9,3.6,1.8c1.4,0,2.5-1.2,3.7-1.2
	c1.4,0,2.6,1.2,4,1.2c1.2,0.1,2.3-0.5,2.9-1.4C312,30.8,312.1,30.7,312.1,30.5L312.1,30.5z"/>
<path d="M332.1,31.1c0-0.5,0.2-3.3-0.6-3.3c-0.2,0-1.2,0.1-1.4,0.1c-0.1,0-0.1-0.1-0.2-0.1c-4.2-0.8-9-3-10.5-7h9.2
	c0.5,0,0.9-0.1,0.9-0.7v-2.4c0.1-0.3-0.1-0.7-0.5-0.7c-0.1,0-0.2,0-0.3,0H319c0.4-2.3,2.3-3.7,4.8-3.7c1.2,0,4.2,0.2,5.1,0.9
	c0.2,0.2,0.4,0.3,0.6,0.5c0.3-0.1,0.4-0.3,0.4-0.6c0-1.2,0-2.6-0.1-3.8c0-0.6-0.1-0.8-0.8-0.8h-4.4c-5.3,0-10.3,2.5-10.3,8.9
	c0,6.1,5.2,9.8,10.2,12.2c2.3,1,4.7,1.7,7.2,2C332,32.5,332.1,31.3,332.1,31.1L332.1,31.1z"/>
<path d="M362.4,9.6c0-0.4-0.4-0.4-0.7-0.4c-1.6,0-3.3-0.1-4.9-0.1c-0.3,0-0.6,0.1-0.7,0.4c0.1,0.3,0.3,0.5,0.6,0.7
	c0.3,0.5,0.5,1.1,0.4,1.6v6.7H357c0,0-4.9-5.7-6.5-7.5c-0.1-0.1-0.1-0.2-0.1-0.3c0-0.4,0.6-0.7,0.6-1.1c0-0.4-0.4-0.4-0.7-0.4
	c-1.9,0-3.7-0.1-5.6-0.1c-0.3-0.1-0.6,0.1-0.7,0.4c0.1,0.3,0.2,0.5,0.4,0.8c0.1,0.4,0.2,0.9,0.1,1.3V29c-0.1,1-0.4,2-1,2.8
	c0,0.3,0.3,0.5,0.6,0.5h0.1c0.9,0,1.9-0.1,2.8-0.1c0.8,0,1.6,0.1,2.4,0.1c0.3,0,0.5-0.1,0.7-0.4c0-0.6-1.2-0.6-1.2-2.6V14.9h0.2
	c0,0,1.9,2.2,2.8,3.3l5.2,6.1v2.1h4.3V12.3C361.5,10.8,362.4,10.1,362.4,9.6L362.4,9.6z"/>
<path d="M371.7,2.7c-0.1-1.5-1.3-2.6-2.7-2.6c-1.2,0-2.3,0.9-2.3,2.1c0,0.1,0,0.2,0,0.3c-0.1,1.4,0.9,2.7,2.4,2.8
	C370.4,5.3,371.6,4.2,371.7,2.7L371.7,2.7z"/>
<path d="M372.1,9.5c0-0.3-0.3-0.2-0.5-0.2c-0.6,0-1.7,0.1-2.5,0.1c-1,0-1.6-0.2-2.5-0.2c-0.2-0.1-0.4,0.1-0.5,0.3
	c0.1,0.3,0.2,0.6,0.4,0.9c0.3,1,0.4,2,0.4,3.1V28c0,1-0.2,2.8-0.8,3.6c-0.1,0.1-0.2,0.3-0.2,0.5c0,0.2,0.1,0.3,0.3,0.3l0,0
	c0.9,0,1.3-0.1,2.8-0.1c1.6,0,1.9,0.1,2.7,0.1c0.2,0,0.5-0.1,0.5-0.3c-0.6-1.1-0.9-2.3-0.9-3.5V13.3
	C371.1,11.9,371.4,10.6,372.1,9.5L372.1,9.5z"/>
<path d="M394,32.1c0-0.3-0.2-0.5-0.3-0.7c-0.2-0.7-0.4-1.4-0.3-2.1V14.5c0-1.9-2.1-5.4-7.3-5.4c-1.7,0-3.3,0.6-4.6,1.8
	c0-0.3,0-0.7,0.2-1c0-0.1,0-0.1,0.1-0.2c0.1-0.1,0.1-0.1,0.1-0.2c0-0.3-0.8-0.2-1.1-0.2c-0.5,0-1.4,0.1-2.2,0.1
	c-0.6,0-1-0.1-1.6-0.1c-0.2,0-0.5,0.1-0.5,0.3c0,0.3,0.1,0.5,0.3,0.7c0.2,0.7,0.4,1.4,0.3,2.1v17.2c0,0.6-0.2,1.2-0.4,1.7
	c-0.2,0.3-0.3,0.7-0.5,1c0.1,0.2,0.3,0.3,0.5,0.3h0.1c0.7,0,1.5-0.1,2.2-0.1c0.8,0,2.1,0.1,2.9,0.1c0.2,0,0.5-0.1,0.5-0.3
	c-0.1-0.1-0.1-0.3-0.2-0.4c-0.5-0.7-0.8-1.5-0.9-2.3V16.5c0-2.3,2-3.4,4.2-3.4c1.7-0.2,3.2,1.1,3.3,2.8c0,0.2,0,0.4,0,0.7v12.9
	c0,0.6-0.2,1.2-0.4,1.7c-0.2,0.3-0.3,0.7-0.4,1c0,0.2,0.2,0.3,0.4,0.3l0,0h0.1c0.6,0,2.9-0.1,3.6-0.1c0.9,0,0.3,0.1,1.2,0.1
	C393.7,32.4,394,32.4,394,32.1L394,32.1z"/>
<path d="M415.9,31.1c0-0.5,0.2-3.3-0.6-3.3c-0.2,0-1.2,0.1-1.4,0.1c-0.1,0-0.1-0.1-0.2-0.1c-4.2-0.8-9-3-10.5-7h9.2
	c0.5,0,0.9-0.1,0.9-0.7v-2.4c0.1-0.3-0.1-0.7-0.5-0.7c-0.1,0-0.2,0-0.3,0h-9.7c0.4-2.3,2.3-3.7,4.8-3.7c1.2,0,4.2,0.2,5.1,0.9
	c0.2,0.2,0.4,0.3,0.6,0.5c0.3-0.1,0.4-0.3,0.4-0.6c0-1.2,0-2.6-0.1-3.8c0-0.6-0.1-0.8-0.8-0.8h-4.4c-5.3,0-10.3,2.5-10.3,8.9
	c0,6.1,5.2,9.8,10.2,12.2c2.3,1,4.7,1.7,7.2,2C415.8,32.5,415.9,31.3,415.9,31.1L415.9,31.1z"/>
<path d="M436.5,12.9c0-1.2,0-2.4,0-3.7c-2.9,0.1-5.8,0.2-8.7,0.2h-3.1c-2,0-4-0.1-6-0.1c0,1.2,0,2.4,0,3.7
	c0,0.3,0.2,0.6,0.5,0.6h0.1c0.3-0.1,0.7-0.1,1-0.3c1.3-0.3,2.6-0.4,4-0.4c0.2,0,1.2-0.1,1.2,0.2v16c0,1.3-1.1,2.4-1.1,2.6
	c0.1,0.4,0.5,0.7,1,0.6c1.3,0,2.7-0.1,4.1-0.1c0.2,0,0.5,0.1,0.8,0.1c0.3,0.1,0.6-0.1,0.6-0.4l0,0c-0.1-0.4-0.3-0.7-0.5-1
	c-0.2-0.6-0.3-1.2-0.3-1.8v-16c0-0.3,1-0.2,1.2-0.2c1.3-0.1,2.7,0.1,4,0.4c0.3,0.1,0.7,0.2,1,0.3c0.3,0,0.6-0.2,0.6-0.5
	C436.5,13,436.5,13,436.5,12.9L436.5,12.9z"/>
<path d="M457.2,28.1c0-0.3-0.2-0.5-0.5-0.5c-0.2,0-0.4,0.1-0.6,0.2c-1,0.5-2.1,0.7-3.2,0.8h-6.6c-0.9,0-1.2,0-1.2-0.9
	v-6.2c0-0.7,0-0.6,0.6-0.6h8.1c0.5,0,0.9-0.1,0.9-0.7v-2.4c0.1-0.3-0.1-0.7-0.5-0.7c-0.1,0-0.2,0-0.3,0h-8.4
	c-0.2,0-0.4-0.1-0.4-0.3v-0.1v-2.9c0-0.2-0.1-0.6,0.1-0.6h6.3c1,0,2.1,0.2,3,0.6c0.2,0.1,0.4,0.2,0.6,0.3c0.2,0,0.4-0.2,0.4-0.4
	c0,0,0,0,0-0.1c0-1.2-0.2-2.5-0.2-3.8c0-0.3-0.3-0.5-0.6-0.5c0,0,0,0-0.1,0c-3.9,0-7.9,0.1-11.8,0.1c-0.5,0-2.7-0.3-2.7,0.3
	c0.3,0.7,0.5,1.5,0.6,2.2v16.4c0,0.9,0,2.4-0.8,3c-0.2,0.2-0.4,0.4-0.4,0.7c0,0.3,0.2,0.4,0.5,0.4c0.8,0,1.7-0.1,2.5-0.1
	c4.4,0,8.8,0.1,13.2,0.1c0.6,0,1.2,0.1,1.2-0.8v-2C457.2,29.1,457.2,28.6,457.2,28.1L457.2,28.1z"/>
<path d="M472.7,24.6v-1.9c0.1-0.4-0.2-0.8-0.5-0.9h-0.1c-1,0-1.7,0.7-2.7,0.7h-4.9c-0.2,0-0.4-0.1-0.4-0.3v-0.1l0.1-4
	h5.9c0.4,0.1,0.8-0.2,0.9-0.7v-0.1c0-0.4,0-0.8,0-1.2c0.1-0.5-0.2-1.1-0.7-1.2h-0.1h-6v-2.6h4.3c0.9,0,1.7,0.6,2.6,0.6
	c0.3,0,0.6-0.3,0.5-0.6c0-0.9-0.1-1.8-0.1-2.6c-0.1-0.4-0.4-0.6-0.8-0.6c-3.1,0-6.2,0-9.3,0c-0.3,0-1.2,0-1.2,0.5s0.4,1,0.4,1.5
	v11.4c-0.1,0.9-0.4,1.8-0.8,2.6c0,0.5,0.9,0.6,1.2,0.6c3.5,0,7,0,10.5,0c0.6,0.1,1.1-0.2,1.2-0.8C472.8,24.8,472.8,24.7,472.7,24.6
	L472.7,24.6z"/>
<path d="M473.1,30.5c-0.2-0.9-0.6-1.8-1.2-2.6c-0.5,0.1-0.6,1.1-1.7,1.1c-1.5,0-2.3-1.7-3.8-1.7s-2.4,1.6-3.8,1.6
	c-1,0-1.7-1.2-2.2-1.2c-0.5,0.7-0.8,1.6-1.1,2.4c0,0.2,0.1,0.3,0.2,0.5c0.7,1.2,2,1.9,3.4,1.8c1.3,0,2.4-1.2,3.5-1.2
	c1.3,0,2.4,1.2,3.8,1.2c1.1,0.1,2.2-0.5,2.7-1.4C473,30.8,473,30.7,473.1,30.5L473.1,30.5z"/>
<path d="M494.2,9.6c0-0.4-0.4-0.4-0.7-0.4c-1.6,0-3.3-0.1-4.9-0.1c-0.3,0-0.6,0.1-0.7,0.4c0.1,0.3,0.3,0.5,0.6,0.7
	c0.3,0.5,0.5,1.1,0.4,1.6v6.7h-0.1c0,0-4.9-5.7-6.5-7.5c-0.1-0.1-0.1-0.2-0.1-0.3c0-0.4,0.6-0.7,0.6-1.1c0-0.4-0.4-0.4-0.7-0.4
	c-1.9,0-3.7-0.1-5.6-0.1c-0.3-0.1-0.6,0.1-0.7,0.4c0.1,0.3,0.2,0.5,0.4,0.8c0.1,0.4,0.2,0.9,0.1,1.3V29c0,1.1-0.4,2.1-1,2.9
	c0,0.3,0.3,0.5,0.6,0.5h0.1c0.9,0,1.9-0.1,2.8-0.1c0.8,0,1.6,0.1,2.4,0.1c0.3,0,0.5-0.1,0.7-0.4c0-0.6-1.2-0.6-1.2-2.6V14.9h0.2
	l2.8,3.3l5.2,6.1v4.9c0,0.8-0.2,1.5-0.6,2.2c-0.2,0.1-0.3,0.3-0.3,0.5c0,0.3,0.3,0.5,0.6,0.5h0.1c0.8,0,1.5-0.1,2.3-0.1
	s1.6,0.1,2.4,0.1c0.3,0,0.6-0.2,0.7-0.5c0-0.5-0.8-1.1-0.8-2.4V12.3C493.3,10.8,494.2,10.1,494.2,9.6L494.2,9.6z"/>
<path d="M515.5,12.9c0-1.2,0-2.4,0-3.7c-2.9,0.1-5.8,0.2-8.7,0.2h-3.1c-2,0-4-0.1-6-0.1c0,1.2,0,2.4,0,3.7
	c0,0.3,0.2,0.6,0.5,0.6h0.1c0.3-0.1,0.7-0.1,1-0.3c1.3-0.3,2.6-0.4,4-0.4c0.2,0,1.2-0.1,1.2,0.2v16c0,1.3-1.1,2.4-1.1,2.6
	c0.1,0.4,0.5,0.7,1,0.6c1.3,0,2.7-0.1,4.1-0.1c0.2,0,0.5,0.1,0.8,0.1c0.3,0.1,0.6-0.1,0.6-0.4l0,0c-0.1-0.4-0.3-0.7-0.5-1
	c-0.2-0.6-0.3-1.2-0.3-1.8v-16c0-0.3,1-0.2,1.2-0.2c1.3-0.1,2.7,0.1,4,0.4c0.3,0.1,0.7,0.2,1,0.3c0.3,0,0.6-0.2,0.6-0.5
	C515.5,13,515.5,13,515.5,12.9L515.5,12.9z"/>
<path d="M536.9,9.6c-0.1-0.3-0.4-0.5-0.8-0.4c-0.7,0-1.5,0.1-2.2,0.1c-0.9,0-1.8-0.1-2.7-0.1c-0.3,0-0.6,0.1-0.6,0.4
	s1.1,1.6,1.1,2.7v2h-7.5c0-1.3-0.2-2.6,0.4-3.8c0.2-0.3,0.4-0.7,0.5-1.1c-0.1-0.3-0.4-0.5-0.8-0.4c-0.7,0-1.4,0.1-2.1,0.1
	c-0.8,0-1.6-0.1-2.4-0.1c-0.3-0.1-0.6,0.1-0.6,0.4v0.1c0,0.3,0.2,0.6,0.4,0.8c0.2,0.6,0.3,1.3,0.2,2v16.8c0,0.8-0.2,1.6-0.7,2.3
	c-0.2,0.1-0.3,0.3-0.3,0.5c0.1,0.3,0.4,0.5,0.7,0.4c0.8,0,1.5-0.1,2.3-0.1s1.6,0.1,2.4,0.1c0.3,0.1,0.6-0.1,0.7-0.4
	c0-0.4-0.8-1.4-0.8-2.4V18.3h7.5v10.9c0,0.8-0.3,1.6-0.8,2.3c-0.2,0.1-0.3,0.3-0.3,0.5c0,0.4,0.3,0.4,0.6,0.4
	c0.9,0,1.8-0.1,2.6-0.1c0.7,0,1.5,0.1,2.2,0.1c0.3,0.1,0.6-0.1,0.7-0.4c0-0.4-0.8-1.4-0.8-2.4V12.3C536,11.1,536.9,9.9,536.9,9.6
	L536.9,9.6z"/>
<path d="M566.6,30.5c0-0.2-1.2-2.6-1.4-2.6c-0.4,0-0.9,1.2-2.4,1.2c-2,0-3.3-1.8-5.3-1.8s-3.3,1.7-5.2,1.7
	c-1.3,0-2.7-1.3-2.9-1.3c-0.6,0.7-1,1.5-1.3,2.4c0,0.2,0.1,0.3,0.2,0.4c1.1,1.3,2.8,2,4.6,1.8c1.7,0,3.1-1.2,4.8-1.2
	c1.8,0,3.4,1.2,5.1,1.2c1.4,0.1,2.8-0.4,3.7-1.4C566.5,30.9,566.6,30.7,566.6,30.5L566.6,30.5z"/>
<path d="M566,17.4c0-5.3-3.5-8.2-8.7-8.2s-8.7,2.9-8.7,8.2c0,5.1,3.7,8.3,8.7,8.3S566,22.5,566,17.4L566,17.4z
	 M562.1,17.4c0,2.6-2.2,4.7-4.8,4.7s-4.7-2.1-4.7-4.7s2.1-4.8,4.8-4.8C559.9,12.6,562.1,14.7,562.1,17.4L562.1,17.4z"/>
<path d="M584.6,13.4c0-1.2-0.2-2.3-0.2-3.4c0-0.5,0-0.8-0.6-0.8c-4.7,0-9.3,0-13.9,0c-0.3,0-0.6-0.1-0.6,0.3
	c0.2,0.7,0.4,1.5,0.6,2.3v16.4c0,0.9,0,2.6-0.8,3.2c-0.2,0.2-0.4,0.4-0.4,0.7c0.1,0.3,0.4,0.4,0.6,0.4c0.8,0,1.6-0.1,2.4-0.1
	c0.7,0,1.4,0.1,2.2,0.1c0.3,0,1.2,0.1,1.2-0.4c0-0.4-0.9-0.9-0.9-2.1v-9.1h8.7c0.4,0,0.9-0.1,0.9-0.5v-2.7c0-0.5-0.2-0.6-0.7-0.6
	H575c-0.2,0-0.8,0.1-0.8-0.3v-3.3c0-0.2-0.1-0.3,0.4-0.3h6c1.1,0,2.1,0.1,3.1,0.6c0.1,0.2,0.3,0.3,0.5,0.4
	C584.3,14,584.6,13.7,584.6,13.4L584.6,13.4z"/>
<path d="M615,11.3c0-0.7,1-1.1,1-1.6l0,0c-0.1-0.3-0.4-0.5-0.7-0.4c-10.7,0-15.8,7.8-16.6,17.6c-0.1,1.3,0,3.6-0.8,4.7
	c-0.1,0.1-0.2,0.3-0.2,0.5c0,0.3,1.2,0.4,1.3,0.4c0.5,0,1.1-0.1,1.6-0.1c0.9,0,1.7,0.2,2.5,0.2c0.3,0,0.6-0.1,0.6-0.4
	c-0.1-0.3-0.2-0.5-0.5-0.6c-0.5-0.4-0.6-1.9-0.6-2.5c-0.1-0.9,0-1.7,0.1-2.6c0-0.2,0.1-0.2,0.3-0.2h7.3c0.2,0,0.3,0,0.3,0.2
	c0,1.2,0.3,3.9-0.9,4.9c-0.2,0.1-0.4,0.4-0.4,0.6c0,0.3,1.3,0.4,1.5,0.4c0.5,0,1.1-0.1,1.6-0.1c0.8,0,1.6,0.1,2.4,0.1
	c0.2,0,0.8-0.1,0.8-0.4c-0.4-0.8-0.7-1.6-0.8-2.5V11.3H615z M610.8,14.6v7.7l0,0v0.1h-6.7c0,0-0.3,0-0.3-0.1c0-2.4,3.9-8.2,6.6-8.2
	c0.2,0,0.4,0.1,0.4,0.4C610.8,14.5,610.8,14.6,610.8,14.6z"/>
<path d="M637.2,9.5c0-0.2-0.2-0.3-0.4-0.3l0,0c-1.1,0-2.2,0.1-3.3,0.1c-0.8,0-1.2-0.1-2-0.1c-0.2,0-0.5,0.1-0.5,0.3
	c0,0.3,1.1,1.6,1.1,2.8v12.4c0,2.2-1.2,3.4-3.5,3.4c-2.4,0-3.9-0.9-3.9-3.3V12.2c0.1-1,0.5-1.9,0.9-2.7c0-0.2-0.2-0.3-0.4-0.3l0,0
	c-1.8,0-3.1,0-4.9,0c-0.2,0-0.5,0.1-0.6,0.3c0,0.3,0.2,0.5,0.4,0.7c0.2,0.7,0.3,1.4,0.3,2.1v15.1c0,4.3,4.6,5,8,5
	c2.6,0,8.1-1.1,8.1-4.5V12.2C636.4,11.2,636.7,10.3,637.2,9.5L637.2,9.5z"/>
<path d="M659.8,32.2c0-0.1-0.1-0.2-0.2-0.3c-0.7-0.7-1-2.7-1-3.7v-7.5c0-1,0.8-1.9,0.8-2.3c0-0.3-0.2-0.5-0.5-0.4h-0.1
	c-0.5,0-1,0.1-1.6,0.1h-1.9c-0.7,0-1.3-0.2-1.9-0.2c-0.2-0.1-0.4,0.1-0.5,0.3v0.1c0,0.3,1.3,1.4,1.3,3v4.8c0.1,0.4-0.2,0.8-0.6,0.9
	h-0.1c-0.5-0.1-0.9-0.3-1.3-0.5c-3.4-1.2-6.9-5.2-6.9-9.1c0-3,2.8-4.1,5.4-4.1c1.2,0,3.5,0.1,4.5,0.9c0.2,0.2,0.4,0.3,0.6,0.4
	c0.3,0,0.5-0.3,0.5-0.5c0-1.3,0-2.6,0-3.9c0.1-0.4-0.1-0.7-0.5-0.8c-0.1,0-0.2,0-0.3,0h-4.3c-5.3,0-10.4,1.9-10.4,8.1
	c0,7.3,6.3,12.1,12.7,14.1c1.5,0.5,3,0.9,4.6,1.1C658.4,32.6,659.8,32.7,659.8,32.2L659.8,32.2z"/>
<path d="M676.3,9.6c0-0.3-0.3-0.5-0.6-0.4l0,0h-3.9c-0.5,0.1-0.5,0.3-0.5,0.5c0,0.4,0.7,1.2,0.7,2v8.6
	c0,1.4-1.1,2.1-2.4,2.1c-1.3,0-2.3-0.4-2.3-2v-8.8c0-0.7,0.7-1.5,0.7-1.9c0-0.3-0.3-0.5-0.6-0.4l0,0c-1.2,0-2.4-0.1-3.5-0.1
	c-0.3,0-0.6,0.2-0.6,0.5l0,0c0,0.6,0.5,1.3,0.5,2V22c0,3.2,3.4,3.7,5.9,3.7c2,0,6-0.7,6-3.3V11.5C675.8,10.8,676,10.2,676.3,9.6
	L676.3,9.6z"/>
<path d="M676.8,30.5c-0.2-0.9-0.6-1.8-1.2-2.6c-0.5,0.1-0.6,1.1-1.7,1.1c-1.5,0-2.3-1.8-3.9-1.8
	c-1.6,0-2.3,1.6-3.8,1.6c-1,0-1.7-1.2-2.2-1.2c-0.5,0.7-0.8,1.6-1,2.4c0,0.2,0.1,0.3,0.1,0.4c0.7,1.2,2.1,1.9,3.5,1.8
	c1.3,0,2.3-1.2,3.6-1.2s2.4,1.2,3.8,1.2c1.1,0.1,2.2-0.5,2.8-1.4C676.7,30.8,676.7,30.7,676.8,30.5L676.8,30.5z"/>
<path d="M691.8,20.8c0-5.4-7.6-6.1-7.6-8c0.1-0.5,0.6-0.9,1.2-0.8l0,0c1,0.1,2,0.4,2.9,1c0.8-0.6,1.4-1.4,1.9-2.3
	c-0.3-1.2-3.4-1.7-4.4-1.7c-2.7,0-5.3,1-5.3,4.2c0,4.6,7.5,3.9,7.5,7.5c0,1.5-1.7,2.2-3,2.2c-2.4,0-4.8-1.9-4.8-1.9
	c-0.5,0-1.4,1.8-1.7,2.3c0.1,1.4,4.4,2.7,6.5,2.7C688.1,26,691.8,24.4,691.8,20.8L691.8,20.8z"/>
<path d="M692,30.4c-0.2-1-0.6-1.8-1.2-2.6c-0.6,0.1-0.6,1.2-1.7,1.2c-1.5,0-2.3-1.8-3.9-1.8c-1.5,0-2.4,1.6-3.8,1.6
	c-1,0-1.7-1.2-2.2-1.2c-0.5,0.7-0.9,1.6-1.1,2.4c0,0.2,0.1,0.3,0.2,0.4c0.7,1.2,2.1,1.9,3.4,1.8c1.3,0,2.3-1.2,3.6-1.2
	c1.4,0,2.4,1.2,3.8,1.2c1.1,0.1,2.2-0.4,2.8-1.4C691.9,30.8,692,30.6,692,30.4L692,30.4z"/>
<path d="M712.3,12.9c0-1.2-0.1-2.4-0.1-3.7c-2.9,0.1-5.8,0.2-8.7,0.2h-3.1c-2,0-4-0.1-6-0.1c0,1.2-0.1,2.4-0.1,3.7
	c0,0.3,0.2,0.6,0.5,0.6h0.1c0.3-0.1,0.7-0.1,1-0.3c1.3-0.3,2.6-0.4,4-0.4c0.2,0,1.2-0.1,1.2,0.2v16c0,1.3-1.1,2.4-1.1,2.6
	c0.1,0.4,0.5,0.7,1,0.6c1.3,0,2.7-0.1,4.1-0.1c0.2,0,0.5,0.1,0.8,0.1c0.3,0.1,0.6-0.1,0.6-0.4l0,0c-0.1-0.4-0.3-0.7-0.5-1
	c-0.2-0.6-0.3-1.2-0.3-1.8v-16c0-0.3,1-0.2,1.2-0.2c1.3-0.1,2.7,0.1,4,0.4c0.3,0.1,0.7,0.2,1,0.3c0.3,0,0.6-0.2,0.6-0.5
	C712.3,13,712.3,13,712.3,12.9L712.3,12.9z"/>
<path d="M721,30.5c0.1-1.4-0.9-2.6-2.3-2.8c-0.1,0-0.3,0-0.4,0c-1.4,0-2.6,1.1-2.6,2.6c0,1.1,0.8,2.1,1.9,2.4
	c0,1.1-2.4,2.5-2.4,3.4c0,0.4,0.3,0.6,0.7,0.6l0,0C718.5,36.7,721,32.9,721,30.5L721,30.5z"/>
<path d="M164.1,64.9c0-1.2,0-2.4,0-3.7c-2.9,0.1-5.8,0.2-8.7,0.2h-3.1c-2,0-4-0.1-6-0.1c0,1.2,0,2.4,0,3.7
	c0,0.3,0.2,0.6,0.5,0.6h0.1c0.3-0.1,0.7-0.1,1-0.3c1.3-0.3,2.6-0.4,4-0.4c0.2,0,1.2-0.1,1.2,0.2v16c0,1.3-1.1,2.4-1.1,2.6
	c0.1,0.4,0.5,0.7,1,0.6c1.3,0,2.7-0.1,4.1-0.1c0.2,0,0.5,0.1,0.8,0.1c0.3,0.1,0.6-0.1,0.6-0.4l0,0c-0.1-0.4-0.3-0.7-0.5-1
	c-0.2-0.6-0.3-1.2-0.3-1.8v-16c0-0.3,1-0.2,1.2-0.2c1.3-0.1,2.7,0.1,4,0.4c0.3,0.1,0.7,0.2,1,0.3c0.3,0,0.6-0.2,0.6-0.5
	C164.1,65,164.1,65,164.1,64.9L164.1,64.9z"/>
<path d="M184.6,61.8c0.1-0.3-0.1-0.6-0.4-0.6c-0.1,0-0.2,0-0.3,0c-0.7,0-1.3,0.1-2,0.1s-1.3-0.1-2-0.1
	c-0.3,0-0.8,0.2-0.7,0.4c0,0.3,0.8,0.6,0.6,1.1c-0.4,2.2-1.3,6.1-1.9,8.9c-0.6-2.3-1.3-4.6-2-6.9c-0.2-0.2-0.4-0.3-0.7-0.3
	c-0.9,0-0.8,0.5-1,1.2c-0.5,2-1.1,4-1.6,6c-0.1-0.5-1.6-8.4-1.6-8.9c0-0.3,0.7-0.5,0.7-0.9c0-0.3-0.3-0.5-0.6-0.6
	c-0.6,0-1.7,0.1-2.4,0.1s-1.4-0.1-2.1-0.1c-0.3,0-0.6,0.2-0.7,0.5c0.2,0.7,0.9,1.1,1.1,1.8c0.3,0.9,3.2,12.3,3.1,13.2
	c-0.2,0.2-0.3,0.5-0.4,0.8c0.1,0.3,0.4,0.4,0.7,0.4c1.2,0,2.3,0,3.4,0c0.3,0.1,0.6-0.1,0.7-0.5c0,0,0,0,0-0.1
	c0-0.3-0.2-0.5-0.2-0.8c0.1-1.5,0.4-3,0.9-4.4c0.5,1.4,0.9,2.8,1,4.3c0,0.3-0.2,0.5-0.2,0.9c0.2,0.3,0.5,0.5,0.9,0.5
	c0.6,0,3.7,0.2,3.7-0.5c0-0.3-0.2-0.5-0.3-0.7c0-0.3,0-0.6,0.1-0.9c1.2-4.2,1.9-8.5,3-12.7C183.8,62.1,184.7,62.4,184.6,61.8
	L184.6,61.8z"/>
<path d="M184.9,82.5c-0.3-1-0.8-1.9-1.5-2.6c-0.4,0-1,1.1-2.4,1.1c-2,0-3.4-1.8-5.3-1.8c-1.9,0-3.3,1.6-5.2,1.6
	c-1.2,0-2.7-1.2-2.9-1.2c-0.6,0.7-1.1,1.5-1.4,2.4c0,0.2,0.1,0.4,0.3,0.5c1.1,1.3,2.8,1.9,4.5,1.8c1.7,0,3.2-1.2,4.8-1.2
	c1.8,0,3.4,1.2,5.2,1.2c1.4,0.1,2.7-0.4,3.7-1.4C184.8,82.9,184.9,82.7,184.9,82.5L184.9,82.5z"/>
<path d="M204.4,82.5c0-0.2-1.2-2.6-1.4-2.6c-0.4,0-0.9,1.2-2.4,1.2c-2,0-3.3-1.8-5.3-1.8S192,81,190.1,81
	c-1.3,0-2.7-1.3-2.9-1.3c-0.6,0.7-1,1.5-1.3,2.4c0,0.2,0.1,0.3,0.2,0.4c1.1,1.3,2.8,2,4.6,1.8c1.7,0,3.1-1.2,4.8-1.2
	c1.8,0,3.4,1.2,5.1,1.2c1.4,0.1,2.8-0.4,3.7-1.4C204.3,82.9,204.4,82.7,204.4,82.5L204.4,82.5z"/>
<path d="M203.8,69.4c0-5.3-3.5-8.2-8.7-8.2s-8.7,2.9-8.7,8.2c0,5.1,3.7,8.3,8.7,8.3S203.8,74.5,203.8,69.4L203.8,69.4z
	 M199.9,69.4c0,2.6-2.2,4.7-4.8,4.7s-4.7-2.1-4.7-4.7s2.1-4.8,4.8-4.8S199.9,66.7,199.9,69.4L199.9,69.4z"/>
<path d="M233.1,64.9c0-1.2,0-2.4,0-3.7c-2.9,0.1-5.8,0.2-8.7,0.2h-3.1c-2,0-4-0.1-6-0.1c0,1.2,0,2.4,0,3.7
	c0,0.3,0.2,0.6,0.5,0.6h0.1c0.3-0.1,0.7-0.1,1-0.3c1.3-0.3,2.6-0.4,4-0.4c0.2,0,1.2-0.1,1.2,0.2v16c0,1.3-1.1,2.4-1.1,2.6
	c0.1,0.4,0.5,0.7,1,0.6c1.3,0,2.7-0.1,4.1-0.1c0.2,0,0.5,0.1,0.8,0.1c0.3,0.1,0.6-0.1,0.6-0.4l0,0c-0.1-0.4-0.3-0.7-0.5-1
	c-0.2-0.6-0.3-1.2-0.3-1.8v-16c0-0.3,1-0.2,1.2-0.2c1.3-0.1,2.7,0.1,4,0.4c0.3,0.1,0.7,0.2,1,0.3c0.3,0,0.6-0.2,0.6-0.5
	C233.1,65,233.1,65,233.1,64.9L233.1,64.9z"/>
<path d="M249.4,61.7c-0.1-0.4-0.5-0.6-0.9-0.5c-1.2,0-2.3,0-3.5,0c-0.3-0.1-0.6,0.1-0.7,0.4v0.1c0,0.5,0.7,1.2,0.7,1.9
	v2.1h-4.8V64c0.2-0.8,0.4-1.6,0.7-2.4c-0.1-0.4-0.6-0.7-1-0.6h-2.5c-0.4,0-1.2,0.1-1.2,0.6s0.5,1.2,0.5,1.9v11.7
	c-0.1,0.7-0.3,1.3-0.7,1.9c0,0.4,0.4,0.6,0.7,0.6h3.3c0.4,0,0.7-0.2,0.8-0.6c0-0.5-0.6-1-0.6-1.7v-6.6h4.8v6.4
	c0,0.9-0.7,1.5-0.7,1.9c0,0.3,0.3,0.6,0.6,0.6h0.1h3.5c0.4,0,0.7-0.2,0.8-0.6c0-0.5-0.6-1.1-0.6-1.7v-12
	C248.7,62.9,249.4,62,249.4,61.7L249.4,61.7z"/>
<path d="M250.1,82.5c-0.2-1-0.7-1.8-1.3-2.6c-0.7,0.1-0.6,1.1-1.8,1.1c-1.6,0-2.4-1.8-4.1-1.8c-1.6,0-2.5,1.6-4.1,1.6
	c-1.1,0-1.8-1.2-2.3-1.2c-0.5,0.7-0.9,1.6-1.1,2.4c0,0.2,0.1,0.3,0.2,0.5c0.7,1.2,2.1,1.9,3.6,1.8c1.4,0,2.5-1.2,3.7-1.2
	c1.4,0,2.6,1.2,4,1.2c1.2,0.1,2.3-0.5,2.9-1.4C250,82.8,250,82.7,250.1,82.5L250.1,82.5z"/>
<path d="M276.6,72.7c0-7.4-4.8-11.5-12-11.5s-12,4.1-12,11.5c0,7.1,5,11.6,12,11.6S276.6,79.8,276.6,72.7L276.6,72.7z
	 M272.3,72.7c0,4.8-2.9,7.8-7.7,7.8s-7.7-3.1-7.7-7.8c0-4.7,3.1-7.5,7.7-7.5S272.4,68,272.3,72.7L272.3,72.7z"/>
<path d="M298.2,61.5c0-0.2-0.2-0.3-0.4-0.3l0,0c-1.1,0-2.2,0.1-3.3,0.1c-0.8,0-1.2-0.1-2-0.1c-0.2,0-0.5,0.1-0.5,0.3
	c0,0.3,1.1,1.6,1.1,2.8v12.4c0,2.2-1.2,3.4-3.5,3.4c-2.4,0-3.9-0.9-3.9-3.3V64.2c0.1-1,0.5-1.9,0.9-2.7c0-0.2-0.2-0.3-0.4-0.3l0,0
	c-1.8,0-3.1,0-4.9,0c-0.2,0-0.5,0.1-0.6,0.3c0,0.3,0.2,0.5,0.4,0.7c0.2,0.7,0.3,1.4,0.3,2.1v15.1c0,4.3,4.6,5,8,5
	c2.6,0,8.1-1.1,8.1-4.5V64.2C297.5,63.2,297.8,62.3,298.2,61.5L298.2,61.5z"/>
<path d="M320.2,77.6c0-7-10.4-9.5-10.4-11.5c0.2-0.8,0.9-1.4,1.7-1.3c1.4,0.1,2.9,0.4,4.1,1.1c0.3-0.1,0.5-0.4,0.7-0.6
	c0.2-0.4,0.5-0.8,0.8-1.2c0.3-0.3,0.6-0.7,0.8-1.1c-0.1-1-4.4-2-5.8-2c-3.5,0-7.2,1-7.2,4.8c0,6.3,10.5,6.3,10.5,11.7
	c0,2.4-2.5,3.5-4.6,3.5s-4.2-0.7-5.9-2c-0.2-0.3-0.6-0.6-1-0.8c-0.5,0-0.6,1-1,1.6c-0.8,1.3-1.2,1.4-1.2,1.8c0,0.3,0.2,0.5,0.5,0.5
	c2.5,1.7,5.5,2.6,8.5,2.6C315.2,84.7,320.2,82.6,320.2,77.6L320.2,77.6z"/>
<path d="M341.7,84c0-0.2-0.1-0.4-0.2-0.5c-0.8-1.1-0.7-3.4-0.8-4.7c-0.8-9.8-5.9-17.6-16.6-17.6
	c-0.3-0.1-0.6,0.1-0.7,0.4c0,0.5,1,0.9,1,1.6v18.3c-0.1,0.9-0.4,1.7-0.8,2.5c0,0.3,0.6,0.4,0.8,0.4c0.8,0,1.6-0.1,2.4-0.1
	c0.5,0,1.1,0.1,1.6,0.1c0.2,0,1.5-0.1,1.5-0.4c-0.1-0.3-0.2-0.5-0.4-0.6c-1.2-1-0.9-3.7-0.9-4.9c0-0.2,0.1-0.2,0.3-0.2h7.3
	c0.2,0,0.3,0,0.3,0.2c0.1,0.9,0.2,1.7,0.1,2.6c0,0.6,0,2.1-0.6,2.5c-0.2,0.1-0.4,0.3-0.5,0.6c0,0.3,0.3,0.4,0.6,0.4
	c0.9,0,1.7-0.2,2.5-0.2c0.5,0,1.1,0.1,1.6,0.1C340.5,84.4,341.7,84.3,341.7,84L341.7,84z M335.6,74.3c0,0.1-0.2,0.1-0.3,0.1h-6.7
	v-0.1v-7.7c0-0.2,0.1-0.4,0.3-0.5h0.1C331.7,66.1,335.6,71.8,335.6,74.3L335.6,74.3z"/>
<path d="M363.7,61.6c0-0.4-0.4-0.4-0.7-0.4c-1.6,0-3.3-0.1-4.9-0.1c-0.3,0-0.6,0.1-0.7,0.4c0.1,0.3,0.3,0.5,0.6,0.7
	c0.3,0.5,0.5,1.1,0.4,1.6v6.7h-0.1c0,0-4.9-5.7-6.5-7.5c-0.1-0.1-0.1-0.2-0.1-0.3c0-0.4,0.6-0.7,0.6-1.1c0-0.4-0.4-0.4-0.7-0.4
	c-1.9,0-3.7-0.1-5.6-0.1c-0.3-0.1-0.6,0.1-0.7,0.4c0.1,0.3,0.2,0.5,0.4,0.8c0.1,0.4,0.2,0.9,0.1,1.3V81c-0.1,1-0.4,2-1,2.8
	c0,0.3,0.3,0.5,0.6,0.5h0.1c0.9,0,1.9-0.1,2.8-0.1c0.8,0,1.6,0.1,2.4,0.1c0.3,0,0.5-0.1,0.7-0.4c0-0.6-1.2-0.6-1.2-2.6V66.9h0.2
	c0,0,1.9,2.2,2.8,3.3l5.2,6.1v2.1h4.3V64.3C362.8,62.8,363.7,62.1,363.7,61.6L363.7,61.6z"/>
<path d="M386.1,69.1c0.1-4.2-3.1-7.7-7.3-7.8c-0.2,0-0.4,0-0.6,0c-3.5,0-6.9-0.1-10.3-0.1c-0.4,0-0.7,0.2-0.7,0.6l0,0
	c0,0.4,1.1,1.5,1.1,2.7v13.1c0,1.5,0,4.7-0.8,5.9c-0.2,0.2-0.3,0.4-0.4,0.7c0.2,0.3,0.5,0.5,0.8,0.4c2-0.2,4-0.7,5.9-1.6
	C379.4,80.5,386.1,76,386.1,69.1L386.1,69.1z M381.4,69.7c0,3.9-4.3,7.7-7.9,8.6c-0.2,0-0.3,0.1-0.5,0.1c-0.3-0.1-0.6-0.4-0.5-0.8
	V66.3c0-1.2,1.3-1.3,2.2-1.3h1.9C379.7,65,381.4,66.7,381.4,69.7L381.4,69.7z"/>
<path d="M425.5,71.7c0-1.9-1.8-3-3.6-3c-2.3-0.1-4.3,1.4-4.9,3.7c0,0.3-0.2,0.5-0.5,0.6c-1.1,0-1-2.3-4-2.3
	c-1.9,0-4,1.6-4,3.7c-0.1,0.5,0.2,0.9,0.7,1l0,0c0.7,0,1.3-1,2.4-1c1.5,0,2.3,0.3,2.3,1.9c0,2.5-2,4.6-4.5,4.6c-0.1,0-0.2,0-0.3,0
	c-2.9,0-6.1-1.4-6.1-4.8c0-2.8,1.3-4.1,4-4.1c0.9,0,1.9-2.1,1.9-2.8c0-1.1-3.1,0.1-3.1-2.3c0-1.6,1.7-2.2,3-2.2
	c2.2,0,3.7,1.5,4,1.5c1-0.9,1.9-2,2.5-3.2c-0.1-0.3-0.3-0.6-0.7-0.7c-2-0.9-4.1-1.4-6.3-1.4c-2.8,0-7,1.7-7,5
	c0,1.5,0.8,2.9,2.1,3.6c-2.9,1.1-5,3.3-5,6.5c0,5.7,5,8.6,10.2,8.6c5.5,0,9-2.9,9.6-8.4c0.1-1.4,1.4-3.5,3.1-3.5
	c1.2,0,1.8,0.7,2.7,0.7C424.9,73.4,425.6,72.6,425.5,71.7L425.5,71.7L425.5,71.7z"/>
<path d="M452.7,65.4c0-1.2-0.2-2.3-0.2-3.4c0-0.5,0-0.8-0.6-0.8c-4.7,0-9.3,0-13.9,0c-0.3,0-0.6-0.1-0.6,0.3
	c0.2,0.7,0.4,1.5,0.6,2.3v16.4c0,0.9,0,2.6-0.8,3.2c-0.2,0.2-0.4,0.4-0.4,0.7c0.1,0.3,0.4,0.4,0.6,0.4c0.8,0,1.6-0.1,2.4-0.1
	c0.7,0,1.4,0.1,2.2,0.1c0.3,0,1.2,0.1,1.2-0.4c0-0.4-0.9-0.9-0.9-2.1v-9.1h8.7c0.4,0,0.9-0.1,0.9-0.5v-2.7c0-0.5-0.2-0.6-0.7-0.6
	H443c-0.2,0-0.8,0.1-0.8-0.3v-3.3c0-0.2-0.1-0.3,0.4-0.3h6c1.1,0,2.1,0.1,3.1,0.6c0.1,0.2,0.3,0.3,0.5,0.4
	C452.5,65.9,452.7,65.7,452.7,65.4L452.7,65.4z"/>
<path d="M464.7,61.6c-0.1-0.3-0.4-0.5-0.7-0.4c-0.7,0-1.5,0.1-2.2,0.1c-0.8,0-1.5-0.1-2.3-0.1c-0.3,0-0.6,0.2-0.7,0.5
	c0,0.3,0.2,0.6,0.4,0.8c0.2,0.6,0.3,1.3,0.3,1.9v16.9c0.1,0.8-0.1,1.5-0.6,2.2c-0.2,0.1-0.3,0.3-0.3,0.5c0,0.3,0.3,0.5,0.6,0.5
	c0.8,0,1.6-0.1,2.4-0.1s1.6,0.1,2.4,0.1c0.3,0,0.6-0.2,0.7-0.5c-0.4-0.7-0.7-1.6-0.8-2.4V64.2C463.9,63.3,464.2,62.4,464.7,61.6
	L464.7,61.6z"/>
<path d="M485.1,65.4c0-1.2-0.2-2.3-0.2-3.4c0-0.5,0-0.8-0.6-0.8c-4.7,0-9.3,0-13.9,0c-0.3,0-0.6-0.1-0.6,0.3
	c0.2,0.7,0.4,1.5,0.6,2.3v16.4c0,0.9,0,2.6-0.8,3.2c-0.2,0.2-0.4,0.4-0.4,0.7c0.1,0.3,0.4,0.4,0.6,0.4c0.8,0,1.6-0.1,2.4-0.1
	c0.7,0,1.4,0.1,2.2,0.1c0.3,0,1.2,0.1,1.2-0.4c0-0.4-0.9-0.9-0.9-2.1v-9.1h8.7c0.4,0,0.9-0.1,0.9-0.5v-2.7c0-0.5-0.2-0.6-0.7-0.6
	h-8.1c-0.2,0-0.8,0.1-0.8-0.3v-3.3c0-0.2-0.1-0.3,0.4-0.3h6c1.1,0,2.1,0.1,3.1,0.6c0.1,0.2,0.3,0.3,0.5,0.4
	C484.9,65.9,485.1,65.7,485.1,65.4L485.1,65.4z"/>
<path d="M507.5,64.9c0-1.2,0-2.4,0-3.7c-2.9,0.1-5.8,0.2-8.7,0.2h-3.1c-2,0-4-0.1-6-0.1c0,1.2,0,2.4,0,3.7
	c0,0.3,0.2,0.6,0.5,0.6h0.1c0.3-0.1,0.7-0.1,1-0.3c1.3-0.3,2.6-0.4,4-0.4c0.2,0,1.2-0.1,1.2,0.2v16c0,1.3-1.1,2.4-1.1,2.6
	c0.1,0.4,0.5,0.7,1,0.6c1.3,0,2.7-0.1,4.1-0.1c0.2,0,0.5,0.1,0.8,0.1c0.3,0.1,0.6-0.1,0.6-0.4l0,0c-0.1-0.4-0.3-0.7-0.5-1
	c-0.2-0.6-0.3-1.2-0.3-1.8v-16c0-0.3,1-0.2,1.2-0.2c1.3-0.1,2.7,0.1,4,0.4c0.3,0.1,0.7,0.2,1,0.3c0.3,0,0.6-0.2,0.6-0.5
	C507.6,65,507.6,65,507.5,64.9L507.5,64.9z"/>
<path d="M523.2,76.6v-1.9c0.1-0.4-0.2-0.8-0.5-0.9h-0.1c-1,0-1.7,0.7-2.7,0.7H515c-0.2,0-0.4-0.1-0.4-0.3v-0.1v-4h5.9
	c0.4,0.1,0.8-0.2,0.9-0.7v-0.1c0-0.4,0-0.8,0-1.2c0.1-0.5-0.2-1.1-0.7-1.2h-0.1h-6v-2.6h4.3c0.9,0,1.7,0.6,2.6,0.6
	c0.3,0,0.6-0.3,0.5-0.6c0-0.9-0.1-1.8-0.1-2.6c-0.1-0.4-0.4-0.6-0.8-0.6c-3.1,0-6.2,0-9.3,0c-0.3,0-1.2,0-1.2,0.5s0.4,1,0.4,1.5
	v11.4c-0.1,0.9-0.4,1.8-0.8,2.6c0,0.5,0.9,0.6,1.2,0.6c3.5,0,7,0,10.5,0c0.6,0.1,1.1-0.2,1.2-0.8C523.2,76.9,523.3,76.7,523.2,76.6
	L523.2,76.6z"/>
<path d="M523.6,82.5c-0.2-0.9-0.6-1.8-1.2-2.6c-0.5,0.1-0.6,1.1-1.7,1.1c-1.5,0-2.3-1.7-3.8-1.7s-2.4,1.6-3.8,1.6
	c-1,0-1.7-1.2-2.2-1.2c-0.5,0.7-0.8,1.6-1.1,2.4c0,0.2,0.1,0.3,0.2,0.5c0.7,1.2,2,1.9,3.4,1.8c1.3,0,2.4-1.2,3.5-1.2
	c1.3,0,2.4,1.2,3.8,1.2c1.1,0.1,2.2-0.5,2.7-1.4C523.4,82.8,523.5,82.7,523.6,82.5L523.6,82.5z"/>
<path d="M543.5,83.1c0-0.5,0.2-3.3-0.6-3.3c-0.2,0-1.2,0.1-1.4,0.1c-0.1,0-0.1-0.1-0.2-0.1c-4.2-0.8-9-3-10.5-7h9.2
	c0.5,0,0.9-0.1,0.9-0.7v-2.4c0.1-0.3-0.1-0.7-0.5-0.7c-0.1,0-0.2,0-0.3,0h-9.7c0.4-2.3,2.3-3.7,4.8-3.7c1.2,0,4.2,0.2,5.1,0.9
	c0.2,0.2,0.4,0.3,0.6,0.5c0.3-0.1,0.4-0.3,0.4-0.6c0-1.2,0-2.6-0.1-3.8c0-0.6-0.1-0.8-0.8-0.8H536c-5.3,0-10.3,2.5-10.3,8.9
	c0,6.1,5.2,9.8,10.2,12.2c2.3,1,4.7,1.7,7.2,2C543.4,84.5,543.5,83.3,543.5,83.1L543.5,83.1z"/>
<path d="M564.9,84.1c0-0.3-0.2-0.5-0.3-0.7c-0.2-0.7-0.4-1.4-0.3-2.1V66.5c0-1.9-2.1-5.4-7.3-5.4
	c-1.7,0-3.3,0.6-4.6,1.8c0-0.3,0-0.7,0.2-1c0-0.1,0-0.1,0.1-0.2c0.1-0.1,0.1-0.1,0.1-0.2c0-0.3-0.8-0.2-1.1-0.2
	c-0.5,0-1.4,0.1-2.2,0.1c-0.6,0-1-0.1-1.6-0.1c-0.2,0-0.5,0.1-0.5,0.3c0,0.3,0.1,0.5,0.3,0.7c0.2,0.7,0.4,1.4,0.3,2.1v17.2
	c0,0.6-0.2,1.2-0.4,1.7c-0.2,0.3-0.3,0.7-0.5,1c0.1,0.2,0.3,0.3,0.5,0.3h0.1c0.7,0,1.5-0.1,2.2-0.1c0.8,0,2.1,0.1,2.9,0.1
	c0.2,0,0.5-0.1,0.5-0.3c-0.1-0.1-0.1-0.3-0.2-0.4c-0.5-0.7-0.8-1.5-0.9-2.3V68.5c0-2.3,2-3.4,4.2-3.4c1.7-0.2,3.2,1.1,3.3,2.8
	c0,0.2,0,0.4,0,0.7v12.9c0,0.6-0.2,1.2-0.4,1.7c-0.2,0.3-0.3,0.7-0.4,1c0,0.2,0.2,0.3,0.4,0.3l0,0h0.1c0.6,0,2.9-0.1,3.6-0.1
	c0.9,0,0.3,0.1,1.2,0.1C564.7,84.4,565,84.4,564.9,84.1L564.9,84.1z"/>
<path d="M574.1,82.3c-0.1-1.5-1.3-2.6-2.7-2.6c-1.2-0.1-2.3,0.9-2.3,2.1c0,0.1,0,0.2,0,0.3
	c-0.1,1.4,0.9,2.7,2.4,2.8C572.9,84.8,574.1,83.7,574.1,82.3L574.1,82.3z"/>
</svg>
