<?xml version="1.0" encoding="utf-8"?>
<!-- Generator: Adobe Illustrator 21.1.0, SVG Export Plug-In . SVG Version: 6.00 Build 0)  -->
<svg version="1.1" id="Layer_1" xmlns="http://www.w3.org/2000/svg" xmlns:xlink="http://www.w3.org/1999/xlink" x="0px" y="0px"
	 viewBox="0 0 151.5 23.5" style="enable-background:new 0 0 151.5 23.5;" xml:space="preserve">
<style type="text/css">
	.st0{fill:#001F33;}
</style>
<path id="regIstry" class="st0" d="M18.2,23c0-0.4-1.4-1.1-1.8-1.6c-1.9-2.8-4.2-7.1-6-10.5c4,0,7-0.8,7-5.3c0-2.9-2.2-5.3-5.1-5.4
	c-3.1,0-6.1,0-9.2,0C2.4,0.2,1.6,0,0.8,0C0.6,0,0.3,0.2,0.2,0.4c0.1,0.8,1,0.8,1,2.2v17.2c0,2.4-1.2,2.4-1.2,3.1
	c0,0.4,0.3,0.4,0.6,0.4c0.8,0,1.7-0.1,2.5-0.1c0.5,0,3.3,0.3,3.3-0.4c0-0.4-0.9-1-0.9-2.1V11c0.9,1.6,5.9,9.9,5.9,10.9
	c-0.1,0.3-0.3,0.7-0.4,1c0,0.2,0.2,0.4,0.5,0.4c2.1,0,4.2,0,6.3,0C18,23.4,18.2,23.3,18.2,23z M12.7,5.7c0,0.8-0.4,1.9-1.4,1.9H5.8
	c-0.3,0-0.3,0-0.3-0.4v-3C5.5,4,5.7,4,5.8,4h5.4C12.1,4.1,12.7,4.8,12.7,5.7L12.7,5.7z M37.8,22c0-0.5,0.2-3.3-0.6-3.3
	c-0.2,0-1.2,0.1-1.4,0.1c-0.1,0-0.1,0-0.2,0c-4.2-0.8-9-3-10.5-7h9.2c0.4,0.1,0.7-0.1,0.8-0.5c0-0.1,0-0.2,0-0.2V8.6
	c0.1-0.3-0.1-0.7-0.5-0.7c-0.1,0-0.2,0-0.3,0h-9.7c0.4-2.4,2.3-3.6,4.8-3.6c1.2,0,4.2,0.1,5.1,0.9c0.2,0.2,0.4,0.4,0.6,0.5
	c0.3-0.1,0.5-0.3,0.4-0.6c0-1.2,0-2.6-0.1-3.8c0-0.6-0.1-0.8-0.8-0.8h-4.4C25,0.3,20,2.8,20,9.2c0,6.1,5.2,9.9,10.2,12.2
	c2.3,1,4.7,1.7,7.2,2C37.7,23.4,37.8,22.2,37.8,22L37.8,22z M60.6,9.5c0-0.3-0.2-0.4-0.5-0.4c0,0,0,0-0.1,0c-0.7,0-1.4,0.1-2.2,0.1
	h-6.6c-0.3-0.1-0.6,0.1-0.7,0.4c0,0.1,0,0.2,0,0.3v1.8c-0.1,0.4,0.2,0.7,0.6,0.8c0.1,0,0.2,0,0.2,0h3.4c0.5,0,0.6,0.1,0.6,0.6v5.8
	c0,0.4-0.3,0.5-0.7,0.5c-0.7,0-1.5-0.1-2.2-0.3c-3.9-0.7-7.3-3-7.3-7.4c0-4.5,3.3-6.9,7.6-6.9c1.2,0,3.4,0,4.4,0.8
	c0.3-0.1,0.5-0.3,0.5-0.6V1.2c0-0.9-1.1-0.9-1.7-0.9c-7.5,0-15.2,2.7-15.2,11.5c0,7.3,5.7,10.2,12.1,11.2c1.8,0.3,3.6,0.4,5.4,0.4
	c0.4,0,0.8,0.1,1.2,0.1c0.3,0.1,0.6-0.1,0.6-0.4c0,0,0,0,0,0c-0.1-0.3-0.2-0.6-0.2-0.9v-10C59.7,11,60.6,9.7,60.6,9.5L60.6,9.5z
	 M71.4,0.6c-0.1-0.3-0.4-0.5-0.7-0.4c-0.7,0-1.5,0-2.2,0c-0.8,0-1.5-0.1-2.3-0.1c-0.3,0-0.6,0.2-0.7,0.5c0,0.3,0.2,0.6,0.4,0.8
	c0.2,0.6,0.3,1.3,0.3,1.9v16.9c0.1,0.8-0.1,1.5-0.6,2.2c-0.2,0.1-0.3,0.3-0.3,0.5c0,0.3,0.3,0.5,0.6,0.5c0.8,0,1.6-0.1,2.4-0.1
	c0.8,0,1.6,0.1,2.4,0.1c0.3,0,0.6-0.2,0.7-0.5c-0.4-0.7-0.7-1.6-0.8-2.4V3.2C70.6,2.2,70.9,1.4,71.4,0.6L71.4,0.6z M88.8,11.8
	c0-5.4-7.6-6.1-7.6-8c0.1-0.5,0.6-0.9,1.2-0.8c1,0.1,2,0.4,2.9,1c0.8-0.6,1.4-1.4,1.9-2.2C86.9,0.5,83.9,0,82.9,0
	c-2.7,0-5.3,1-5.3,4.2c0,4.6,7.5,3.9,7.5,7.5c0,1.5-1.7,2.2-3,2.2c-2.4,0-4.8-1.9-4.8-1.9c-0.5,0-1.4,1.8-1.7,2.3
	c0.1,1.4,4.4,2.7,6.5,2.7C85.1,16.9,88.8,15.4,88.8,11.8L88.8,11.8z M89,21.4c-0.2-1-0.6-1.8-1.2-2.6c-0.6,0.1-0.6,1.1-1.7,1.1
	c-1.5,0-2.4-1.8-3.9-1.8c-1.5,0-2.4,1.6-3.8,1.6c-1,0-1.7-1.2-2.2-1.2c-0.5,0.7-0.8,1.6-1.1,2.5c0,0.2,0.1,0.3,0.1,0.4
	c0.7,1.2,2.1,1.9,3.5,1.8c1.3,0,2.4-1.1,3.6-1.1c1.4,0,2.4,1.1,3.8,1.1c1.1,0.1,2.2-0.4,2.8-1.4C88.9,21.8,89,21.6,89,21.4L89,21.4z
	 M109.3,3.9c0-1.2,0-2.5,0-3.7c-2.9,0.1-5.8,0.1-8.7,0.1h-3.1c-2,0-4,0-6-0.1c0,1.2,0,2.5,0,3.6c0,0.3,0.2,0.6,0.5,0.6
	c0,0,0.1,0,0.1,0c0.3,0,0.7-0.1,1-0.3c1.3-0.3,2.6-0.4,4-0.4c0.2,0,1.2-0.1,1.2,0.2v16c0,1.3-1.1,2.4-1.1,2.6c0.1,0.4,0.5,0.7,1,0.6
	c1.3,0,2.7,0,4.1,0c0.2,0,0.5,0.1,0.8,0.1c0.3,0.1,0.6-0.1,0.6-0.4c0,0,0,0,0,0c-0.1-0.4-0.3-0.7-0.5-1c-0.2-0.6-0.3-1.2-0.3-1.8V4
	c0-0.3,1-0.2,1.2-0.2c1.3-0.1,2.7,0.1,4,0.4c0.3,0.1,0.7,0.2,1,0.3c0.3,0,0.6-0.2,0.6-0.5C109.3,4,109.3,3.9,109.3,3.9L109.3,3.9z
	 M130.8,23c0-0.4-1.4-1.1-1.8-1.6c-1.9-2.8-4.2-7.1-6-10.5c4,0,7-0.8,7-5.3c0-2.9-2.2-5.3-5.1-5.4c-3.1,0-6.1,0-9.2,0
	c-0.8,0-1.5-0.2-2.3-0.2c-0.3,0-0.5,0.1-0.6,0.4c0.1,0.8,1,0.8,1,2.2v17.2c0,2.4-1.2,2.4-1.2,3.1c0,0.4,0.3,0.4,0.6,0.4
	c0.8,0,1.7-0.1,2.5-0.1c0.5,0,3.3,0.3,3.3-0.4c0-0.4-0.9-1-0.9-2.1V11c0.9,1.6,5.9,9.9,5.9,10.9c-0.1,0.3-0.3,0.7-0.4,1
	c0,0.2,0.2,0.4,0.5,0.4c2.1,0,4.2,0,6.3,0C130.5,23.4,130.7,23.2,130.8,23L130.8,23z M125.2,5.7c0,0.8-0.4,1.9-1.4,1.9h-5.5
	c-0.3,0-0.3,0-0.3-0.4v-3c0-0.2,0.2-0.2,0.3-0.2h5.4C124.6,4.1,125.2,4.8,125.2,5.7L125.2,5.7z M151.5,0.5c0-0.3-0.3-0.5-0.6-0.4
	c0,0,0,0,0,0c-1.1,0-2.2,0.1-3.3,0.1c-0.8,0-1.5,0-2.3,0c-0.3,0-0.6,0.2-0.6,0.5c0,0,0,0.1,0,0.1c0,0.1,0,0.3,0.1,0.4
	c-0.1,0.6-2.3,5.1-2.6,6c-0.2,0.5-0.4,1-0.6,1.6c-0.4-0.7-3.7-7.3-3.7-7.4c0-0.2,0.1-0.4,0.1-0.6c0-0.5-0.3-0.5-0.8-0.5
	c-0.7,0-1.4,0.1-2.1,0.1c-1.2,0-2.3-0.1-3.4-0.1c-0.3,0-0.6,0.2-0.7,0.5c0,0.4,1,0.7,1.3,0.9c1.8,0.9,6,8.8,7,11v8.2
	c0,0.8-0.6,1.4-0.6,2.2c0,0.3,0.3,0.5,0.6,0.4c0.6,0,1.3-0.1,1.9-0.1c0.9,0,1.7,0.1,2.5,0.1c0.3,0.1,0.6-0.1,0.7-0.4
	c0-0.7-0.7-1.3-0.7-2.4v-8.1c0-0.6,5.3-10.5,5.9-10.8C150.1,1.4,151.5,1.1,151.5,0.5L151.5,0.5z"/>
</svg>
