<svg xmlns="http://www.w3.org/2000/svg" width="297.5" height="23.81" viewBox="0 0 297.5 23.81">
  <metadata><?xpacket begin="﻿" id="W5M0MpCehiHzreSzNTczkc9d"?>
<x:xmpmeta xmlns:x="adobe:ns:meta/" x:xmptk="Adobe XMP Core 5.6-c138 79.159824, 2016/09/14-01:09:01        ">
   <rdf:RDF xmlns:rdf="http://www.w3.org/1999/02/22-rdf-syntax-ns#">
      <rdf:Description rdf:about=""/>
   </rdf:RDF>
</x:xmpmeta>
                                                                                                    
                                                                                                    
                                                                                                    
                                                                                                    
                                                                                                    
                                                                                                    
                                                                                                    
                                                                                                    
                                                                                                    
                                                                                                    
                                                                                                    
                                                                                                    
                                                                                                    
                                                                                                    
                                                                                                    
                                                                                                    
                                                                                                    
                                                                                                    
                                                                                                    
                                                                                                    
                           
<?xpacket end="w"?></metadata>
<defs>
    <style>
      .cls-1 {
        fill: #aa9c62;
        fill-rule: evenodd;
      }
    </style>
  </defs>
  <path id="HOw_we_FIrst_Met:" data-name="HOw we FIrst Met:" class="cls-1" d="M255.537,1034.75a0.707,0.707,0,0,0-.768-0.44c-0.72,0-1.488.1-2.208,0.1-0.912,0-1.776-.05-2.689-0.05-0.288,0-.624.05-0.624,0.43s1.056,1.64,1.056,2.74v2.45a4.1,4.1,0,0,0-1.968-.63c-1.44,0-2.64.96-4.08,0.96a1.278,1.278,0,0,1-1.488-1.24v-2.4c0-.29.96-1.64,0.96-1.92a0.707,0.707,0,0,0-.768-0.44c-0.672,0-1.392.05-2.064,0.05-0.816,0-1.584-.09-2.4-0.09a0.517,0.517,0,0,0-.624.48,1.18,1.18,0,0,0,.384.76,6.353,6.353,0,0,1,.24,1.97l0.048,16.85a3.7,3.7,0,0,1-.672,2.26,0.728,0.728,0,0,0-.288.53,0.57,0.57,0,0,0,.672.43c0.769,0,1.537-.1,2.305-0.1s1.584,0.1,2.352.1a0.623,0.623,0,0,0,.72-0.43c0-.39-0.864-1.73-0.864-2.69v-10.56a5.537,5.537,0,0,0,2.16.38c1.248,0,2.3-.82,3.552-0.82a1.785,1.785,0,0,1,1.824,1.78v9.12a4.1,4.1,0,0,1-.768,2.26,0.6,0.6,0,0,0-.288.53c0,0.38.336,0.43,0.624,0.43,0.865,0,1.777-.1,2.641-0.1,0.72,0,1.488.1,2.208,0.1a0.623,0.623,0,0,0,.72-0.43c0-.44-0.816-1.49-0.816-2.45v-17.24C254.625,1036.28,255.537,1035.08,255.537,1034.75Zm27.744,11.08c0-7.39-4.752-11.52-12-11.52s-11.953,4.13-11.953,11.52c0,7.06,4.992,11.62,11.953,11.62S283.281,1052.89,283.281,1045.83Zm-4.272,0c0,4.76-2.929,7.83-7.729,7.83s-7.681-3.07-7.681-7.83c0-4.65,3.072-7.53,7.681-7.53S279.009,1041.18,279.009,1045.83Zm31.775-11.08c0-.39-0.288-0.44-0.624-0.44-0.912,0-1.3.15-2.208,0.15s-1.44-.19-2.352-0.19a0.673,0.673,0,0,0-.672.57l0.144,0.24a1.111,1.111,0,0,1,.624.67,1.089,1.089,0,0,1-.048.39l-2.208,14.16H303.3c-0.96-3.27-3.265-8.11-4.273-11.14a1,1,0,0,0-1.152-.38c-0.384,0-.48,0-0.624.38-1.1,3.27-3.168,8.45-4.128,11.24h-0.1l-2.16-14.26v-0.24c0-.77.72-0.82,0.72-1.25a0.823,0.823,0,0,0-.672-0.38c-0.865,0-1.009.19-1.873,0.19-1.056,0-2.064-.15-3.12-0.15a0.358,0.358,0,0,0-.384.39,0.6,0.6,0,0,0,.336.53,2.7,2.7,0,0,1,1.056,1.96c1.056,5.19,2.064,11.86,3.12,17.91a4.9,4.9,0,0,1,.144.82c0,0.43-.432.67-0.432,1.05a0.571,0.571,0,0,0,.672.53c0.769,0,1.585-.05,2.353-0.05s1.152,0.1,1.92.1c0.336,0,.96.05,0.96-0.43,0-.44-0.384-0.87-0.384-1.3,0-1.2,2.64-8.74,2.64-8.74h0.192s3.072,7.88,3.072,8.69c0,0.43-.384.87-0.384,1.3s0.432,0.48.768,0.48c0.817,0,1.105-.1,1.921-0.1s1.584,0.05,2.4.05a0.57,0.57,0,0,0,.672-0.43c0-.39-0.432-0.63-0.432-1.01a6.919,6.919,0,0,1,.192-1.39c1.008-5.62,2.3-13.11,3.072-17.48a2.284,2.284,0,0,1,.96-1.87A0.838,0.838,0,0,0,310.784,1034.75Zm28.079,0.14a0.536,0.536,0,0,0-.672-0.62c-0.672,0-1.3.09-1.968,0.09s-1.3-.14-1.968-0.14c-0.288,0-.769.19-0.721,0.43,0,0.34.769,0.58,0.625,1.1-0.432,2.21-1.3,6.05-1.873,8.88-0.624-2.3-1.3-4.6-1.968-6.91a0.825,0.825,0,0,0-.72-0.29c-0.864,0-.816.48-0.96,1.16-0.48,1.96-1.056,3.98-1.632,6-0.1-.48-1.584-8.36-1.632-8.93-0.048-.34.72-0.48,0.72-0.87a0.62,0.62,0,0,0-.576-0.57c-0.624,0-1.728.14-2.352,0.14-0.672,0-1.393-.14-2.065-0.14a0.632,0.632,0,0,0-.672.53c0.24,0.67.864,1.1,1.1,1.77,0.336,0.87,3.169,12.34,3.073,13.15a1.906,1.906,0,0,0-.384.77,0.76,0.76,0,0,0,.672.44c1.152,0,2.256.04,3.408,0.04a0.57,0.57,0,0,0,.672-0.52c0-.29-0.24-0.53-0.24-0.82a15.008,15.008,0,0,1,.864-4.37,17.607,17.607,0,0,1,1.008,4.32c0,0.34-.24.53-0.24,0.87a1.08,1.08,0,0,0,.912.52c0.576,0,3.745.15,3.745-.52a1.261,1.261,0,0,0-.336-0.68,2.817,2.817,0,0,1,.144-0.91c1.152-4.22,1.92-8.5,2.976-12.72C338.047,1035.23,338.863,1035.51,338.863,1034.89Zm0.24,20.74a6.836,6.836,0,0,0-1.536-2.59c-0.384,0-.96,1.1-2.4,1.1-1.969,0-3.361-1.78-5.329-1.78-1.92,0-3.312,1.64-5.232,1.64-1.248,0-2.689-1.2-2.929-1.2a7.2,7.2,0,0,0-1.44,2.44,0.705,0.705,0,0,0,.288.48,5.35,5.35,0,0,0,4.513,1.78c1.728,0,3.168-1.2,4.848-1.2,1.824,0,3.408,1.2,5.233,1.2a4.62,4.62,0,0,0,3.7-1.39A0.75,0.75,0,0,0,339.1,1055.63Zm19.535-2.4a0.566,0.566,0,0,0-.48-0.53,1.449,1.449,0,0,0-.576.19,8.357,8.357,0,0,1-3.216.77h-6.624c-0.865,0-1.2,0-1.2-.91l-0.048-6.2c0-.67-0.048-0.62.624-0.62h8.065c0.528,0,.864-0.14.864-0.72v-2.4a0.619,0.619,0,0,0-.768-0.72h-8.353a0.379,0.379,0,0,1-.432-0.43v-2.88c0-.24-0.144-0.63.144-0.63h6.289a7.259,7.259,0,0,1,3.024.58,1.444,1.444,0,0,0,.624.29,0.406,0.406,0,0,0,.384-0.48c0-1.25-.192-2.5-0.192-3.75a0.529,0.529,0,0,0-.624-0.48c-3.936,0-7.872.1-11.809,0.1-0.48,0-2.688-.29-2.688.34a15.191,15.191,0,0,1,.624,2.25l-0.048,16.42c0,0.91,0,2.4-.768,3.02a0.849,0.849,0,0,0-.384.68c0,0.33.24,0.38,0.528,0.38,0.816,0,1.68-.05,2.5-0.05,4.417,0,8.785.1,13.2,0.1,0.624,0,1.248.05,1.248-.77v-2.02C358.542,1054.24,358.638,1053.76,358.638,1053.23Zm27.647-14.69c0-1.15-.192-2.26-0.192-3.41,0-.48.048-0.82-0.624-0.82-4.656,0-9.265-.04-13.921-0.04-0.288,0-.576-0.05-0.576.33a22.027,22.027,0,0,1,.576,2.26v16.37c0,0.91,0,2.59-.768,3.21a0.849,0.849,0,0,0-.384.68,0.556,0.556,0,0,0,.624.38c0.816,0,1.584-.05,2.4-0.05,0.72,0,1.44.05,2.16,0.05,0.336,0,1.2.1,1.2-.43,0-.43-0.912-0.91-0.912-2.07l-0.048-10.03h7.969c0.384,0,.864-0.05.864-0.53v-2.73c0-.48-0.24-0.58-0.672-0.58h-7.393c-0.192,0-.768.1-0.768-0.29v-2.35c0-.24-0.1-0.34.432-0.34h5.953a6.748,6.748,0,0,1,3.072.58,1.318,1.318,0,0,0,.48.43A0.716,0.716,0,0,0,386.285,1038.54Zm10.223-3.79a0.649,0.649,0,0,0-.72-0.44c-0.72,0-1.488.05-2.208,0.05-0.768,0-1.488-.09-2.256-0.09a0.736,0.736,0,0,0-.72.48,1.461,1.461,0,0,0,.384.76,5.057,5.057,0,0,1,.288,1.92v16.9a3.409,3.409,0,0,1-.576,2.16,0.8,0.8,0,0,0-.336.53,0.536,0.536,0,0,0,.576.48c0.816,0,1.632-.1,2.448-0.1,0.768,0,1.584.1,2.352,0.1a0.6,0.6,0,0,0,.672-0.48,6.2,6.2,0,0,1-.816-2.4v-17.28A5.737,5.737,0,0,1,396.508,1034.75Zm22.8,22.46c0-.38-1.44-1.1-1.776-1.58-1.872-2.79-4.224-7.06-6-10.47,4.033,0.05,6.961-.81,6.961-5.33a5.308,5.308,0,0,0-5.088-5.37c-3.073,0-6.145-.05-9.217-0.05-0.768,0-1.536-.19-2.3-0.19a0.62,0.62,0,0,0-.576.38c0.144,0.82.96,0.82,0.96,2.21v17.23c0,2.36-1.2,2.4-1.2,3.08,0,0.38.289,0.43,0.577,0.43,0.816,0,1.68-.15,2.5-0.15,0.48,0,3.312.29,3.312-.38,0-.38-0.912-0.96-0.912-2.06v-9.75c0.864,1.58,5.856,9.94,5.856,10.95a6.388,6.388,0,0,1-.432.96,0.472,0.472,0,0,0,.48.43c2.113,0,4.225.05,6.337,0.05A0.647,0.647,0,0,0,419.309,1057.21Zm-5.568-17.38c0,0.82-.432,1.92-1.393,1.92h-5.472c-0.288,0-.336-0.04-0.336-0.38v-3.02c0-.2.192-0.2,0.336-0.2h5.376A1.616,1.616,0,0,1,413.741,1039.83Zm20.256,6.1c0-5.38-7.585-6.14-7.585-7.97a0.991,0.991,0,0,1,1.152-.81,6.231,6.231,0,0,1,2.928.96,8.026,8.026,0,0,0,1.92-2.26c-0.288-1.15-3.36-1.68-4.368-1.68-2.736,0-5.328,1.01-5.328,4.18,0,4.6,7.488,3.88,7.488,7.48,0,1.54-1.728,2.16-3.024,2.16-2.4,0-4.752-1.92-4.848-1.92-0.528,0-1.441,1.83-1.729,2.31,0.1,1.39,4.369,2.74,6.529,2.74C430.252,1051.12,434,1049.53,434,1045.93Zm0.24,9.65a5.915,5.915,0,0,0-1.249-2.59c-0.576.09-.624,1.15-1.728,1.15-1.536,0-2.352-1.78-3.936-1.78-1.536,0-2.352,1.64-3.84,1.64-0.96,0-1.728-1.2-2.209-1.2a7.7,7.7,0,0,0-1.056,2.44,0.8,0.8,0,0,0,.144.44,3.635,3.635,0,0,0,3.457,1.77c1.344,0,2.352-1.15,3.552-1.15,1.392,0,2.448,1.15,3.84,1.15a2.95,2.95,0,0,0,2.785-1.39A0.907,0.907,0,0,0,434.237,1055.58Zm20.256-17.52c0-1.25-.048-2.45-0.048-3.7-2.929.1-5.809,0.15-8.737,0.15h-3.12c-2.017,0-3.985-.05-6-0.1,0,1.2-.048,2.45-0.048,3.65a0.543,0.543,0,0,0,.576.62,3.833,3.833,0,0,0,1.008-.29,14.017,14.017,0,0,1,3.984-.38c0.193,0,1.153-.1,1.153.19v16.04c0,1.29-1.105,2.4-1.105,2.64a0.9,0.9,0,0,0,.961.62c1.344,0,2.736-.05,4.08-0.05,0.24,0,.528.1,0.768,0.1a0.521,0.521,0,0,0,.624-0.43,2.609,2.609,0,0,0-.528-0.96,4.718,4.718,0,0,1-.288-1.83V1038.2c0-.29.96-0.19,1.152-0.19a14.017,14.017,0,0,1,3.984.38,3.828,3.828,0,0,0,1.009.29A0.543,0.543,0,0,0,454.493,1038.06Zm36.911,19.06a0.735,0.735,0,0,0-.384-0.53,4.52,4.52,0,0,1-.72-2.35c-0.336-4.04-.768-8.02-1.1-12.05-0.1-1.35-.24-2.64-0.336-3.99-0.048-.57-0.144-1.25-0.144-1.82,0-.72.864-1.2,0.864-1.63a0.964,0.964,0,0,0-.816-0.39c-1.008,0-1.968.15-2.976,0.15-0.96,0-1.92-.15-2.881-0.15a0.749,0.749,0,0,0-.768.34c-0.192.33-.528,1.01-0.816,1.44-0.768,1.15-1.344,1.87-2.16,2.97a2.032,2.032,0,0,1-.288.39,4.157,4.157,0,0,1-.384-0.43,38.488,38.488,0,0,1-2.88-4.13c-0.048-.05-0.048-0.19-0.1-0.24a0.494,0.494,0,0,0-.576-0.34c-1.056,0-2.112.15-3.169,0.15-0.96,0-1.872-.15-2.832-0.15-0.384,0-.672.1-0.672,0.53,0,0.53.672,0.67,0.672,1.2,0,0.1-.048.19-0.048,0.29-0.528,6-1.056,12-1.68,18a6.826,6.826,0,0,1-1.44,2.78,0.455,0.455,0,0,0,.432.34h2.784c0.912,0,1.776.14,2.688,0.14a0.969,0.969,0,0,0,.625-0.28c-0.193-.82-0.769-1.2-0.769-2.16V1055c0-.52.1-1.1,0.144-1.63l0.384-3.6c0.385-3.6,1.2-10.99,1.2-10.99H473.4s4.992,6.24,5.376,6.24c0.576,0,5.617-6.24,5.617-6.24h0.144s0.624,6.81.912,10.22c0.144,1.83.432,3.7,0.432,5.52,0,1.06-.864,2.21-0.864,2.69a0.642,0.642,0,0,0,.72.43c0.912,0,1.776-.14,2.688-0.14C488.764,1057.5,491.4,1057.64,491.4,1057.12Zm15.023-7.35v-1.87a0.716,0.716,0,0,0-.624-0.87c-0.96,0-1.728.68-2.688,0.68h-4.9a0.353,0.353,0,0,1-.432-0.39l0.048-3.98h5.857a0.8,0.8,0,0,0,.912-0.77c0-.43.048-0.77,0.048-1.2a1.007,1.007,0,0,0-.864-1.25h-6v-2.64h4.321c0.912,0,1.68.63,2.592,0.63a0.591,0.591,0,0,0,.528-0.63c0-.86-0.1-1.77-0.1-2.64a0.7,0.7,0,0,0-.768-0.57c-3.072,0-6.193.04-9.265,0.04-0.336,0-1.248,0-1.248.53s0.384,1.01.384,1.54v11.42a8.166,8.166,0,0,1-.816,2.55c0,0.53.864,0.57,1.248,0.57,3.5,0,7.009-.04,10.513-0.04A1.038,1.038,0,0,0,506.427,1049.77Zm0.336,5.86a6.2,6.2,0,0,0-1.248-2.59c-0.528.09-.624,1.1-1.68,1.1-1.488,0-2.256-1.73-3.841-1.73-1.536,0-2.352,1.63-3.84,1.63-0.96,0-1.68-1.24-2.16-1.24a7.7,7.7,0,0,0-1.056,2.44,0.82,0.82,0,0,0,.192.48,3.479,3.479,0,0,0,3.36,1.78c1.344,0,2.352-1.2,3.5-1.2,1.345,0,2.4,1.2,3.793,1.2a2.913,2.913,0,0,0,2.736-1.44A0.975,0.975,0,0,0,506.763,1055.63Zm20.112-17.57c0-1.25-.048-2.45-0.048-3.7-2.928.1-5.809,0.15-8.737,0.15h-3.12c-2.016,0-3.984-.05-6-0.1,0,1.2-.048,2.45-0.048,3.65a0.543,0.543,0,0,0,.576.62,3.833,3.833,0,0,0,1.008-.29,14.028,14.028,0,0,1,3.985-.38c0.192,0,1.152-.1,1.152.19v16.04c0,1.29-1.1,2.4-1.1,2.64a0.9,0.9,0,0,0,.96.62c1.344,0,2.736-.05,4.08-0.05,0.24,0,.528.1,0.768,0.1a0.521,0.521,0,0,0,.624-0.43,2.609,2.609,0,0,0-.528-0.96,4.718,4.718,0,0,1-.288-1.83V1038.2c0-.29.96-0.19,1.152-0.19a14.021,14.021,0,0,1,3.985.38,3.833,3.833,0,0,0,1.008.29A0.543,0.543,0,0,0,526.875,1038.06Zm8.206-1.25a2.619,2.619,0,0,0-2.688-2.5,2.2,2.2,0,0,0-2.352,2.26,2.754,2.754,0,0,0,2.448,2.88A2.688,2.688,0,0,0,535.081,1036.81Zm0,18.58a2.741,2.741,0,0,0-2.736-2.59,2.214,2.214,0,0,0-2.3,2.4,2.587,2.587,0,0,0,2.352,2.78A2.7,2.7,0,0,0,535.081,1055.39Z" transform="translate(-237.594 -1034.16)"/>
</svg>
