<svg viewBox="0 0 462.7 385.4">
<g id="title-date">
	<path d="M147.4,385.4c-4.9,0-7.6-3.6-7.6-10.5c0-6.8,2.7-10.3,7.6-10.3c4.9,0,7.5,3.6,7.5,10.3
		C154.9,381.8,152.2,385.4,147.4,385.4z M147.2,366.8c-3.1,0-5,2.8-5,8c0,5.5,1.8,8.3,5,8.3c3.3,0,5.1-2.8,5.1-8.3
		C152.4,369.6,150.5,366.8,147.2,366.8z"/>
	<path d="M167.4,367.4c-0.9-0.4-1.8-0.6-2.8-0.6c-3.5,0-5.7,2.5-5.7,6.8c0,4.9,3.7,8.7,9.7,9.1v2.3c-7.7-0.3-12.3-4.9-12.3-11.4
		c0-5.6,3-9.1,7.9-9.1c1.4,0,2.6,0.2,3.8,0.6L167.4,367.4z"/>
	<path d="M176.5,384.9h-2.4v-17.8h-4.8v-2.2h12v2.2h-4.8V384.9z"/>
	<path d="M193.5,370.8c0,3.5-2.8,6.2-6.2,6.2s-6.2-2.8-6.2-6.2c0-3.5,2.8-6.2,6.2-6.2S193.5,367.3,193.5,370.8z M183.4,370.8
		c0,2.2,1.7,3.9,3.9,3.9s3.9-1.7,3.9-3.9c0-2.2-1.7-3.9-3.9-3.9C185.1,366.9,183.4,368.6,183.4,370.8z M188.8,382.2v2.7h-2.8v-2.7
		H188.8z"/>
	<path d="M208.1,378.6c0,4.2-2.4,6.4-7.1,6.4h-5.2v-20h4.6c2.7,0,4.2,1.1,4.2,3.2c0,1-0.4,1.9-1.3,2.7
		C206.6,373.3,208.1,375.7,208.1,378.6z M202.1,368.4c0-1-0.8-1.3-2.4-1.3h-1.4v4.8C200.8,370.7,202.1,369.4,202.1,368.4z
		 M198.2,374.4v8.3h2.3c3.5,0,5.1-1.1,5.1-3.9c0-2.5-1.4-4.3-4.2-6.4C200.4,373.3,199.3,373.9,198.2,374.4z"/>
	<path d="M212.9,382.8h7.3v2.2h-9.8v-20h8.9v2.2h-6.5v1.5h9.1v2.2h-9.1V382.8z"/>
	<path d="M236.5,384.9h-2.9l-5.9-11.8h-1.4v11.8h-2.4v-20h4.4c4.3,0,6.5,0.8,6.5,4c0,2.3-1.4,3.6-4.4,4L236.5,384.9z M228.6,370.9
		c2.4,0,3.6-0.7,3.6-1.9c0-1.4-1.1-1.8-3.6-1.8h-2.3v3.8H228.6z"/>
	<path d="M247.9,373.6c-3,0-4.7-1.7-4.7-4.3c0-2.7,2-4.6,5-4.6c3.3,0,5.3,1.8,5.3,4.8c0,2.2-0.8,4-2,6l-4.3,7.3h7.2v2.2h-11.2
		l5.4-8.9c1.6-2.6,2.5-4.6,2.5-6.2c0-2-0.9-3-2.8-3c-1.6,0-2.6,0.9-2.6,2.3c0,1.4,0.9,2.1,2.6,2.1h0.2v2.3H247.9z"/>
	<path d="M256.3,367.1v-2.2h10.1v1.1c-4,4.5-6.2,10.7-6.8,18.9h-2.5c0-6.1,1.9-12,5.7-17.8H256.3z"/>
	<path d="M278.8,373.6c-3,0-4.7-1.7-4.7-4.3c0-2.7,2-4.6,5-4.6c3.3,0,5.3,1.8,5.3,4.8c0,2.2-0.8,4-2,6l-4.3,7.3h7.2v2.2H274l5.4-8.9
		c1.6-2.6,2.5-4.6,2.5-6.2c0-2-0.9-3-2.8-3c-1.6,0-2.6,0.9-2.6,2.3c0,1.4,0.9,2.1,2.6,2.1h0.2v2.3H278.8z"/>
	<path d="M300.2,366.8c1.4,1.4,2.2,3.2,2.2,5.2c0,2-0.8,3.8-2.2,5.2c-1.4,1.4-3.3,2.2-5.2,2.2c-2,0-3.8-0.8-5.2-2.2
		c-1.4-1.4-2.2-3.3-2.2-5.2c0-2,0.8-3.8,2.2-5.2c1.4-1.4,3.3-2.2,5.2-2.2C296.9,364.6,298.8,365.4,300.2,366.8z M290,372
		c0,2.8,2.2,4.9,5,4.9c2.8,0,4.9-2.2,4.9-4.9c0-2.8-2.2-5-4.9-5C292.2,367,290,369.2,290,372z M290.3,382.7h9.2v2.2h-9.2V382.7z"/>
	<path d="M304.3,369l-0.9-1.8l3.9-2.2h2.2v20H307v-17.4L304.3,369z"/>
	<path d="M312.9,367.1v-2.2H323v1.1c-4,4.5-6.2,10.7-6.8,18.9h-2.5c0-6.1,1.9-12,5.7-17.8H312.9z"/>
</g>
<rect id="title-line-right" x="352.7" y="373.8" width="110" height="2"/>
<rect id="title-line-left" y="373.8" width="110" height="2"/>
<g id="title-are-getting-married">
	<path d="M35.3,336.1c-2-4.1-7-19-7.9-26.6c-0.1-0.7,0.1-1.6-0.9-1.6c-1.6,0-2.6,0.2-4.3,0.2c-1.5,0-2.6-0.2-4.1-0.2
		c-0.4,0-0.8,0.3-1,0.7c-0.2,8.7-5.9,21.6-8.5,27.4c-0.1,0.2-0.2,0.3-0.2,0.5c0.1,0.3,0.4,0.6,0.8,0.5c1.4,0,2.3-0.2,3.7-0.2
		c1.3,0,2.5,0.2,3.8,0.2c0.4,0,0.8-0.3,0.8-0.7c0-0.7-1.2-0.5-1.2-1.9c0-1.2,0-4.9,1.7-4.9h7.6c1.8,0,1.8,2.9,1.8,4.1
		c0,1.6-0.9,1.9-0.9,2.6c0,0.2,0.1,0.4,0.2,0.5h0.4c1.4,0,2.8-0.2,4.3-0.2c1.3,0,2,0.2,3.2,0.2c0.4,0.2,0.8,0.2,0.8-0.2
		C35.4,336.4,35.3,336.2,35.3,336.1z M25.3,324.7h-5.8c-0.2,0-0.4-0.1-0.3-0.2c0.4-1.9,1.8-8.8,2.3-10.9c-0.1-0.2,0.1-0.3,0.3-0.3
		H23c0.2,0,0.3,0.1,0.4,0.2c0.3,2.2,1.8,9.5,2.1,11L25.3,324.7z"/>
	<path d="M63,335.7c-0.5-0.4-0.9-0.9-1.1-1.4c-0.8-1.3-6.8-14.5-6.8-14.9c0-0.9,7-6.5,7-8.6c0-2.6-3.3-2.9-5.2-2.9
		c-4.1,0-9.1,0.1-13.1,0.1c-0.9,0-1.8-0.1-2.7-0.1c-0.4-0.1-0.7,0.2-0.8,0.5c0,0.3,0.1,0.5,0.4,0.7c0.6,0.7,0.7,2.4,0.7,3.2l0.1,21
		c0,1.4-1.3,2.6-1.3,3.2c0,0.3,0.3,0.6,0.6,0.6h0.1c0.9,0,1.9-0.2,2.8-0.2h3.5c0.4,0.1,0.7-0.2,0.8-0.6c-0.5-1.1-1.1-1.3-1.1-2.6
		V328c0-0.3,0.1-0.6,0.2-0.8c0.5-0.8,1.1-1,1.7-1.7c0.4-0.5,1.9-1.7,2.3-2.3c0.6,1.2,5,10.7,5,11.2c0,0.7-0.7,1.3-0.7,2
		c0,0.3,0.2,0.6,0.5,0.6c0,0,0,0,0.1,0c1.3,0,2.6-0.1,3.9-0.1c1.1,0,2.2,0.2,3.4,0.2c0-0.3,0.3-0.5,0.4-0.7
		C63.5,336.1,63.3,335.9,63,335.7z M46.5,320.7v-7.5c0-0.5,0.1-0.6,0.6-0.6h6.7c0.2,0,0.4,0.1,0.4,0.2
		C54.2,313.3,47.4,320.1,46.5,320.7z"/>
	<g>
		<path d="M82,327.1v-2.3c0.1-0.5-0.2-1-0.7-1.1h-0.1c-1.2,0-2.2,0.8-3.4,0.8h-6.1c-0.2,0.1-0.5-0.1-0.5-0.3c0-0.1,0-0.1,0-0.2
			l0.1-5h7.3c0.5,0.1,1.1-0.3,1.1-0.8v-0.1c0-0.5,0.1-1,0.1-1.5c0-0.7-0.2-1.6-1.1-1.6h-7.5v-3.3h5.4c1.1,0,2.1,0.8,3.2,0.8
			c0.4,0,0.7-0.4,0.7-0.8c0-1.1-0.1-2.2-0.1-3.3c-0.1-0.5-0.5-0.8-1-0.7c-3.8,0-7.7,0.1-11.6,0.1c-0.4,0-1.6,0-1.6,0.7
			s0.5,1.3,0.5,1.9v14.3c0,1.4-1,2.9-1,3.2c0,0.7,1.1,0.7,1.6,0.7c4.4,0,8.8-0.1,13.1-0.1c0.7,0.1,1.4-0.3,1.5-1
			C82,327.4,82,327.2,82,327.1L82,327.1z"/>
		<path d="M82.4,334.4c-0.3-1.2-0.8-2.3-1.6-3.2c-0.7,0.1-0.8,1.4-2.1,1.4c-1.9,0-2.8-2.2-4.8-2.2c-1.9,0-2.9,2-4.8,2
			c-1.2,0-2.1-1.6-2.7-1.6c-0.6,0.9-1.1,2-1.3,3.1c0,0.2,0.1,0.4,0.2,0.6c0.8,1.5,2.5,2.4,4.2,2.2c1.7,0,2.9-1.5,4.4-1.5
			c1.7,0,3,1.5,4.7,1.5c1.4,0.1,2.7-0.6,3.4-1.8C82.3,334.8,82.4,334.6,82.4,334.4L82.4,334.4z"/>
	</g>
	<path d="M121.3,319.5c0-0.3-0.3-0.6-0.6-0.5c0,0,0,0-0.1,0c-0.9,0-1.8,0.1-2.7,0.1h-8.2c-0.4-0.1-0.8,0.1-0.9,0.5
		c0,0.1,0,0.3,0,0.4v2.3c-0.1,0.5,0.3,0.9,0.7,1c0.1,0,0.2,0,0.3,0h4.3c0.7,0,0.7,0.1,0.7,0.7v7.2c0,0.5-0.4,0.6-0.9,0.6
		c-0.9,0-1.9-0.2-2.8-0.4c-4.9-0.9-9.2-3.8-9.2-9.2c0-5.6,4.1-8.6,9.5-8.6c1.6,0,4.2,0.1,5.5,1c0.3-0.1,0.6-0.4,0.6-0.8v-4.7
		c0-1.1-1.4-1.1-2.2-1.1c-9.4,0-19,3.4-19,14.3c0,9.1,7.1,12.8,15.1,14c2.2,0.3,4.5,0.5,6.7,0.5c0.5,0,1,0.1,1.4,0.1
		c0.3,0.1,0.7-0.1,0.8-0.5l0,0c-0.1-0.4-0.2-0.8-0.3-1.1v-12.5C120.1,321.4,121.3,319.8,121.3,319.5L121.3,319.5z"/>
	<path d="M147.6,335.2c0-0.6,0.2-4.1-0.8-4.1c-0.2,0-1.5,0.1-1.7,0.1c-0.1,0-0.2-0.1-0.3-0.1c-5.2-1-11.3-3.8-13.1-8.8h11.5
		c0.5,0.1,0.9-0.1,1.1-0.6c0-0.1,0-0.2,0-0.3v-3c0.1-0.4-0.2-0.8-0.6-0.9c-0.1,0-0.2,0-0.4,0h-12.1c0.5-2.9,2.8-4.6,6-4.6
		c1.4,0,5.3,0.2,6.4,1.1c0.2,0.2,0.5,0.4,0.8,0.6c0.3-0.1,0.6-0.4,0.5-0.8c0-1.6,0-3.2-0.1-4.8c-0.1-0.7-0.2-1-1-1h-5.5
		c-6.6,0-12.8,3.1-12.8,11.1c0,7.6,6.5,12.3,12.8,15.3c2.1,1,6.7,2.5,8.9,2.5C147.4,336.9,147.6,335.4,147.6,335.2L147.6,335.2z"/>
	<g>
		<path d="M166.6,311.3c0-1.2-0.1-2.3-0.1-3.5c-2,0.1-4,0.1-6,0.1c-4.3,0.1-2.9,0.1-4.4,0.1c-2,0-4-0.1-6.1-0.1
			c0,1.1-0.1,2.3-0.1,3.5c0,0.5,0.4,0.9,0.8,0.9c1.7-0.3,3.4-0.5,5.2-0.7v13.8c0,1-1,1.8-1,2.3c0.1,0.6,0.6,1,1.2,0.9h4.3
			c0.5,0.1,0.9-0.3,1-0.7c0-0.4-0.8-1.1-0.8-2.2v-14c1.4-0.1,2.8,0,4.1,0.4c0.3,0.2,0.6,0.3,1,0.3
			C166.2,312.2,166.6,311.8,166.6,311.3L166.6,311.3z"/>
		<path d="M167.1,334.4c0-0.5-1.1-3.1-1.6-3.2c-0.7,0.1-0.8,1.4-2.2,1.4c-1.9,0-2.9-2.2-4.9-2.2s-2.9,2-4.8,2
			c-1.3,0-2.2-1.6-2.8-1.6c-0.6,0.9-1.1,2-1.3,3.1c0,0.2,0.1,0.4,0.2,0.6c0.9,1.5,2.6,2.4,4.3,2.2c1.7,0,2.9-1.4,4.4-1.4
			c1.7,0,3.1,1.4,4.8,1.4c1.4,0.1,2.8-0.6,3.5-1.8C167,334.8,167.1,334.6,167.1,334.4z"/>
	</g>
	<path d="M192.2,312.5c0-1.6-0.1-3.1-0.1-4.6c-3.7,0.1-7.3,0.2-10.9,0.2h-3.9c-2.5,0-5-0.1-7.5-0.1c0,1.5-0.1,3.1-0.1,4.6
		c-0.1,0.4,0.2,0.7,0.6,0.8h0.1c0.4-0.1,0.9-0.2,1.3-0.4c1.6-0.4,3.3-0.6,5-0.5c0.2,0,1.4-0.1,1.4,0.2v20c0,1.6-1.4,3-1.4,3.3
		c0.2,0.5,0.7,0.8,1.2,0.8c1.7,0,3.4-0.1,5.1-0.1c0.3,0,0.7,0.1,1,0.1c0.3,0.1,0.7-0.1,0.8-0.5l0,0c-0.1-0.4-0.4-0.8-0.7-1.2
		c-0.3-0.7-0.4-1.5-0.4-2.3v-20.2c0-0.4,1.2-0.2,1.4-0.2c1.7-0.1,3.4,0.1,5,0.5c0.4,0.2,0.8,0.3,1.3,0.4c0.4,0,0.7-0.3,0.7-0.6
		C192.2,312.6,192.2,312.5,192.2,312.5z"/>
	<path d="M205.5,308.3c-0.1-0.4-0.5-0.6-0.9-0.5c-0.9,0-1.9,0.1-2.8,0.1c-1,0-1.9-0.1-2.8-0.1c-0.4,0-0.8,0.2-0.9,0.6
		c0.1,0.4,0.2,0.7,0.5,1c0.3,0.8,0.4,1.6,0.4,2.4v21.1c0.1,1-0.2,1.9-0.7,2.7c-0.2,0.2-0.4,0.4-0.4,0.7c0,0.4,0.4,0.6,0.7,0.6
		c1,0,2-0.1,3.1-0.1c1,0,2,0.1,2.9,0.1c0.4,0.1,0.8-0.2,0.8-0.6s-1-1.3-1-3v-21.6C204.5,310.4,204.9,309.3,205.5,308.3z"/>
	<path d="M234.9,308.3c0-0.5-0.5-0.5-0.8-0.5c-2,0-4.1-0.1-6.1-0.1c-0.4-0.1-0.7,0.2-0.8,0.5c0.1,0.4,0.4,0.7,0.8,0.8
		c0.5,0.4,0.5,1.5,0.5,2v8.3h-0.1c0,0-6.2-7.1-8.1-9.4c-0.1-0.1-0.2-0.3-0.2-0.4c0-0.5,0.7-0.8,0.7-1.4c0-0.5-0.5-0.5-0.8-0.5
		c-2.3,0-4.6-0.1-7-0.1c-0.4-0.1-0.8,0.2-0.9,0.5c0.1,0.4,0.3,0.7,0.5,1c0.2,0.5,0.2,1.1,0.2,1.6v21.8c0,2.2-1.3,3.1-1.3,3.5
		s0.4,0.6,0.7,0.6h0.1c1.1,0,2.3-0.1,3.5-0.1c1,0,2,0.1,2.9,0.1c0.3,0,0.7-0.2,0.8-0.5c0-0.8-1.4-0.8-1.4-3.2V315h0.2
		c0,0,2.3,2.7,3.5,4.1l6.5,7.6v2.6h5.4v-17.6C233.7,309.8,234.9,308.9,234.9,308.3L234.9,308.3z"/>
	<path d="M264.3,319.5c0-0.3-0.3-0.6-0.6-0.5c0,0,0,0-0.1,0c-0.9,0-1.8,0.1-2.7,0.1h-8.2c-0.4-0.1-0.8,0.1-0.9,0.5
		c0,0.1,0,0.3,0,0.4v2.3c-0.1,0.5,0.3,0.9,0.7,1c0.1,0,0.2,0,0.3,0h4.3c0.7,0,0.7,0.1,0.7,0.7v7.2c0,0.5-0.4,0.6-0.9,0.6
		c-0.9,0-1.9-0.2-2.8-0.4c-4.9-0.9-9.2-3.8-9.2-9.2c0-5.6,4.1-8.6,9.5-8.6c1.6,0,4.2,0.1,5.5,1c0.3-0.1,0.6-0.4,0.6-0.8v-4.7
		c0-1.1-1.4-1.1-2.2-1.1c-9.4,0-19,3.4-19,14.3c0,9.1,7.1,12.8,15.1,14c2.2,0.3,4.5,0.5,6.7,0.5c0.5,0,1,0.1,1.4,0.1
		c0.3,0.1,0.7-0.1,0.8-0.5l0,0c-0.1-0.4-0.2-0.8-0.3-1.1v-12.5C263.1,321.4,264.3,319.8,264.3,319.5L264.3,319.5z"/>
	<path d="M315.2,336.5c-0.1-0.3-0.2-0.6-0.5-0.9c-0.3-0.9-0.4-1.7-0.4-2.6v-18.8c0-2.3-1.4-6.5-8.2-6.5c-3.5,0-6.2,1-7.5,2.7
		c-1-1.7-3.1-2.7-5.8-2.7c-3.2,0-4.7,1.1-5.8,2.2c0-0.4,0-0.9,0.2-1.3l0.2-0.2c0.1-0.1,0.1-0.2,0.1-0.3c-0.1-0.4-1-0.3-1.3-0.3
		c-0.7,0-1.4,0.1-2.3,0.1c-0.7,0-1.6-0.1-2.3-0.1c-0.3-0.1-0.6,0.1-0.7,0.4c0.1,0.3,0.2,0.6,0.5,0.8c0.3,0.8,0.4,1.7,0.4,2.6v21.5
		c0,0.8-0.2,1.5-0.5,2.2c-0.2,0.4-0.4,0.8-0.5,1.3c0,0.2,0.3,0.4,0.5,0.4l0,0h0.2c0.9,0,1.9-0.1,2.8-0.1c1,0,2.6,0.1,3.6,0.1
		c0.3,0.1,0.6-0.1,0.7-0.4c-0.1-0.2-0.1-0.3-0.2-0.5c-0.6-0.9-1-1.9-1.1-2.9v-16c0-2.9,1.7-4.2,4.4-4.2c2,0,3.8,1,3.8,4.1v16.2
		c0,0.8-0.2,1.5-0.5,2.2c-0.2,0.4-0.4,0.8-0.6,1.3c0.1,0.3,0.3,0.4,0.6,0.4h0.2c0.8,0,1.8-0.1,2.6-0.1c1.1,0,2.1,0.1,3.1,0.1
		c0.3,0,0.8-0.1,0.8-0.4c-0.1-0.3-0.2-0.6-0.5-0.9c-0.3-0.9-0.4-1.7-0.4-2.6v-16c0-2.9,1.3-4.2,4-4.2s4.3,1.3,4.3,4.4v15.8
		c0,0.8-0.2,1.5-0.5,2.2c-0.2,0.4-0.3,0.8-0.4,1.3c0,0.2,0.1,0.4,0.3,0.4h0.1h0.2c0.8,0,2-0.1,2.8-0.1c1.1,0,2.1,0.1,3.1,0.1
		C314.8,336.8,315.2,336.8,315.2,336.5L315.2,336.5z"/>
	<path d="M343,335.7c-1-1.3-0.8-4.2-1-5.8c-1-12.2-7.4-22-20.7-22c-0.4-0.1-0.8,0.2-0.9,0.5c0,0.6,1.3,1.1,1.3,2v22.9
		c0,1.7-1,2.7-1,3.1c0,0.4,0.7,0.5,1,0.5c1,0,2-0.2,3-0.2c0.7,0,1.3,0.1,2,0.1c0.3,0,1.9-0.1,1.9-0.5c-0.1-0.3-0.3-0.6-0.5-0.8
		c-1.4-1.2-1.1-4.6-1.1-6.1c0-0.2,0.1-0.3,0.4-0.3h9.2c0.2,0,0.4,0,0.4,0.2c0.2,1.1,0.2,2.2,0.1,3.2c0,0.8-0.1,2.6-0.7,3.1
		c-0.3,0.1-0.5,0.4-0.6,0.7c0,0.4,0.4,0.5,0.7,0.5c1.1,0,2.1-0.2,3.2-0.2c0.7,0,1.3,0.1,2,0.1c0.2,0.1,1.6,0,1.6-0.4
		C343.3,336.1,343.2,335.8,343,335.7z M335.4,324.3h-8.3l-0.1-0.1v-9.6c-0.1-0.3,0.1-0.5,0.4-0.6c0.1,0,0.1,0,0.2,0
		c3.3,0,8.2,7.1,8.2,10.2C335.8,324.3,335.5,324.3,335.4,324.3z"/>
	<g>
		<path d="M364,334.4c0-0.6-1-3-1.6-3.2c-0.8,0.2-0.8,1.4-2.2,1.4c-2,0-3-2.2-5.1-2.2c-2,0-3.1,2-5,2c-1.3,0-2.3-1.5-2.9-1.5
			c-0.6,0.9-1.1,2-1.3,3.1c0,0.2,0.1,0.4,0.2,0.6c0.9,1.5,2.7,2.4,4.4,2.2c1.7,0,3.1-1.5,4.6-1.5c1.8,0,3.2,1.5,5,1.5
			C361.5,336.8,364,336,364,334.4L364,334.4z"/>
		<path d="M362.9,326.2c-0.6-0.9-4.6-9.4-4.7-10.1c1-1.4,5-4.4,5-6c0-2-2.6-2.3-4.1-2.3c-3.7,0-7.5-0.1-11.2-0.1
			c-0.4-0.1-0.8,0.3-0.9,0.7c0,0.8,0.7,1.7,0.7,2.8v14.6c0,0.8-0.8,1.4-0.8,2.2c0,0.4,0.3,0.8,0.7,0.8c0.7,0,1.3-0.2,2-0.2
			s3.3,0.5,3.3-0.8c-0.4-0.5-0.6-1.1-0.7-1.7v-3.8c0-0.6,2.2-2.3,2.6-2.8c0.4,0.9,3.3,6.8,3.3,7.2c0,0.5-0.4,0.8-0.4,1.3
			c0,0.4,0.3,0.8,0.7,0.8c1.7,0,3.5,0.1,5.2,0.1c0.4-0.4,0.6-0.7,0.7-1C363.9,327.3,363.4,326.8,362.9,326.2z M352.2,316.4v-4.5
			l0.1-0.1h4.5C355.4,313.5,353.9,315,352.2,316.4z"/>
	</g>
	<path d="M387.4,334.4c-2.3-3.5-5.3-8.8-7.5-13.1c5,0.1,8.7-1,8.7-6.7c0-3.6-2.8-6.6-6.4-6.7c-3.8,0-7.7-0.1-11.5-0.1
		c-1,0-1.9-0.2-2.9-0.2c-0.3,0-0.6,0.2-0.7,0.5c0.2,1,1.2,1,1.2,2.8v21.5c0,2.9-1.5,3-1.5,3.8c0,0.5,0.4,0.5,0.7,0.5
		c1,0,2.1-0.2,3.1-0.2c0.6,0,4.1,0.4,4.1-0.5c0-0.5-1.1-1.2-1.1-2.6v-12.2c1.1,2,7.3,12.4,7.3,13.7c0,0.6-0.5,0.8-0.5,1.2
		c0,0.3,0.3,0.5,0.6,0.5c2.6,0,5.3,0.1,7.9,0.1c0.3,0.2,0.6,0,0.7-0.3C389.6,335.9,387.8,335,387.4,334.4z M373.7,316.6v-3.8
		c0-0.2,0.2-0.2,0.4-0.2h6.7c1.1,0.1,1.9,1,1.8,2.1c0,1-0.5,2.4-1.7,2.4h-6.8C373.7,317.1,373.7,317,373.7,316.6z"/>
	<path d="M401.2,308.3c-0.1-0.4-0.5-0.6-0.9-0.5c-0.9,0-1.9,0.1-2.8,0.1c-1,0-1.9-0.1-2.8-0.1c-0.4,0-0.8,0.2-0.9,0.6
		c0.1,0.4,0.2,0.7,0.5,1c0.3,0.8,0.4,1.6,0.4,2.4v21.1c0.1,1-0.2,1.9-0.7,2.7c-0.2,0.2-0.4,0.4-0.4,0.7c0,0.4,0.4,0.6,0.7,0.6
		c1,0,2-0.1,3.1-0.1c1,0,2,0.1,2.9,0.1c0.4,0.1,0.8-0.2,0.8-0.6s-1-1.3-1-3v-21.6C400.2,310.4,400.5,309.3,401.2,308.3L401.2,308.3z
		"/>
	<path d="M428.8,331.4c0-0.3-0.3-0.6-0.6-0.7c-0.3,0-0.5,0.1-0.7,0.2c-1.3,0.6-2.6,0.9-4,1h-8.3c-1.1,0-1.5,0-1.5-1.1l-0.1-7.7
		c0-0.8-0.1-0.8,0.8-0.8h10.1c0.5,0.1,0.9-0.1,1.1-0.6c0-0.1,0-0.2,0-0.3v-3c0.1-0.4-0.2-0.8-0.6-0.9c-0.1,0-0.2,0-0.4,0h-10.4
		c-0.3,0-0.5-0.1-0.5-0.4V317v-3.6c0-0.3-0.2-0.8,0.2-0.8h7.9c1.3,0,2.6,0.2,3.8,0.7c0.2,0.2,0.5,0.3,0.8,0.4c0.3,0,0.5-0.2,0.5-0.5
		c0,0,0,0,0-0.1c0-1.6-0.2-3.1-0.2-4.7c0-0.4-0.3-0.6-0.7-0.6h-0.1c-4.9,0-9.8,0.1-14.8,0.1c-0.6,0-3.4-0.4-3.4,0.4
		c0,0.4,0.8,1.9,0.8,2.8l-0.1,20.5c0,1.1,0,3-1,3.8c-0.3,0.2-0.5,0.5-0.5,0.8c0,0.4,0.3,0.5,0.7,0.5c1,0,2.1-0.1,3.1-0.1
		c5.5,0,11,0.1,16.5,0.1c0.8,0,1.6,0.1,1.6-1v-2.5C428.7,332.7,428.8,332.1,428.8,331.4L428.8,331.4z"/>
	<path d="M447.3,308c-0.2,0-0.5,0-0.7,0c-4.3,0-8.6-0.1-12.9-0.1c-0.4-0.1-0.8,0.3-0.9,0.7c0,0.5,1.4,1.9,1.4,3.4l-0.1,16.3
		c0,1.9,0,5.9-1,7.4c-0.2,0.3-0.4,0.6-0.5,0.9c0.2,0.4,0.6,0.6,1,0.5c2.2,0,5.3-1.1,7.4-2c7-3.2,15.4-8.8,15.4-17.3
		C456.6,312.6,452.5,308.2,447.3,308z M440.8,329.3c-0.2,0.1-0.4,0.1-0.6,0.1c-0.4-0.1-0.7-0.5-0.7-1v-14.2c0-1.4,1.7-1.6,2.8-1.6
		h2.4c3.7,0,5.9,2.1,5.9,5.9C450.6,323.4,445.2,328.2,440.8,329.3z"/>
</g>
<g id="title-rm">
	<path d="M75.3,92.6c16.3-2.3,24.1-9.2,24.1-21.8c0-17.5-11.7-22-35.5-22H40v109.4h13.3V94h7.9l32.3,64.3h15.6L75.3,92.6z
		 M53.3,81.3V60.8h12.6c13.5,0,19.7,2.5,19.7,10c0,6.9-6.6,10.5-19.5,10.5H53.3z"/>
	<path d="M126.2,122.5V48.9h-13.3v74.9c0,24.3,10.8,36.9,31.8,36.9c20.4,0,31.4-12.8,31.4-36.9V48.9h-13.3v73.6
		c0,18.7-5.1,25.9-18.7,25.9C131.1,148.4,126.2,140.5,126.2,122.5L126.2,122.5z"/>
	<polygon points="224.5,60.8 250.8,60.8 250.8,48.8 185,48.8 185,60.8 211.3,60.8 211.3,158.2 224.6,158.2 224.5,60.8 	"/>
	<path d="M305.7,48.9v20.5h-32.8V48.9h-13.3v109.4h13.3V95.9h32.8v62.3H319V48.9H305.7z M305.7,85.4h-32.8v-5.6h32.8V85.4z"/>
	<polygon points="349.4,158.2 349.4,48.9 336.1,48.9 336.1,158.3 349.4,158.3 	"/>
	<polygon points="379.8,81.2 429.7,81.2 429.7,69.2 379.8,69.2 379.8,60.8 415.4,60.8 415.4,48.8 366.5,48.8 366.5,158.2 420,158.2 
		420,146.2 379.8,146.2 379.8,81.2 	"/>
	<path d="M54.8,199.2l-5.9-8.4h21.3v-12H25.9l14.9,20.8C15,201.5,0,216.9,0,240.4c0,29.4,23.1,47.9,66.2,47.9H74v-77.1h16.1v-12
		H54.8z M61.1,275.5c-30-1-47.3-15.6-47.3-36.6c0-17.7,11.5-27.7,32-27.7h15.3V275.5z"/>
	<polygon points="173.5,209 149.7,178.8 136.6,178.8 136.6,288.2 150,288.2 150,200 173.1,228.5 196.2,200 196.2,288.2 209.7,288.2 
		209.7,178.9 197.2,178.9 	"/>
	<rect x="166.5" y="276.1" width="13.3" height="12.1"/>
	<polygon points="166.5,248.1 166.5,260.2 179.8,260.2 179.8,248.1 166.5,248.1 	"/>
	<path d="M257.1,178.8h-11.7l-28.9,109.4h12.6l3.2-12.1h37.3l3.1,12.1H286L257.1,178.8z M251,203.6l11.8,46.1H239L251,203.6z
		 M234.9,265.9l1.5-6.1h29.1l1.6,6.1H234.9z"/>
	<path d="M328,222.7c16.2-2.3,24.1-9.2,24.1-21.8c0-17.5-11.7-22-35.5-22h-24v109.4H306V224h7.9l32.3,64.3h15.6L328,222.7z
		 M306,211.3v-20.5h12.6c13.5,0,19.7,2.5,19.7,10c0,6.9-6.6,10.5-19.5,10.5H306z"/>
	<polygon points="381.8,288.3 381.8,178.9 368.5,178.9 368.5,288.3 381.8,288.3 	"/>
	<path d="M428.8,176.9c0,0-0.1,0-0.2,0c-18.8,0-34.1,15.3-34.1,34.1c0,18.8,15.3,34.1,34.1,34.1c18.8,0,34.1-15.3,34.1-34.1
		C462.8,192.2,447.6,176.9,428.8,176.9z M428.6,232.3c-11.8,0-21.3-9.5-21.3-21.3c0-11.8,9.5-21.3,21.3-21.3
		c11.8,0,21.3,9.5,21.3,21.3C449.9,222.8,440.4,232.3,428.6,232.3z"/>
	<rect x="421.4" y="273.5" width="15.4" height="14.8"/>
</g>
<g id="title-save-the-date">
	<path d="M105.7,4.7c0-1.1-0.1-2.5-0.1-3.5c0-0.7-0.1-1.1-1-1.1h-2.4C98.4,0,94,1.6,94,6.4c0,4,2.8,7.5,2.8,12.2
		c0,4.4-4.9,6.4-8.2,6.4c-1.6,0-3.4-1.1-4.5-1.1c-0.4,0-0.7,0.4-0.7,0.8v0.1l0.1,4.1c0,0.5,1.5,0.7,1.9,0.7c1.7,0,3.4,0,5-0.1
		c6.1-0.4,12.2-4.3,12.2-10.9c0-4.8-2.8-8.6-2.8-12.1c0-1.4,1.6-1.9,2.7-1.9c1,0.2,1.9,0.5,2.8,0.9C105.6,5.3,105.7,5,105.7,4.7z"/>
	<g>
		<path d="M128.5,23.7c-0.5,0-1,1.4-2.7,1.4c-2.3,0-3.7-2.2-6.1-2.2c-2.2,0-3.7,2-5.9,2c-1.4,0-3-1.6-3.4-1.6
			c-0.3,0-1.6,2.6-1.6,3.1c0,0.2,0.1,0.4,0.2,0.6c1.3,1.6,3.3,2.4,5.3,2.2c2,0,3.6-1.4,5.5-1.4c2.1,0,3.8,1.4,5.9,1.4
			c1.3,0,4.6-0.7,4.6-2.3C130.3,26.4,128.9,23.7,128.5,23.7z"/>
		<path d="M110.5,21.1c0.9,0,1.7-0.2,2.6-0.2c0.9,0,1.6,0.2,2.5,0.2c0.5,0,0.9-0.4,1-0.8c0-0.7-1.1-0.4-1.1-1.4
			c0-0.6,0.2-2.9,1.1-2.9h6.4c1,0,1,2,1,2.6c0,1-1,1.1-1,1.7c0,0.7,0,0.4,0.2,0.7c1.1,0,2-0.2,3.1-0.2c0.8,0,1.5,0.2,2.3,0.2
			c0.4,0.1,0.9-0.2,1-0.6c0-0.1-0.2-0.3-0.2-0.4c-2.2-6.3-4.8-12.1-5.6-18.8c0.1-0.5-0.3-0.9-0.7-1c-0.1,0-0.1,0-0.2,0
			c-1,0-2,0.2-3.1,0.2c-1,0-1.9-0.2-2.9-0.2c-1.3,0-1.2,2.5-1.4,3.5c-1,5.9-3.7,11.2-5.9,16.7C109.6,20.8,110.1,21.2,110.5,21.1z
			 M119.6,4.7h0.8c0,0,1.2,5.4,2,7.9h-5.3C117.9,10.4,119.6,4.7,119.6,4.7z"/>
	</g>
	<path d="M154.9,0.8c0-0.6-0.6-0.6-1-0.6c-1,0-2,0.2-3,0.2c-1.1,0-2.2-0.2-3.3-0.2c-0.2-0.1-0.5,0.1-0.5,0.3c0,0.1,0,0.1,0,0.2
		c0,0.9,0.8,1.1,0.8,2.3c0,2-4.7,16.3-4.7,16.3H143c0,0-4.6-15.2-4.6-16.7c0-1.1,0.7-1.3,0.7-2c0-0.3-0.7-0.4-0.8-0.4
		c-0.9,0-1.9,0.2-2.8,0.2c-1.1,0-2.2-0.2-3.3-0.2c-0.3-0.1-0.5,0.1-0.6,0.4c0,0.1,0,0.1,0,0.2c0,0.2,0.8,1.9,1,2.5
		c1.2,4.9,7,20.5,7,23.9c0,0.6-0.3,1.1-0.3,1.7c0,0.4,0.5,0.4,0.7,0.4c1,0,1.9-0.2,2.8-0.2c1.1,0,2.3,0.3,3.4,0.3
		c0.2,0.1,0.4-0.1,0.5-0.3V29c0-0.5-0.3-1-0.3-1.4c0-0.1,0.8-3.9,1-4.4l1.4-4.8c1.7-5.8,3.8-11.8,5.2-16.1
		C154.2,1.6,154.9,1.2,154.9,0.8L154.9,0.8z"/>
	<path d="M179.4,23.9c0-0.3-0.3-0.6-0.6-0.7c-0.3,0-0.5,0.1-0.7,0.2c-1.3,0.6-2.6,0.9-4,1h-8.3c-1.1,0-1.5,0-1.5-1.1l-0.1-8.9
		c0-0.8-0.1-0.8,0.8-0.8l10.1,0.1c0.5,0.1,1-0.2,1.1-0.7c0-0.1,0-0.2,0-0.3v-3c0.1-0.4-0.2-0.8-0.6-0.9c-0.1,0-0.2,0-0.4,0h-11V5.6
		c0-0.3,0-0.6,0.4-0.6h7.7c1.3,0,2.6,0.2,3.8,0.7c0.2,0.2,0.5,0.3,0.8,0.4c0.3,0,0.5-0.2,0.5-0.5c0,0,0,0,0-0.1
		c0-1.6-0.2-3.1-0.2-4.7c0-0.4-0.3-0.6-0.7-0.6h-0.1c-4.9,0-9.8,0.1-14.8,0.1c-0.6,0-3.4-0.4-3.4,0.4c0,0.4,0.8,1.9,0.8,2.8
		L158.9,24c0,1.1,0,3-1,3.8c-0.3,0.2-0.5,0.5-0.5,0.8c0,0.4,0.3,0.5,0.7,0.5c1,0,2.1-0.1,3.1-0.1c5.5,0,11,0.1,16.5,0.1
		c0.8,0,1.6,0.1,1.6-1v-2.5C179.3,25.1,179.4,24.5,179.4,23.9L179.4,23.9z"/>
	<path d="M216.5,4.9c0-1.6-0.1-3.1-0.1-4.6c-3.7,0.1-7.3,0.2-10.9,0.2h-3.9c-2.5,0-5-0.1-7.5-0.1c0,1.5-0.1,3.1-0.1,4.6
		c-0.1,0.4,0.2,0.7,0.6,0.8h0.1c0.4-0.1,0.9-0.2,1.3-0.4c1.6-0.4,3.3-0.6,5-0.5c0.2,0,1.4-0.1,1.4,0.2v20c0,1.6-1.4,3-1.4,3.3
		c0.2,0.5,0.7,0.8,1.2,0.8c1.7,0,3.4-0.1,5.1-0.1c0.3,0,0.7,0.1,1,0.1c0.3,0.1,0.7-0.1,0.8-0.5l0,0c-0.1-0.4-0.4-0.8-0.7-1.2
		c-0.3-0.7-0.4-1.5-0.4-2.3V5.1c0-0.4,1.2-0.2,1.4-0.2c1.7-0.1,3.4,0.1,5,0.5c0.4,0.2,0.8,0.3,1.3,0.4c0.4,0,0.7-0.3,0.7-0.6
		C216.5,5,216.5,5,216.5,4.9z"/>
	<g>
		<path d="M236.8,0.8c-0.2-0.4-0.6-0.7-1.1-0.7c-1.4,0-2.9,0.1-4.3,0.1c-0.4-0.1-0.7,0.1-0.8,0.5c0,0,0,0.1,0,0.2
			c0,0.7,0.9,1.5,0.9,2.4v2.6h-6V3.8c0-1.1,0.8-2.5,0.8-2.9c-0.1-0.6-0.7-0.9-1.3-0.8h-3c-0.5,0-1.5,0.1-1.5,0.8s0.6,1.6,0.6,2.4
			v14.6c0,1.1-0.8,2-0.8,2.4s0.5,0.8,0.9,0.7l0,0h4.1c0.5,0.1,0.9-0.3,1-0.7c0-0.7-0.8-1.3-0.8-2.1V9.9h6v8c0,1.1-0.9,1.9-0.9,2.4
			c0,0.4,0.3,0.7,0.7,0.7h0.1h4.3c0.5,0.1,0.9-0.3,1-0.7c0-0.6-0.7-1.3-0.7-2.1v-15C236,2.3,236.8,1.3,236.8,0.8L236.8,0.8z"/>
		<path d="M237.7,26.9c-0.3-1.2-0.8-2.3-1.6-3.2c-0.8,0.2-0.8,1.4-2.2,1.4c-2,0-3.1-2.2-5.2-2.2c-2,0-3.2,2-5.1,2
			c-1.3,0-2.3-1.5-2.9-1.5c-0.6,0.9-1.1,2-1.4,3.1c0,0.2,0.1,0.4,0.2,0.6c0.9,1.5,2.7,2.4,4.4,2.2c1.8,0,3.1-1.5,4.7-1.5
			c1.8,0,3.2,1.5,5,1.5c1.5,0.1,2.8-0.6,3.7-1.8C237.5,27.3,237.6,27.1,237.7,26.9L237.7,26.9z"/>
	</g>
	<path d="M262.4,23.9c0-0.3-0.3-0.6-0.6-0.7c-0.3,0-0.5,0.1-0.7,0.2c-1.3,0.6-2.6,0.9-4,1h-8.3c-1.1,0-1.5,0-1.5-1.1l-0.1-8.9
		c0-0.8-0.1-0.8,0.8-0.8l10.1,0.1c0.5,0.1,1-0.2,1.1-0.7c0-0.1,0-0.2,0-0.3v-3c0.1-0.4-0.2-0.8-0.6-0.9c-0.1,0-0.2,0-0.3,0h-11V5.6
		c0-0.3,0-0.6,0.4-0.6h7.7c1.3,0,2.6,0.2,3.8,0.7c0.2,0.2,0.5,0.3,0.8,0.4c0.3,0,0.5-0.2,0.5-0.5c0,0,0,0,0-0.1
		c0-1.6-0.2-3.1-0.2-4.7c0-0.4-0.3-0.6-0.7-0.6h-0.1c-4.9,0-9.8,0.1-14.8,0.1c-0.6,0-3.4-0.4-3.4,0.4c0,0.4,0.8,1.9,0.8,2.8L242,24
		c0,1.1,0,3-1,3.8c-0.3,0.2-0.5,0.5-0.5,0.8c0,0.4,0.3,0.5,0.7,0.5c1,0,2.1-0.1,3.1-0.1c5.5,0,11,0.1,16.5,0.1c0.8,0,1.6,0.1,1.6-1
		v-2.5C262.3,25.1,262.4,24.5,262.4,23.9L262.4,23.9z"/>
	<path d="M285.3,2.1c-2.3-1.1-4.8-1.8-7.3-2c-0.3,0-0.7,0.1-0.8,0.4c0.1,0.3,0.2,0.6,0.5,0.8c1,1.4,1,6.2,1,8.1v16
		c0,0.7-0.3,1.5-0.7,2.1c-0.3,0.4-0.5,0.9-0.7,1.3c0.1,0.3,0.4,0.5,0.7,0.5c4.3,0,8.6-0.1,13-0.1c1.3,0,2.5-0.3,3.7-0.7
		c4.3-1.6,5.8-5.2,5.8-8.8C300.5,11.9,293.5,5.7,285.3,2.1z M289.3,24.4h-2.9c-1.4,0-2.5-0.4-2.5-1.8V9.2c-0.1-0.5,0.3-1,0.8-1.1
		c0.1,0,0.2,0,0.3,0s0.2,0,0.4,0.1c4.3,0.7,9.5,6.1,9.5,10.9C294.9,22.3,293.8,24.4,289.3,24.4z"/>
	<path d="M325.4,2.9c-0.1-0.9,1.2-1.4,1.2-2c-0.1-0.4-0.5-0.6-0.9-0.5c-13.3,0-19.7,9.7-20.7,22c-0.1,1.6,0.1,4.5-1,5.8
		c-0.2,0.1-0.3,0.4-0.3,0.6c0,0.4,1.4,0.5,1.7,0.5c0.7,0,1.3-0.1,2-0.1c1.1,0,2.1,0.2,3.2,0.2c0.4,0,0.7-0.1,0.7-0.5
		c-0.1-0.3-0.3-0.6-0.6-0.7c-0.7-0.5-0.7-2.3-0.7-3.1c-0.1-1.1,0-2.2,0.1-3.2c0.1-0.2,0.2-0.2,0.4-0.2h9.2c0.2,0,0.4,0.1,0.4,0.3
		c0,1.6,0.4,4.9-1.1,6.1c-0.3,0.2-0.5,0.5-0.5,0.8c0,0.4,1.6,0.5,1.9,0.5c0.7,0,1.3-0.1,2-0.1c1,0,2,0.2,3,0.2c0.3,0,1-0.1,1-0.5
		c0-0.4-1-1.4-1-3.1V2.9z M319.9,16.7h-8.3c-0.1,0-0.4,0-0.4-0.1c0-3.1,4.9-10.2,8.2-10.2c0.3,0,0.5,0.2,0.5,0.4c0,0.1,0,0.1,0,0.2
		V16.7L319.9,16.7L319.9,16.7z"/>
	<g>
		<path d="M346.2,3.8c0-1.2-0.1-2.3-0.1-3.5c-2,0.1-4,0.1-6,0.1c-4.3,0.1-2.9,0.1-4.4,0.1c-2,0-4-0.1-6.1-0.1c0,1.1-0.1,2.3-0.1,3.5
			c0,0.5,0.4,0.9,0.8,0.9c1.7-0.3,3.4-0.5,5.2-0.7v13.8c0,1-1,1.8-1,2.3c0.1,0.6,0.6,1,1.2,0.9h4.3c0.5,0.1,0.9-0.3,1-0.7
			c0-0.4-0.8-1.1-0.8-2.2V4c1.4-0.1,2.8,0,4.1,0.4c0.3,0.2,0.6,0.3,1,0.3C345.8,4.7,346.2,4.3,346.2,3.8L346.2,3.8z"/>
		<path d="M346.7,26.9c0-0.5-1.1-3.1-1.6-3.2c-0.7,0.1-0.8,1.4-2.2,1.4c-1.9,0-2.9-2.2-4.9-2.2s-2.9,2-4.8,2c-1.3,0-2.2-1.6-2.8-1.6
			c-0.6,0.9-1.1,2-1.3,3.1c0,0.2,0.1,0.4,0.2,0.6c0.9,1.5,2.6,2.4,4.3,2.2c1.7,0,2.9-1.4,4.4-1.4c1.7,0,3.1,1.4,4.8,1.4
			c1.4,0.1,2.8-0.6,3.5-1.8C346.5,27.3,346.6,27.1,346.7,26.9L346.7,26.9z"/>
	</g>
	<path d="M371.3,23.9c0-0.3-0.3-0.6-0.6-0.7c-0.3,0-0.5,0.1-0.7,0.2c-1.3,0.6-2.6,0.9-4,1h-8.3c-1.1,0-1.5,0-1.5-1.1l-0.1-7.7
		c0-0.8-0.1-0.8,0.8-0.8H367c0.5,0.1,0.9-0.1,1.1-0.6c0-0.1,0-0.2,0-0.3v-3c0.1-0.4-0.2-0.8-0.6-0.9c-0.1,0-0.2,0-0.4,0h-10.4
		c-0.3,0-0.5-0.1-0.5-0.4V9.5V5.8c0-0.3-0.2-0.8,0.2-0.8h7.9c1.3,0,2.6,0.2,3.8,0.7c0.2,0.2,0.5,0.3,0.8,0.4c0.3,0,0.5-0.2,0.5-0.5
		c0,0,0,0,0-0.1c0-1.6-0.2-3.1-0.2-4.7c0-0.4-0.3-0.6-0.7-0.6h-0.1c-4.9,0-9.8,0.1-14.8,0.1c-0.6,0-3.4-0.4-3.4,0.4
		c0,0.4,0.8,1.9,0.8,2.8L350.9,24c0,1.1,0,3-1,3.8c-0.3,0.2-0.5,0.5-0.5,0.8c0,0.4,0.3,0.5,0.7,0.5c1,0,2.1-0.1,3.1-0.1
		c5.5,0,11,0.1,16.5,0.1c0.8,0,1.6,0.1,1.6-1v-2.5C371.2,25.1,371.3,24.5,371.3,23.9L371.3,23.9z"/>
</g>
</svg>
